<svg height="131pt" viewBox="0 0 509 131" width="509pt" xmlns="http://www.w3.org/2000/svg"><path d="m .81.96c6.64-.32 13.37-.78 19.96.23 3.89 10.67 5.16 22.08 8.36 32.96 2.6 8.48 4.16 17.23 5.89 25.93.71 3.48 1.03 7.15 2.78 10.32.59-1.05.96-2.18 1.12-3.37 1.59-10 2.46-20.14 5.1-29.95 2.69-11.88 4.49-23.97 7.39-35.8 7.05-1.2 14.3-.61 21.41-.29-3.02 16.78-7.73 33.21-10.95 49.95-3.77 14.7-6.43 29.66-10.29 44.34-1.97 9.29-3.96 19.36-11.01 26.3-7.67 7.91-19.66 8.72-30 7.87-.58-6.25-.58-12.58.06-18.82 5.28-.47 12.51 1.13 15.52-4.54 3.62-5.43.31-11.69-.99-17.29-3.27-10.02-5.64-20.31-8.57-30.43-1.61-6.25-3.74-12.34-5.34-18.59-3.04-13.06-7.96-25.63-10.44-38.82z"/><path d="m98.1 1.06c6.61-.8 13.27-.2 19.9-.35 7.01.11 14.18-.69 21.02 1.25 7.68 1.75 13.83 7.81 16.95 14.87 2.34 6.09 2.34 12.74 2.47 19.17-.07 7.93.36 15.94-1.02 23.79-1.83 8.28-7.32 16.25-15.59 19.1-7.54 2.43-15.56 2.48-23.4 2.54-.31 15.81.38 31.66-.29 47.46-6.69.27-13.4.36-20.08-.1-.13-1.58-.26-3.17-.28-4.76.09-35.68.01-71.36.04-107.03.06-5.31-.3-10.64.28-15.94m20.76 18.74c-.62 7.05-.12 14.13-.26 21.2.15 6.95-.39 13.93.28 20.87 4.58.31 9.27.67 13.78-.33 3.78-1.02 4.55-5.45 4.86-8.78.35-6.93.08-13.88.15-20.81-.2-3.43-.13-7.41-2.61-10.08-4.74-3.11-10.82-2.64-16.2-2.07z"/><path d="m198.28 7.1c.72-2.04-.03-5.94 2.77-6.3 9.3-.19 18.64-.26 27.94.07 1.84 4.44 1.57 9.35 2.57 13.98 3.22 16.33 4.96 32.9 8.07 49.25 2.65 15.48 4.58 31.09 7.59 46.51.87 6.08 1.97 12.12 2.61 18.23-6.87.32-13.77.46-20.63-.1-1.95-7.39-2.05-15.12-3.48-22.62-7.87-.54-15.8-.37-23.68-.11-2.86 7.27-2.3 15.3-4.24 22.8-6.15.47-12.33.31-18.48.09.12-1.95.27-3.91.59-5.84 2.2-12.53 3.64-25.2 6.19-37.68 3.67-26.16 8.67-52.1 12.18-78.28m15.35 19.78c-1.66 5.88-1.96 12.01-2.98 18.02-2.58 14.28-4.51 28.69-6.31 43.09 5.91.56 11.88.52 17.81.05.37-4.32-.7-8.55-1.29-12.8-1.79-12.36-3.57-24.72-5.36-37.08-.48-3.78-.74-7.62-1.87-11.28z"/><path d="m286.16.94c11.93-.6 23.89-.06 35.84-.24 7.21.21 14.47-.52 21.64.41.06 42.55.05 85.1.01 127.65-6.91.51-13.87.39-20.8.13-.52-4.95-.23-9.93-.26-14.89-.01-31.53.02-63.07 0-94.6-5.73-.23-11.46-.24-17.19 0-.05 3.87.13 7.75-.27 11.6-1.8 13.83.15 27.82-1.38 41.66-1.22 12.3.85 24.84-2.13 36.97-1.42 7.19-5.63 14.33-12.61 17.28-5.88 2.4-12.48 2.89-18.73 2.08-.2-6.07-.5-12.19.26-18.24 3.61-.66 8.35-.17 10.4-3.92 3.05-5.08 1.05-11.3 1.89-16.87 1.69-12.15.01-24.45 1.45-36.61.87-9.44.05-18.92.7-28.37.53-8.01.95-16.02 1.18-24.04z"/><path d="m442.17 1.02c6.79-.59 13.66-.67 20.44.09.48 17.71-.46 35.46.42 53.16 4.87-8.86 8.7-18.23 13.02-27.35 4.39-8.44 8.09-17.22 12.44-25.68 6.77-1.24 13.68-.37 20.51-.37v1.61c-1.9 3.27-3.87 6.52-5.47 9.96-5.9 12.47-12.21 24.74-18.04 37.23-1.29 2.78-3.03 5.4-3.78 8.39.36 3.7 2.43 6.95 3.71 10.39 6.35 16.35 12.89 32.63 19.21 49 1.36 3.36 2.95 6.61 4.37 9.95v1.67c-6.92-.22-13.86.36-20.77-.25-7.2-16.03-12.25-32.97-19.45-49-3.51 3.87-6.08 8.8-6.09 14.13-.22 11.59.3 23.2-.07 34.8-6.81.54-13.65.51-20.46.08-.11-1.61-.22-3.21-.25-4.81.08-39.34.08-78.69 0-118.03.03-1.66.14-3.31.26-4.97z"/><path d="m375.14 55.37c12.17-.07 24.34-.08 36.51.01.29 6.4.28 12.83-.01 19.24-12.17.1-24.35.06-36.52.02-.77-6.38-.75-12.89.02-19.27z"/></svg>