<svg width="188" height="46" viewBox="0 0 188 46" fill="none" xmlns="http://www.w3.org/2000/svg">
<g clip-path="url(#clip0_84_2)">
<path d="M73.5341 12.4956H68.0089L65.6066 23.9495L64.3576 31.7288L62.7241 23.9018L59.8416 12.4956H54.6047L61.9074 38.2671L61.8593 38.5535C61.427 40.9875 59.8895 41.4646 57.1991 41.2737V45.9507C64.5498 46.4278 66.6159 43.4213 67.8649 37.4079L73.5342 12.4956H73.5341ZM88.029 12.4956H80.2459V45.9032H85.5308V33.3514H88.029C93.314 33.3514 95.9083 30.4403 95.9083 25.0951V20.752C95.9083 15.4069 93.314 12.4957 88.029 12.4957V12.4956ZM88.029 17.268C89.7106 17.268 90.6235 18.0315 90.6235 20.4177V25.4289C90.6235 27.8152 89.7107 28.5787 88.029 28.5787H85.5308V17.2679H88.029V17.268ZM114.583 12.4956H106.848L101.467 45.9032H106.319L107.232 39.842H113.718L114.631 45.9032H119.964L114.583 12.4956H114.583ZM110.451 18.4135L112.998 35.3082H107.905L110.452 18.4135H110.451ZM125.427 45.9508H126.244C131.529 45.9508 133.738 43.5645 133.931 37.4558L134.507 17.2681H139.119V45.9032H144.5V12.4956H129.559L128.694 37.742C128.598 40.8441 127.829 41.1783 125.427 41.1783V45.9507V45.9508ZM152.798 31.5856H162.406V26.8132H152.798V31.5856ZM182.571 45.9032H188L180.649 27.3856L188 12.4956H182.715L175.797 27.0516V12.4956H170.512V45.9032H175.797V35.6423L177.43 32.5879L182.571 45.9033V45.9032Z" fill="black"/>
<path d="M54.6045 1.39482H58.384V2.076H55.38V7.20068H54.6045V1.39482ZM62.8278 7.20068V1.39482H65.0344C65.4224 1.39482 65.7188 1.41382 65.9245 1.45025C66.2113 1.49746 66.4524 1.58805 66.6469 1.7206C66.8413 1.85442 66.9978 2.04084 67.1161 2.28C67.2346 2.51944 67.2931 2.78284 67.2931 3.07077C67.2931 3.56269 67.1353 3.98019 66.8183 4.32071C66.5026 4.66279 65.9299 4.83291 65.1026 4.83291H63.6034V7.20082H62.8279L62.8278 7.20068ZM63.6033 4.15187H65.1135C65.6141 4.15187 65.9679 4.06001 66.1787 3.87472C66.3882 3.68957 66.4929 3.43 66.4929 3.09359C66.4929 2.85174 66.4318 2.64349 66.3078 2.47053C66.1841 2.29744 66.0208 2.18261 65.8195 2.12732C65.6889 2.09344 65.4481 2.07586 65.0983 2.07586H63.6031V4.15173L63.6033 4.15187ZM71.0335 1.39496H71.8118L73.726 4.96419L75.3898 1.39496H76.1519L73.9627 5.9116C73.6892 6.47654 73.4647 6.84669 73.2892 7.02106C73.1138 7.19543 72.8633 7.28191 72.5368 7.28191C72.3382 7.28191 72.0946 7.23598 71.8047 7.14397V6.48717C72.0115 6.60611 72.2307 6.66565 72.4619 6.66565C72.6497 6.66565 72.8115 6.60484 72.9491 6.48448C73.0851 6.36426 73.236 6.0898 73.4007 5.66139L71.0335 1.39482V1.39496ZM80.6379 1.39496H85.2253V7.20082H84.4498V2.07614H81.4133V7.20082H80.6378V1.39496H80.6379ZM90.3239 1.39496H94.9112V7.20082H94.1356V2.07614H91.0991V7.20082H90.3237V1.39496H90.3239ZM99.3606 7.20082L101.603 1.39496H102.453L104.833 7.20082H103.952L103.276 5.44137H100.815L100.181 7.20082H99.3605H99.3606ZM101.042 4.81675H103.034L102.425 3.20715C102.241 2.71792 102.102 2.31374 102.005 1.99505C101.925 2.37343 101.818 2.74513 101.683 3.11259L101.042 4.81675H101.042ZM116.086 1.39496H116.861V3.94121C117.214 3.94121 117.462 3.87217 117.605 3.73579C117.75 3.59913 117.932 3.27208 118.155 2.75336C118.317 2.37073 118.45 2.1018 118.557 1.94501C118.661 1.78694 118.811 1.65453 119.005 1.54764C119.199 1.44089 119.413 1.38688 119.648 1.38688C119.946 1.38688 120.102 1.38957 120.118 1.39496V2.05998C120.091 2.05998 120.04 2.05856 119.963 2.05587C119.878 2.05318 119.826 2.0519 119.807 2.0519C119.561 2.0519 119.377 2.11116 119.257 2.23024C119.135 2.34918 118.996 2.60323 118.838 2.9911C118.642 3.48316 118.476 3.79391 118.34 3.92221C118.205 4.04938 118.042 4.15201 117.854 4.22899C118.231 4.33163 118.604 4.6791 118.971 5.26827L120.175 7.20082H119.215L118.234 5.62765C117.966 5.19115 117.741 4.89118 117.562 4.72886C117.381 4.5654 117.148 4.48431 116.861 4.48431V7.20082H116.086V1.39496ZM124.029 4.37487C124.029 3.41271 124.29 2.65852 124.811 2.11371C125.332 1.56919 126.004 1.29743 126.829 1.29743C127.369 1.29743 127.855 1.42601 128.289 1.68133C128.721 1.93679 129.052 2.29361 129.279 2.75166C129.506 3.20842 129.62 3.72743 129.62 4.3071C129.62 4.89501 129.501 5.42195 129.261 5.88566C129.022 6.35065 128.683 6.70195 128.245 6.93969C127.806 7.17899 127.332 7.29778 126.825 7.29778C126.274 7.29778 125.783 7.16523 125.349 6.90183C124.916 6.63829 124.587 6.27878 124.364 5.82201C124.141 5.36666 124.029 4.88423 124.029 4.37473L124.029 4.37487ZM124.829 4.38834C124.829 5.0871 125.018 5.637 125.396 6.03848C125.774 6.43982 126.249 6.64127 126.821 6.64127C127.403 6.64127 127.881 6.43855 128.257 6.03295C128.633 5.62751 128.821 5.05208 128.821 4.30583C128.821 3.83432 128.74 3.42192 128.58 3.07077C128.419 2.71947 128.184 2.44629 127.875 2.25307C127.565 2.05984 127.218 1.96245 126.833 1.96245C126.286 1.96245 125.815 2.14901 125.421 2.52214C125.026 2.89498 124.829 3.51662 124.829 4.38834ZM134.418 7.20068V1.39482H135.577L136.959 5.5046C137.088 5.88708 137.18 6.17373 137.238 6.36426C137.305 6.15346 137.41 5.84242 137.551 5.433L138.958 1.39496H139.993V7.20082H139.25V2.3438L137.544 7.20082H136.848L135.161 2.25463V7.20082H134.418L134.418 7.20068ZM145.062 1.39482H149.649V7.20068H148.874V2.076H145.837V7.20068H145.062V1.39482H145.062ZM154.099 7.20068L156.341 1.39482H157.191L159.571 7.20068H158.69L158.014 5.44123H155.553L154.919 7.20068H154.099H154.099ZM155.78 4.81661H157.772L157.163 3.20701C156.979 2.71777 156.84 2.3136 156.744 1.99491C156.663 2.37328 156.556 2.74499 156.421 3.11245L155.78 4.81661H155.78ZM164.036 7.20068V1.39482H164.812V3.78697H167.832V1.39482H168.608V7.20068H167.832V4.46815H164.812V7.20068H164.036ZM173.735 1.39482H174.437V5.99241L177.548 1.39482H178.314V7.20068H177.612V2.61542L174.509 7.20068H173.735V1.39482ZM183.42 1.39482H184.122V5.99241L187.234 1.39482H188V7.20068H187.298V2.61542L184.195 7.20068H183.42V1.39482ZM186.335 0.000274658H186.824C186.785 0.33399 186.662 0.590727 186.458 0.76921C186.254 0.948968 185.984 1.03814 185.645 1.03814C185.305 1.03814 185.032 0.948968 184.83 0.771903C184.627 0.593421 184.505 0.336684 184.465 0.000274658H184.955C184.992 0.182585 185.066 0.319105 185.177 0.408417C185.287 0.499005 185.437 0.543519 185.623 0.543519C185.839 0.543519 186.003 0.500139 186.113 0.412386C186.223 0.32591 186.298 0.187972 186.335 0.000274658Z" fill="black"/>
<path fill-rule="evenodd" clip-rule="evenodd" d="M0.000244141 0.00012207L11.3474 11.2722L0.000244141 22.1057V0.00012207Z" fill="#4D4D4D"/>
<path fill-rule="evenodd" clip-rule="evenodd" d="M0.000244141 0.00012207H23.154L11.3474 11.2722L0.000244141 0.00012207Z" fill="#999999"/>
<path fill-rule="evenodd" clip-rule="evenodd" d="M23.1541 0.000152588H46.3075L34.7307 11.5003L23.1541 0.000152588Z" fill="#999999"/>
<path fill-rule="evenodd" clip-rule="evenodd" d="M34.7307 11.5003L46.3076 0.000152588V23.0002L34.7307 11.5003Z" fill="#4D4D4D"/>
<path fill-rule="evenodd" clip-rule="evenodd" d="M0.000244141 46L11.7979 34.2808L23.154 46H0.000244141Z" fill="black"/>
<path fill-rule="evenodd" clip-rule="evenodd" d="M0.000244141 46V22.1057L11.7979 34.2808L0.000244141 46Z" fill="#4D4D4D"/>
<path fill-rule="evenodd" clip-rule="evenodd" d="M34.7307 34.5003L46.3076 23.0002V46L34.7307 34.5003Z" fill="#4D4D4D"/>
<path fill-rule="evenodd" clip-rule="evenodd" d="M23.1541 46L34.7307 34.5003L46.3075 46H23.1541Z" fill="black"/>
<path fill-rule="evenodd" clip-rule="evenodd" d="M11.3477 11.2719L23.154 0L34.7309 11.5L23.154 22.9999L11.3477 11.2719Z" fill="#FF7070"/>
<path fill-rule="evenodd" clip-rule="evenodd" d="M0.000488281 22.1055L11.7981 34.2804L23.1541 22.9999L11.3477 11.2719L0.000488281 22.1055Z" fill="#FF3B3B"/>
<path fill-rule="evenodd" clip-rule="evenodd" d="M23.1541 22.9999L34.7309 11.5L46.3078 22.9999L34.7309 34.5L23.1541 22.9999Z" fill="#FF3B3B"/>
<path fill-rule="evenodd" clip-rule="evenodd" d="M11.7981 34.2804L23.1541 22.9998L34.7309 34.5L23.1541 45.9998L11.7981 34.2804Z" fill="#C20A0A"/>
</g>
<defs>
<clipPath id="clip0_84_2">
<rect width="188" height="46" fill="white"/>
</clipPath>
</defs>
</svg>
