<?xml version="1.0" encoding="UTF-8" ?>
<!DOCTYPE svg PUBLIC "-//W3C//DTD SVG 1.1//EN" "http://www.w3.org/Graphics/SVG/1.1/DTD/svg11.dtd">
<svg width="174pt" height="67pt" viewBox="0 0 174 67" version="1.1" xmlns="http://www.w3.org/2000/svg">
<g id="#ffffffff">
</g>
<g id="#727270ff">
<path fill="#727270" opacity="1.00" d=" M 0.00 1.04 L 0.51 0.01 C 14.25 9.12 27.82 18.49 41.71 27.37 C 56.46 36.85 70.89 46.87 85.61 56.41 C 88.01 58.35 90.25 55.23 92.29 54.16 C 119.45 36.12 146.46 17.83 173.76 0.01 C 173.66 2.91 174.44 6.04 173.41 8.81 C 148.56 25.12 123.95 41.81 99.14 58.19 C 95.00 61.21 90.45 63.65 86.56 67.00 L 85.96 67.00 L 87.11 66.53 C 73.08 57.84 59.85 47.93 45.95 39.04 C 30.68 28.74 15.32 18.58 0.00 8.35 L 0.00 1.04 Z" />
</g>
</svg>
