<?xml version="1.0" encoding="UTF-8" ?>
<!DOCTYPE svg PUBLIC "-//W3C//DTD SVG 1.1//EN" "http://www.w3.org/Graphics/SVG/1.1/DTD/svg11.dtd">
<svg width="449pt" height="280pt" viewBox="0 0 449 280" version="1.1" xmlns="http://www.w3.org/2000/svg">
<g id="#e5e5e5ff">
</g>
<g id="#4d4d4eff">
<path fill="#4d4d4e" opacity="1.00" d=" M 416.78 6.74 C 421.35 1.50 429.24 -0.57 435.79 1.75 C 445.50 4.59 451.38 16.76 446.89 25.97 C 445.52 29.57 442.70 32.31 439.90 34.84 C 359.79 112.12 279.69 189.40 199.58 266.67 C 194.73 270.76 190.97 276.60 184.60 278.48 C 179.29 279.90 173.03 280.11 168.57 276.39 C 114.26 220.03 59.71 163.83 5.37 107.47 C 0.56 102.78 -0.14 95.49 1.44 89.27 C 3.79 81.94 11.23 76.65 18.92 76.85 C 23.71 76.81 28.38 78.92 31.77 82.25 C 76.55 128.79 121.41 175.25 166.23 221.75 C 170.93 226.12 174.74 231.45 179.84 235.36 C 250.04 167.72 320.20 100.03 390.40 32.39 C 399.14 23.79 408.20 15.50 416.78 6.74 Z" />
</g>
</svg>
