<svg width="183" height="183" viewBox="0 0 183 183" fill="none" xmlns="http://www.w3.org/2000/svg">
<path d="M182.172 145.86L181.259 143.114C179.104 136.702 172.031 130.013 165.535 128.253L141.519 121.683C134.999 119.911 125.698 122.297 120.927 127.052L112.206 135.766C96.6509 131.552 82.47 123.338 71.0745 111.942C59.6791 100.546 51.4664 86.3649 47.2535 70.8092L55.9555 62.1072C60.7265 57.3362 63.112 48.0473 61.3248 41.5275L54.782 17.4732C53.0063 10.9534 46.3062 3.89662 39.9091 1.74892L37.1631 0.839975C30.7507 -1.29239 21.6076 0.862986 16.8366 5.63396L3.83528 18.6621C1.49581 20.9747 8.75527e-05 27.5904 8.75527e-05 27.6134C-0.231386 48.0512 3.61765 68.3297 11.3218 87.2612C19.0259 106.193 30.4302 123.397 44.8667 137.865C59.3032 152.334 76.4817 163.777 95.3961 171.523C114.31 179.269 134.58 183.163 155.019 182.977C155.233 182.977 162.041 181.512 164.365 179.199L177.382 166.183C182.172 161.416 184.308 152.257 182.172 145.86Z" fill="#4D4D4D"/>
</svg>
