<svg width="192" height="74" viewBox="0 0 192 74" fill="none" xmlns="http://www.w3.org/2000/svg">
<path d="M2.772 58.632C3.972 57.432 5.448 56.832 7.2 56.832C8.952 56.832 10.428 57.432 11.628 58.632C12.828 59.832 13.428 61.296 13.428 63.024C13.428 64.752 12.828 66.216 11.628 67.416C10.428 68.604 8.952 69.198 7.2 69.198C5.448 69.198 3.972 68.604 2.772 67.416C1.572 66.216 0.972 64.752 0.972 63.024C0.972 61.296 1.572 59.832 2.772 58.632ZM3.348 66.912C4.38 67.956 5.664 68.478 7.2 68.478C8.736 68.478 10.02 67.956 11.052 66.912C12.084 65.856 12.6 64.56 12.6 63.024C12.6 61.476 12.084 60.18 11.052 59.136C10.02 58.08 8.736 57.552 7.2 57.552C5.664 57.552 4.38 58.08 3.348 59.136C2.316 60.18 1.8 61.476 1.8 63.024C1.8 64.56 2.316 65.856 3.348 66.912ZM16.0165 56.994H24.8725V69H24.0805V57.714H16.8085V69H16.0165V56.994ZM33.7622 57.714H30.6482V69H29.8562V57.714H26.7422V56.994H33.7622V57.714ZM36.2232 58.632C37.4232 57.432 38.8992 56.832 40.6512 56.832C42.4032 56.832 43.8792 57.432 45.0792 58.632C46.2792 59.832 46.8792 61.296 46.8792 63.024C46.8792 64.752 46.2792 66.216 45.0792 67.416C43.8792 68.604 42.4032 69.198 40.6512 69.198C38.8992 69.198 37.4232 68.604 36.2232 67.416C35.0232 66.216 34.4232 64.752 34.4232 63.024C34.4232 61.296 35.0232 59.832 36.2232 58.632ZM36.7992 66.912C37.8312 67.956 39.1152 68.478 40.6512 68.478C42.1872 68.478 43.4712 67.956 44.5032 66.912C45.5352 65.856 46.0512 64.56 46.0512 63.024C46.0512 61.476 45.5352 60.18 44.5032 59.136C43.4712 58.08 42.1872 57.552 40.6512 57.552C39.1152 57.552 37.8312 58.08 36.7992 59.136C35.7672 60.18 35.2512 61.476 35.2512 63.024C35.2512 64.56 35.7672 65.856 36.7992 66.912ZM49.4677 69V56.994H52.0957C53.1277 56.994 53.9377 57.27 54.5257 57.822C55.1137 58.362 55.4077 59.088 55.4077 60C55.4077 61.176 54.9397 62.052 54.0037 62.628C54.7717 62.748 55.3777 63.084 55.8217 63.636C56.2657 64.188 56.4877 64.854 56.4877 65.634C56.4877 66.666 56.1397 67.488 55.4437 68.1C54.7597 68.7 53.8657 69 52.7617 69H49.4677ZM50.2597 57.714V62.43H52.1677C52.8517 62.43 53.3977 62.262 53.8057 61.926C54.3337 61.494 54.5977 60.882 54.5977 60.09C54.5977 59.286 54.3277 58.662 53.7877 58.218C53.3557 57.882 52.6897 57.714 51.7897 57.714H50.2597ZM50.2597 63.15V68.28H52.2757C52.6477 68.28 52.9417 68.274 53.1577 68.262C53.3737 68.238 53.6497 68.172 53.9857 68.064C54.3337 67.956 54.6337 67.788 54.8857 67.56C55.4017 67.104 55.6597 66.492 55.6597 65.724C55.6597 64.632 55.2337 63.888 54.3817 63.492C53.8657 63.264 53.1157 63.15 52.1317 63.15H50.2597ZM59.0829 69V56.994H59.8749V62.16H61.9629C64.7229 62.16 66.1029 63.258 66.1029 65.454C66.1029 66.45 65.7789 67.29 65.1309 67.974C64.4949 68.658 63.5229 69 62.2149 69H59.0829ZM59.8749 62.88V68.28H61.8909C63.1029 68.28 63.9789 68.016 64.5189 67.488C65.0229 67.008 65.2749 66.33 65.2749 65.454C65.2749 64.41 64.8609 63.672 64.0329 63.24C63.5649 63 62.8029 62.88 61.7469 62.88H59.8749ZM67.4709 56.994H68.2629V69H67.4709V56.994ZM80.0786 69V58.992L71.5106 69.306V56.994H72.3026V67.182L80.8706 56.868V69H80.0786ZM73.6706 54.546L74.3006 54.204C74.6486 54.972 75.2786 55.356 76.1906 55.356C77.1026 55.356 77.7326 54.972 78.0806 54.204L78.7106 54.546C78.4586 55.098 78.0926 55.494 77.6126 55.734C77.1446 55.962 76.6706 56.076 76.1906 56.076C75.7106 56.076 75.2306 55.962 74.7506 55.734C74.2826 55.494 73.9226 55.098 73.6706 54.546ZM88.3153 56.994H97.1713V69H96.3793V57.714H89.1073V69H88.3153V56.994ZM101.561 58.632C102.761 57.432 104.237 56.832 105.989 56.832C107.741 56.832 109.217 57.432 110.417 58.632C111.617 59.832 112.217 61.296 112.217 63.024C112.217 64.752 111.617 66.216 110.417 67.416C109.217 68.604 107.741 69.198 105.989 69.198C104.237 69.198 102.761 68.604 101.561 67.416C100.361 66.216 99.7611 64.752 99.7611 63.024C99.7611 61.296 100.361 59.832 101.561 58.632ZM102.137 66.912C103.169 67.956 104.453 68.478 105.989 68.478C107.525 68.478 108.809 67.956 109.841 66.912C110.873 65.856 111.389 64.56 111.389 63.024C111.389 61.476 110.873 60.18 109.841 59.136C108.809 58.08 107.525 57.552 105.989 57.552C104.453 57.552 103.169 58.08 102.137 59.136C101.105 60.18 100.589 61.476 100.589 63.024C100.589 64.56 101.105 65.856 102.137 66.912ZM124.418 58.398V59.442C123.902 58.842 123.29 58.38 122.582 58.056C121.886 57.72 121.148 57.552 120.368 57.552C118.844 57.552 117.566 58.086 116.534 59.154C115.502 60.222 114.986 61.524 114.986 63.06C114.986 63.912 115.148 64.692 115.472 65.4C115.808 66.108 116.24 66.684 116.768 67.128C117.308 67.56 117.89 67.896 118.514 68.136C119.138 68.364 119.762 68.478 120.386 68.478C121.058 68.478 121.754 68.334 122.474 68.046C123.194 67.746 123.842 67.284 124.418 66.66V67.704C123.29 68.7 121.958 69.198 120.422 69.198C118.646 69.198 117.158 68.592 115.958 67.38C114.758 66.168 114.158 64.716 114.158 63.024C114.158 61.296 114.764 59.832 115.976 58.632C117.188 57.432 118.658 56.832 120.386 56.832C121.97 56.832 123.314 57.354 124.418 58.398ZM132.657 57.714H129.543V69H128.751V57.714H125.637V56.994H132.657V57.714ZM141.409 69L139.807 65.058H134.695L133.093 69H132.229L137.287 56.634L142.273 69H141.409ZM134.983 64.338H139.519L137.269 58.65L134.983 64.338ZM144.143 69V56.994H146.771C147.803 56.994 148.613 57.27 149.201 57.822C149.789 58.362 150.083 59.088 150.083 60C150.083 61.176 149.615 62.052 148.679 62.628C149.447 62.748 150.053 63.084 150.497 63.636C150.941 64.188 151.163 64.854 151.163 65.634C151.163 66.666 150.815 67.488 150.119 68.1C149.435 68.7 148.541 69 147.437 69H144.143ZM144.935 57.714V62.43H146.843C147.527 62.43 148.073 62.262 148.481 61.926C149.009 61.494 149.273 60.882 149.273 60.09C149.273 59.286 149.003 58.662 148.463 58.218C148.031 57.882 147.365 57.714 146.465 57.714H144.935ZM144.935 63.15V68.28H146.951C147.323 68.28 147.617 68.274 147.833 68.262C148.049 68.238 148.325 68.172 148.661 68.064C149.009 67.956 149.309 67.788 149.561 67.56C150.077 67.104 150.335 66.492 150.335 65.724C150.335 64.632 149.909 63.888 149.057 63.492C148.541 63.264 147.791 63.15 146.807 63.15H144.935ZM153.759 69V56.994H154.551V68.28H160.023V56.994H160.815V68.28H166.287V56.994H167.079V68.28H168.447V71.412H167.691V69H153.759ZM178.885 69V58.992L170.317 69.306V56.994H171.109V67.182L179.677 56.868V69H178.885ZM183.713 56.994V62.646L189.383 56.994H190.427L184.613 62.736L190.769 69H189.689L184.037 63.276L183.713 63.582V69H182.921V56.994H183.713Z" fill="black"/>
<g clip-path="url(#clip0_73_38)">
<path d="M73.5343 12.4956H68.0092L65.6069 23.9495L64.3579 31.7288L62.7244 23.9018L59.8418 12.4956H54.605L61.9076 38.2671L61.8595 38.5535C61.4272 40.9875 59.8898 41.4646 57.1994 41.2737V45.9507C64.5501 46.4278 66.6161 43.4213 67.8652 37.4079L73.5344 12.4956H73.5343ZM88.0292 12.4956H80.2461V45.9032H85.5311V33.3514H88.0292C93.3142 33.3514 95.9086 30.4403 95.9086 25.0951V20.752C95.9086 15.4069 93.3142 12.4957 88.0292 12.4957V12.4956ZM88.0292 17.268C89.7108 17.268 90.6238 18.0315 90.6238 20.4177V25.4289C90.6238 27.8152 89.711 28.5787 88.0292 28.5787H85.5311V17.2679H88.0292V17.268ZM114.583 12.4956H106.848L101.467 45.9032H106.32L107.232 39.842H113.718L114.631 45.9032H119.964L114.583 12.4956H114.583ZM110.452 18.4135L112.998 35.3082H107.905L110.452 18.4135H110.452ZM125.427 45.9508H126.244C131.529 45.9508 133.739 43.5645 133.931 37.4558L134.508 17.2681H139.12V45.9032H144.501V12.4956H129.559L128.694 37.742C128.598 40.8441 127.829 41.1783 125.427 41.1783V45.9507V45.9508ZM152.798 31.5856H162.407V26.8132H152.798V31.5856ZM182.571 45.9032H188L180.649 27.3856L188 12.4956H182.715L175.797 27.0516V12.4956H170.512V45.9032H175.797V35.6423L177.43 32.5879L182.571 45.9033V45.9032Z" fill="black"/>
<path d="M54.605 1.39485H58.3845V2.07603H55.3805V7.20071H54.605V1.39485ZM62.8283 7.20071V1.39485H65.0349C65.4229 1.39485 65.7193 1.41385 65.925 1.45028C66.2118 1.49749 66.4529 1.58808 66.6474 1.72063C66.8418 1.85445 66.9983 2.04087 67.1166 2.28003C67.2351 2.51947 67.2936 2.78287 67.2936 3.0708C67.2936 3.56273 67.1358 3.98022 66.8188 4.32074C66.5031 4.66282 65.9304 4.83294 65.1031 4.83294H63.6039V7.20085H62.8284L62.8283 7.20071ZM63.6038 4.1519H65.1139C65.6146 4.1519 65.9684 4.06004 66.1792 3.87475C66.3887 3.68961 66.4934 3.43003 66.4934 3.09362C66.4934 2.85177 66.4323 2.64352 66.3083 2.47057C66.1846 2.29747 66.0213 2.18264 65.8199 2.12735C65.6894 2.09347 65.4486 2.07589 65.0988 2.07589H63.6036V4.15176L63.6038 4.1519ZM71.034 1.39499H71.8123L73.7265 4.96422L75.3903 1.39499H76.1524L73.9632 5.91163C73.6897 6.47657 73.4652 6.84672 73.2897 7.02109C73.1143 7.19546 72.8638 7.28194 72.5373 7.28194C72.3386 7.28194 72.095 7.23601 71.8052 7.144V6.4872C72.012 6.60614 72.2312 6.66568 72.4624 6.66568C72.6502 6.66568 72.812 6.60487 72.9496 6.48451C73.0856 6.36429 73.2365 6.08983 73.4012 5.66142L71.034 1.39485V1.39499ZM80.6384 1.39499H85.2258V7.20085H84.4503V2.07617H81.4138V7.20085H80.6383V1.39499H80.6384ZM90.3244 1.39499H94.9117V7.20085H94.1361V2.07617H91.0996V7.20085H90.3242V1.39499H90.3244ZM99.3611 7.20085L101.603 1.39499H102.454L104.833 7.20085H103.953L103.277 5.4414H100.816L100.181 7.20085H99.3609H99.3611ZM101.043 4.81678H103.035L102.425 3.20718C102.241 2.71795 102.102 2.31377 102.006 1.99508C101.926 2.37346 101.818 2.74516 101.683 3.11262L101.043 4.81678H101.043ZM116.086 1.39499H116.862V3.94124C117.214 3.94124 117.463 3.8722 117.606 3.73582C117.75 3.59916 117.932 3.27211 118.156 2.75339C118.318 2.37076 118.451 2.10183 118.557 1.94504C118.662 1.78697 118.811 1.65456 119.006 1.54767C119.199 1.44092 119.414 1.38691 119.648 1.38691C119.946 1.38691 120.103 1.38961 120.119 1.39499V2.06001C120.092 2.06001 120.04 2.0586 119.964 2.0559C119.878 2.05321 119.826 2.05193 119.807 2.05193C119.561 2.05193 119.377 2.11119 119.258 2.23027C119.135 2.34921 118.997 2.60326 118.839 2.99113C118.643 3.48319 118.477 3.79394 118.341 3.92224C118.206 4.04941 118.043 4.15204 117.855 4.22902C118.232 4.33166 118.605 4.67913 118.972 5.2683L120.176 7.20085H119.215L118.234 5.62768C117.966 5.19118 117.742 4.89121 117.562 4.72889C117.381 4.56543 117.149 4.48434 116.862 4.48434V7.20085H116.086V1.39499ZM124.029 4.3749C124.029 3.41274 124.291 2.65855 124.812 2.11374C125.333 1.56922 126.005 1.29746 126.829 1.29746C127.369 1.29746 127.855 1.42604 128.289 1.68136C128.722 1.93682 129.052 2.29364 129.279 2.75169C129.507 3.20845 129.621 3.72746 129.621 4.30714C129.621 4.89504 129.501 5.42198 129.262 5.88569C129.022 6.35068 128.683 6.70198 128.245 6.93972C127.806 7.17902 127.333 7.29782 126.825 7.29782C126.274 7.29782 125.783 7.16527 125.349 6.90187C124.916 6.63832 124.587 6.27881 124.364 5.82204C124.141 5.36669 124.029 4.88426 124.029 4.37476L124.029 4.3749ZM124.829 4.38837C124.829 5.08713 125.018 5.63704 125.397 6.03851C125.775 6.43985 126.25 6.6413 126.821 6.6413C127.403 6.6413 127.881 6.43858 128.258 6.03299C128.633 5.62754 128.821 5.05211 128.821 4.30586C128.821 3.83435 128.741 3.42195 128.58 3.0708C128.42 2.71951 128.184 2.44632 127.876 2.2531C127.565 2.05987 127.218 1.96248 126.833 1.96248C126.286 1.96248 125.816 2.14904 125.421 2.52217C125.027 2.89501 124.829 3.51665 124.829 4.38837ZM134.419 7.20071V1.39485H135.578L136.96 5.50463C137.088 5.88711 137.18 6.17376 137.239 6.36429C137.306 6.15349 137.41 5.84245 137.552 5.43303L138.959 1.39499H139.994V7.20085H139.251V2.34383L137.545 7.20085H136.848L135.161 2.25466V7.20085H134.418L134.419 7.20071ZM145.063 1.39485H149.65V7.20071H148.874V2.07603H145.838V7.20071H145.062V1.39485H145.063ZM154.099 7.20071L156.341 1.39485H157.192L159.571 7.20071H158.691L158.015 5.44126H155.554L154.92 7.20071H154.099H154.099ZM155.781 4.81664H157.773L157.163 3.20704C156.979 2.7178 156.841 2.31363 156.744 1.99494C156.664 2.37331 156.556 2.74502 156.422 3.11248L155.781 4.81664H155.781ZM164.037 7.20071V1.39485H164.812V3.787H167.833V1.39485H168.608V7.20071H167.833V4.46818H164.812V7.20071H164.037ZM173.735 1.39485H174.437V5.99244L177.548 1.39485H178.315V7.20071H177.613V2.61545L174.509 7.20071H173.735V1.39485ZM183.421 1.39485H184.123V5.99244L187.234 1.39485H188V7.20071H187.298V2.61545L184.195 7.20071H183.421V1.39485ZM186.335 0.000305176H186.825C186.785 0.334021 186.663 0.590758 186.459 0.76924C186.255 0.948998 185.984 1.03817 185.645 1.03817C185.305 1.03817 185.033 0.948999 184.83 0.771934C184.627 0.593451 184.505 0.336714 184.465 0.000305176H184.955C184.992 0.182615 185.067 0.319135 185.177 0.408447C185.287 0.499035 185.437 0.54355 185.623 0.54355C185.84 0.54355 186.003 0.50017 186.113 0.412417C186.224 0.32594 186.298 0.188002 186.335 0.000305176Z" fill="black"/>
<path fill-rule="evenodd" clip-rule="evenodd" d="M0.000488281 0.00012207L11.3476 11.2722L0.000488281 22.1057V0.00012207Z" fill="#4D4D4D"/>
<path fill-rule="evenodd" clip-rule="evenodd" d="M0.000488281 0.00012207H23.1543L11.3476 11.2722L0.000488281 0.00012207Z" fill="#999999"/>
<path fill-rule="evenodd" clip-rule="evenodd" d="M23.1543 0.00012207H46.3078L34.7309 11.5003L23.1543 0.00012207Z" fill="#999999"/>
<path fill-rule="evenodd" clip-rule="evenodd" d="M34.731 11.5003L46.3078 0.00012207V23.0001L34.731 11.5003Z" fill="#4D4D4D"/>
<path fill-rule="evenodd" clip-rule="evenodd" d="M0.000488281 46L11.7982 34.2808L23.1543 46H0.000488281Z" fill="black"/>
<path fill-rule="evenodd" clip-rule="evenodd" d="M0.000488281 46V22.1058L11.7982 34.2809L0.000488281 46Z" fill="#4D4D4D"/>
<path fill-rule="evenodd" clip-rule="evenodd" d="M34.731 34.5003L46.3078 23.0001V46L34.731 34.5003Z" fill="#4D4D4D"/>
<path fill-rule="evenodd" clip-rule="evenodd" d="M23.1543 46L34.7309 34.5003L46.3078 46H23.1543Z" fill="black"/>
<path fill-rule="evenodd" clip-rule="evenodd" d="M11.3477 11.2719L23.154 0L34.7309 11.5L23.154 22.9999L11.3477 11.2719Z" fill="#FF7070"/>
<path fill-rule="evenodd" clip-rule="evenodd" d="M0.000488281 22.1055L11.7981 34.2804L23.1541 22.9999L11.3477 11.2719L0.000488281 22.1055Z" fill="#FF3B3B"/>
<path fill-rule="evenodd" clip-rule="evenodd" d="M23.1543 22.9999L34.7312 11.5L46.3081 22.9999L34.7312 34.5L23.1543 22.9999Z" fill="#FF3B3B"/>
<path fill-rule="evenodd" clip-rule="evenodd" d="M11.7983 34.2804L23.1543 22.9999L34.7312 34.5L23.1543 45.9999L11.7983 34.2804Z" fill="#C20A0A"/>
</g>
<defs>
<clipPath id="clip0_73_38">
<rect width="188" height="46" fill="white"/>
</clipPath>
</defs>
</svg>
