<?xml version="1.0" encoding="UTF-8" ?>
<!DOCTYPE svg PUBLIC "-//W3C//DTD SVG 1.1//EN" "http://www.w3.org/Graphics/SVG/1.1/DTD/svg11.dtd">
<svg width="67pt" height="174pt" viewBox="0 0 67 174" version="1.1" xmlns="http://www.w3.org/2000/svg">
<g id="#ffffffff">
</g>
<g id="#727270ff">
<path fill="#727270" opacity="1.00" d=" M 58.66 0.00 L 65.94 0.00 L 66.99 0.52 C 50.24 25.12 34.28 50.22 17.64 74.89 C 15.17 79.02 11.94 82.70 9.88 87.07 C 10.43 89.73 12.71 91.70 14.04 94.02 C 31.62 120.65 49.58 147.04 66.99 173.77 C 64.03 173.93 61.06 174.00 58.11 173.61 C 56.65 170.60 54.60 167.94 52.81 165.14 C 35.92 139.97 19.20 114.69 2.34 89.51 C 1.57 88.52 0.80 87.54 0.00 86.57 L 0.00 85.97 L 0.49 87.13 C 6.77 77.01 13.57 67.24 20.36 57.47 C 33.08 38.28 45.91 19.16 58.66 0.00 Z" />
</g>
</svg>
