<svg fill="none" height="30" viewBox="0 0 37 30" width="37" xmlns="http://www.w3.org/2000/svg">
	<g fill="#c20a0a">
		<path d="m .57071.0280037c-.0056.0149327-.026133.027998-.046665.027998-.050398 0-.244523.1101293-.309854.1773263-.065331.06533-.1773259.259456-.1773259.307987 0 .018666-.0074663.041066-.0186659.046665-.02426562.014933-.02426562.358385 0 .373318.0111996.0056.0186659.026133.0186659.046662 0 .09707.1885259.33972.3266529.42185.162393.09333.08773.09146 2.155912.10266 1.07329.0056 1.98045.0168 2.01591.02427.1456.028.22026.05227.36399.11386.30052.1288.54131.30986.7541.56558.1232.14933.25572.37145.28372.47971.01494.05413.03547.13066.0728.26132.0112.03547.028.09707.0392.1344.02426.08959.05226.18479.07466.26132.00933.0336.02613.09146.03547.12693.0112.03546.028.09519.03733.13066.0112.03547.02613.09333.03546.12506.00934.0336.0448.14933.07653.25759.03174.10826.0672.22399.07653.25572.00934.0336.02427.0896.0336.12133.00934.0336.0448.14933.07653.25759s.0672.22399.07653.25572c.00934.0336.02427.0896.0336.12133.00933.0336.0448.14933.07653.25759s.0672.22586.07653.26132c.03173.11387.0504.17173.11013.37332.03173.10827.06533.22026.07466.25199.00934.02987.0336.11386.056.18666.0224.07093.04853.16053.05787.19599.03173.11386.05039.17173.11012.37332.03174.10826.0672.22586.07653.26132.03174.11386.0504.17173.11013.37332.03174.10826.0672.22399.07653.25572.00934.0336.02427.0896.0336.12133.00934.0336.0448.14933.07653.25759s.06533.22026.07467.25199c.00933.02987.03359.11386.05599.18666.0224.07093.04853.16053.05787.19599.03173.11386.0504.17173.11013.37332.03173.10826.06719.22399.07653.25572.00933.0336.02426.0896.0336.12133.00933.0336.04479.14933.07653.25759.03173.10826.06719.22397.07653.25577.00933.0335.02426.0895.03359.1213.00934.0336.0448.1493.07653.2576.03174.1082.0672.2258.07653.2613.03174.1139.0504.1717.11013.3733.03174.1083.0672.224.07653.2557.00934.0336.02427.0896.0336.1214.00933.0336.05227.1792.0952.3229s.08586.2912.09519.3266c.03174.1139.0504.1718.11013.3734.03173.1082.0672.2239.07653.2557.00934.0336.02614.0914.03547.1269.0112.0355.028.0952.03733.1307.0112.0354.02613.0933.03547.125.00933.0336.05226.1792.09519.3229.04293.1438.08586.2894.0952.3211.00933.0336.02613.0915.03546.1269.0112.0355.028.0971.0392.1344.03547.1269.0504.1792.1288.4443.04293.1437.08586.2912.09519.3266.0112.0355.02613.0934.03733.1251.0224.0784.04853.1736.07467.2613.00933.0392.02613.0952.03546.1269.00933.0299.02427.0859.03547.1214.00933.0354.02613.0952.03733.1306.00933.0355.02613.0952.03733.1307.00933.0354.02613.0952.03733.1306.00934.0355.028.0971.03733.1344.0112.0392.02987.1027.04107.14.00933.0392.02613.099.03733.1307.00933.0336.02613.0915.03547.1269.0112.0355.02799.0952.03733.1307.0112.0355.028.097.03918.1344.0093.0392.0261.0989.0373.1306.0094.0336.0262.0934.0374.1307.0093.0392.0261.0952.0354.1269.028.0971.0579.2035.0747.2707.0093.0355.0261.0989.0373.14.0112.041.028.1045.0374.14.0093.0354.0336.1325.056.2146.0224.0822.0485.183.056.224.0093.0411.0242.1083.0354.1493.0168.0691.0262.1046.0766.28.0112.0355.0261.0934.0354.1251.0952.3453.3136.8698.5283 1.2711.5021.9333 1.2469 1.6501 2.0775 2.001.0411.0168.0914.0392.112.0486.0205.0074.097.0336.168.056.0728.0224.1474.0466.168.056.056.0205.2464.0597.4759.097.1064.0168 1.9488.0224 7.5691.0224h7.429l.1269-.0597c.3752-.1792.5432-.6328.3677-1.0042-.0914-.1942-.2389-.3342-.4274-.4088-.0765-.0299-.5264-.0318-7.2984-.0318-6.1952.0019-7.2498-.0018-7.4495-.0261-.2632-.0299-.4144-.0616-.5227-.1064-.0261-.0112-.0634-.0261-.084-.0336-.265-.1026-.5394-.2856-.7746-.5226-.1381-.14-.392-.448-.392-.4779 0-.0056-.0243-.0448-.0541-.0877-.1102-.1605-.2912-.5133-.3771-.7373-.0093-.0224-.0242-.0597-.0336-.084-.0093-.0224-.028-.0747-.041-.1157-.0131-.0411-.0318-.0859-.043-.099-.0093-.013-.0112-.028-.0056-.0354.0075-.0056 3.6996-.0094 8.2056-.0075 8.1588.0037 8.5359.0019 8.9801-.0579.7429-.0989 1.232-.3546 1.6183-.8511.267-.3397.7112-1.1312 1.0453-1.861.043-.0933.112-.2408.1531-.3323.1979-.4218.2259-.4834.2259-.489 0-.0037.0317-.0765.0727-.1624.0392-.084.1494-.3267.2446-.5376s.2128-.4704.2613-.5786c.1139-.2483.4386-.9781.9781-2.1933.2333-.5245.448-1.0042.4797-1.0695.0299-.0653.0541-.1213.0541-.1269 0-.0038.0336-.08031.0747-.16804s.0747-.16426.0747-.16799c0-.00747.9967-2.25111 1.0994-2.47697.0317-.06906.0578-.12879.0578-.13252 0-.00374.0336-.08213.0766-.1736.0746-.16426.0896-.19785.1661-.36958.0392-.09146.0784-.17733.1736-.38265.0794-.17479.1627-.35731.2165-.54131.0243-.07653.0504-.1568.0579-.17733.0629-.16882.0956-.33789.1306-.51331.0504-.25199.0635-.40505.0635-.71864 0-.18479-.0093-.38265-.0205-.43864-.0467-.21653-.0598-.26693-.1008-.36959-.0093-.0224-.0243-.0616-.0355-.08773-.0429-.10826-.069-.15493-.1381-.26132-.1755-.26506-.3715-.26319-.6477-.40505-.2352-.11946-.3696-.11573-.7336-.17919-.2594.22399-23.8494-.028-23.9315-.00374-.2221.06533-.3696-.0224-.4704.18293-.0635.12506-.0709.16052-.0784.30798-.0037.13627.0019.18666.0355.27999.0522.14.125.25013.224.33412.0672.05973.1194.08773.2893.16613.0466.0224 1.8983.02613 11.9499.02987l11.8957.00373.0859.04293c.1381.06906.1867.19972.168.46478-.0131.22586-.0355.35092-.1008.59544-.0261.09706-.1139.35652-.1437.41998-.0597.13627-.1251.27999-.1848.40505-.0336.07467-.084.18293-.1101.23893-.0243.05599-.0728.16052-.1064.23332-.0336.07093-.1083.23892-.168.37332-.0598.13253-.1307.29305-.1587.35465s-.0616.13626-.0746.16799c-.015.02987-.0598.13066-.1008.22026-.043.09146-.0766.16986-.0766.17359 0 .0056-.0336.08027-.0746.168-.0411.08773-.0747.16426-.0747.16799s-.0205.0504-.0448.10453-.0635.13999-.0859.19226c-.0224.0504-.0522.11759-.0653.14933-.0149.02986-.2445.55064-.5133 1.15728-.2688.60482-.5115 1.15352-.5432 1.21892-.0299.0653-.0541.1213-.0541.1269 0 .0037-.0336.0803-.0747.168-.041.0877-.0746.1642-.0746.168 0 .0056-.0336.0802-.0747.168-.0411.0877-.0747.1642-.0747.168 0 .0037-.0261.0634-.0578.1325-.0318.0709-.1568.349-.2782.6216-.2426.545-.2911.6533-.3845.8549-.0354.0765-.0634.14-.0634.1437s-.0374.084-.0822.181c-.0448.0952-.1082.2371-.1418.3136-.0523.1176-.2259.5021-.4349.952-.3622.7877-.6272 1.2879-.9035 1.7023-.1642.2483-.3173.3379-.6887.4051-.0803.0149-2.589.0205-8.7543.0205h-8.6405l-.0224-.0504c-.0112-.0299-.0261-.0784-.0317-.1083-.0168-.0709-.0411-.1661-.0672-.2613-.0112-.041-.028-.1045-.0373-.14-.0094-.0354-.0262-.0989-.0374-.14-.0112-.041-.028-.1045-.0373-.14-.0093-.0354-.0261-.0989-.0373-.14-.0112-.041-.028-.1045-.0374-.1399-.0093-.0355-.0261-.099-.0373-.14-.0112-.0411-.028-.1046-.0373-.14-.0075-.0355-.028-.1139-.0448-.1736-.0262-.0952-.0616-.2221-.1046-.3771-.0093-.0317-.028-.1026-.0429-.1586-.0168-.056-.0429-.1531-.0597-.2147-.0411-.1475-.056-.2016-.0915-.3304-.0168-.0597-.0429-.1549-.0579-.2109-.0149-.056-.041-.1493-.056-.2053-.0149-.056-.041-.1512-.0578-.211-.0168-.0578-.0355-.1325-.0448-.1623-.0093-.0318-.028-.1046-.0448-.1643-.0168-.0579-.0429-.1549-.0597-.2147-.0168-.0578-.0374-.1344-.0467-.168-.0093-.0317-.0243-.0877-.0336-.1213-.0093-.0317-.0317-.1101-.0485-.1717s-.0467-.1717-.0672-.2427c-.0206-.0728-.0448-.1642-.056-.2053s-.028-.0952-.0355-.1213c-.0149-.0467-.0261-.0878-.0933-.336-.0672-.2483-.0784-.2893-.0934-.336-.0074-.0261-.0242-.0803-.0354-.1213-.0112-.0411-.0448-.168-.0766-.28-.06341-.2296-.09141-.3285-.11381-.4107-.00934-.0317-.0504-.1773-.09147-.3266-.07839-.28374-.10639-.38267-.13252-.47599-.00934-.03174-.04293-.14933-.0728-.26133-.08586-.31545-.09706-.35092-.112-.40131-.01493-.04667-.02613-.08773-.09332-.33599-.0672-.24826-.0784-.28932-.09333-.33599-.00747-.02613-.02427-.08026-.03547-.12132-.0112-.04107-.05413-.196-.0952-.34532-.04106-.14933-.08399-.30426-.09519-.34532-.0112-.04107-.028-.0952-.03547-.12133-.00746-.02613-.02426-.08026-.03546-.12133-.0112-.04106-.05413-.19599-.0952-.34532-.04106-.14932-.08399-.30425-.09519-.34532-.0112-.04106-.028-.09519-.03547-.12133-.00747-.02613-.02426-.08026-.0336-.12132-.0112-.04107-.03733-.1344-.05786-.20533-.02053-.07279-.056-.19412-.07653-.27065-.0728-.26879-.0784-.28933-.09333-.33599-.00747-.02613-.02427-.08026-.0336-.12133-.0112-.04106-.03733-.13439-.05787-.20532-.02053-.0728-.05599-.19413-.07652-.27066-.0728-.26879-.0784-.28932-.09333-.33598-.00747-.02614-.02427-.084-.03734-.13067-.01306-.04666-.02986-.10452-.03733-.13066-.00746-.02613-.02426-.08026-.03546-.12133-.0112-.04106-.03547-.13439-.056-.20532-.02053-.0728-.0504-.18106-.0672-.24266-.0448-.15866-.06533-.23519-.08399-.29865-.00934-.03173-.02427-.08586-.03547-.12133-.00933-.03547-.03546-.12879-.05786-.20532-.02054-.07653-.056-.20346-.07653-.27999-.0392-.14373-.0616-.22586-.09333-.33225-.01867-.06533-.03174-.11387-.0896-.32106-.0224-.07653-.056-.20346-.0784-.27999-.06159-.21839-.06719-.24452-.10266-.37332-.09893-.37891-.39012-.782094-.72237-1.004218-.14559-.097063-.44051-.24639-.48531-.24639-.0168 0-.03547-.009334-.04107-.018667-.0056-.011199-.03546-.018667-.06533-.018667-.02986 0-.05973-.00933-.06533-.018663-.0056-.0112-.03546-.018668-.06346-.018668s-.05787-.007465-.06907-.016798c-.00933-.009333-.05413-.0224-.10079-.028-.04667-.007466-.13813-.020534-.20533-.0298667-.06719-.0111995-.22212-.0261297-.34345-.033596-.14186-.0111996-.22586-.0242665-.23146-.0373326-.0056-.01679928-.55064-.02239989-2.21564-.02239989-1.944982 0-2.210037.00373422-2.21937.02799989z" />
		<path d="m7 2.5h4.5 1 22.5l1 2-6 13h-18.5z" />
		<path d="m13.7753 22.9217c-.0262.0075-.0784.015-.1158.0168-.0802.0019-.2426.0374-.4536.0971-.9762.28-1.7713.9482-2.2212 1.8666-.1605.3322-.2501.6234-.3285 1.0695-.0299.1774-.0299.7653 0 .9632.1288.8269.461 1.4914 1.0266 2.0533.3435.3415.7448.6029 1.2152.7877.0261.0112.0616.0261.0784.0354.0186.0094.0504.0168.069.0168.0206 0 .043.0075.0486.0187.0056.0093.0354.0187.0653.0187.0298 0 .0578.0074.0634.0168.0056.0093.0374.0205.071.0261s.1045.0205.1549.0317c.2128.0467.3939.0616.7466.0597.4051 0 .5973-.0205.9053-.097.0467-.0112.1064-.0261.1363-.0317.028-.0056.056-.0168.0616-.0262.0056-.0093.0261-.0168.0467-.0168.0186 0 .0504-.0074.069-.0168.0299-.0149.0747-.0336.1773-.0746.4462-.1774.9371-.5302 1.2824-.9203.4386-.4965.7261-1.0957.8437-1.7695.0299-.1587.0299-1.0173 0-1.1759-.1437-.8157-.5357-1.5251-1.133-2.057-.1792-.1587-.4088-.3285-.588-.4331-.1605-.0933-.5096-.2538-.5506-.2538-.0131 0-.0318-.0094-.0374-.0187-.0056-.0112-.0317-.0187-.056-.0187-.0242 0-.0485-.0074-.0541-.0168-.0056-.0093-.0336-.0205-.0616-.0261-.0299-.0056-.0896-.0205-.1363-.0317-.14-.0355-.2464-.0579-.3639-.0766-.1419-.0242-.8997-.0373-.9613-.0168zm.797 1.4765c.1755.0411.2389.0579.2706.0747.0187.0093.0411.0168.0523.0168s.0915.0336.1792.0746c.5544.2595.993.7859 1.1424 1.372.0522.2072.0597.2725.0597.5226 0 .2502-.0075.3155-.0597.5227-.1606.629-.6477 1.1834-1.2563 1.4298-.069.028-.2613.0858-.3639.1101-.1344.0336-.6664.0355-.7933.0019-.2166-.0542-.2446-.0616-.2744-.0784-.0187-.0094-.0411-.0168-.0523-.0168-.0205 0-.2464-.1064-.3472-.1643-.3042-.1736-.6776-.5786-.8157-.8866-.0821-.1792-.1064-.2483-.14-.3771-.0112-.041-.0298-.112-.041-.1586-.0299-.112-.0299-.6403 0-.7672.028-.1195.0877-.3285.1101-.3808.1642-.3938.4685-.7634.8082-.9855.0896-.0579.1661-.1064.1717-.1064s.0616-.0243.127-.0542c.153-.069.2389-.097.4536-.1493.1064-.0243.6626-.0243.769 0z" />
		<path d="m28.2949 22.9124c-.0075.0056-.0709.0187-.14.028-.1213.015-.1848.028-.3715.071-.0746.0168-.3397.1026-.4106.1325-.1325.056-.4611.2221-.5264.2669-.0429.028-.084.0523-.0914.0523-.0318 0-.3864.2837-.547.4386-.489.4723-.7802.9763-.9911 1.7173-.0075.0299-.0243.1139-.0355.1867-.013.0709-.0298.1773-.0392.2351-.0242.1344-.0242.7019 0 .8363.0094.0578.0262.1624.0392.2352.0243.1568.0299.1754.1288.4834.0933.2875.2856.6757.4629.9258.1438.2054.5637.6347.7691.7877.3248.2408.7578.4574 1.1199.5582.3883.1101.5675.1325 1.0266.1325.3603 0 .5022-.0112.7467-.0598.056-.0112.1306-.0242.1642-.0317.0336-.0056.0654-.0168.071-.0261.0056-.0094.0298-.0168.0541-.0168s.0504-.0093.056-.0187c.0056-.0112.0317-.0186.056-.0186s.0504-.0075.056-.0187c.0056-.0093.028-.0187.0485-.0187.0187 0 .0504-.0074.0691-.0168.0168-.0112.1194-.0597.2277-.1101.3901-.1848.6626-.3808.9986-.7205.4741-.476.7933-1.0621.9408-1.7285.0597-.2744.0672-.3472.0672-.7559 0-.4088-.0075-.4816-.0672-.756-.2053-.924-.7933-1.7677-1.5661-2.2474-.2669-.1661-.5581-.308-.7522-.3696-.2072-.0634-.4779-.1288-.657-.1568-.1064-.0149-.8941-.0317-.9072-.0168zm.7746 1.4858c.0411.0112.1102.028.1512.0392.2259.0579.3789.1288.6067.2744.3602.2315.6663.6104.8157 1.0099.0373.0989.0485.14.1026.3453.0318.1269.0318.6831-.0018.7933-.0131.0466-.0318.1176-.043.1586-.1549.5973-.6589 1.1629-1.2375 1.385-.1438.0542-.1829.0672-.392.1195-.1232.0317-.6664.0336-.7709.0019-.0429-.0131-.1139-.0318-.1568-.043-.1381-.0373-.1867-.056-.3789-.1493-.4461-.2165-.8045-.5954-.9968-1.0527-.0877-.2091-.0914-.2166-.1045-.28-.0056-.0318-.0205-.1027-.0336-.1587-.028-.1363-.028-.6365 0-.7653.0131-.056.028-.1288.0336-.1587.0075-.0317.0187-.0727.028-.0933.0075-.0205.0336-.0877.0579-.1493.1269-.3341.3863-.6626.713-.9072.14-.1045.4666-.2781.5245-.2781.0149 0 .0336-.0093.0392-.0187.0056-.0112.0299-.0186.0504-.0186.0224 0 .0653-.0075.0971-.0168.0317-.0112.0877-.0262.1232-.0355.0914-.0261.6794-.0261.7727-.0019z" />
		<ellipse cx="14" cy="26.5" rx="3" ry="2.5" />
		<ellipse cx="29" cy="26.5" rx="3" ry="2.5" />
	</g>
</svg>
