<svg width="25" height="25" viewBox="0 0 25 25" fill="none" xmlns="http://www.w3.org/2000/svg">
<path d="M10.2798 23.28L11.6398 24.37L12.1698 24.76L12.4998 25L12.8298 24.76L13.3498 24.37C13.7598 24.05 14.2198 23.69 14.7098 23.28C16.1585 22.0868 17.5375 20.8114 18.8398 19.46C21.7698 16.4 23.8398 13.37 24.5998 10.46C24.8098 9.68037 24.9207 8.87738 24.9298 8.07001C24.9298 0.400013 17.9298 -2.87999 12.4898 2.90001C7.07982 -2.83999 0.0698242 0.640013 0.0698242 8.11001C0.0740832 8.91774 0.185043 9.72136 0.399824 10.5C1.16982 13.37 3.21982 16.4 6.15982 19.5C7.45998 20.8375 8.83556 22.0996 10.2798 23.28ZM1.19982 8.11001C1.19982 1.43001 7.32982 -1.43999 12.0698 4.16001L12.4998 4.67001L12.9298 4.16001C17.6598 -1.43999 23.7998 1.43001 23.7998 8.11001C23.7948 8.81704 23.6938 9.52011 23.4998 10.2C22.7898 12.86 20.8398 15.75 18.0198 18.68C16.7628 20.0028 15.4271 21.2484 14.0198 22.41L12.4998 23.64L10.9998 22.41C9.59722 21.2431 8.26176 19.9978 6.99982 18.68C4.15982 15.75 2.19982 12.86 1.48982 10.2C1.30366 9.51872 1.20619 8.81625 1.19982 8.11001Z" fill="#4D4D4E" stroke="#4D4D4E" stroke-width="0.25" stroke-linecap="round" stroke-linejoin="round"/>
</svg>
