<?xml version="1.0" encoding="UTF-8" ?>
<!DOCTYPE svg PUBLIC "-//W3C//DTD SVG 1.1//EN" "http://www.w3.org/Graphics/SVG/1.1/DTD/svg11.dtd">
<svg width="472pt" height="750pt" viewBox="0 0 472 750" version="1.1" xmlns="http://www.w3.org/2000/svg">
<g id="#e5e5e5ff">
</g>
<g id="#4d4d4eff">
<path fill="#4d4d4e" opacity="1.00" d=" M 159.69 13.68 C 184.17 5.08 210.09 1.20 235.97 0.63 C 260.26 1.12 284.61 4.57 307.76 12.12 C 343.92 23.62 377.22 44.06 403.79 71.16 C 443.32 110.84 467.71 165.16 471.24 221.03 C 470.77 231.35 470.96 241.70 471.23 252.01 C 466.78 292.17 453.99 330.82 439.65 368.41 C 410.73 442.46 374.18 513.25 335.73 582.75 C 316.77 616.88 297.13 650.64 277.09 684.15 C 263.69 706.11 250.43 728.19 236.00 749.47 C 216.02 719.30 197.48 688.18 178.98 657.08 C 139.98 590.93 102.83 523.63 69.75 454.31 C 53.52 420.00 38.27 385.19 25.44 349.46 C 14.00 317.22 4.04 284.09 0.82 249.90 C 0.94 240.63 1.35 231.33 0.64 222.07 C 2.51 198.21 7.35 174.50 16.09 152.17 C 27.43 122.40 45.04 95.07 67.24 72.24 C 92.91 45.84 124.85 25.58 159.69 13.68 M 176.92 41.21 C 144.14 51.17 113.88 69.42 89.99 94.00 C 63.90 120.64 45.37 154.58 37.08 190.93 C 31.41 215.79 30.05 241.82 34.88 266.94 C 42.52 308.47 57.87 348.09 74.08 386.92 C 85.14 412.75 96.91 438.28 109.47 463.41 C 145.84 537.12 186.56 608.61 229.14 678.88 C 231.63 682.66 233.57 686.81 236.52 690.26 C 287.66 606.15 336.22 520.31 378.20 431.23 C 395.17 394.73 411.06 357.65 423.61 319.37 C 431.19 295.49 437.92 271.08 439.78 246.00 C 442.91 189.74 420.80 132.78 380.99 92.98 C 355.50 67.12 322.93 48.30 287.78 39.18 C 251.58 29.57 212.76 30.38 176.92 41.21 Z" />
<path fill="#4d4d4e" opacity="1.00" d=" M 220.52 89.71 C 248.71 86.69 277.73 92.07 302.96 105.01 C 331.65 119.51 355.34 143.71 369.15 172.75 C 381.16 197.50 385.94 225.70 382.86 253.04 C 379.78 281.22 368.30 308.42 350.29 330.31 C 334.89 349.11 314.81 364.05 292.32 373.27 C 263.30 385.31 230.40 387.68 199.95 379.95 C 169.19 372.32 141.17 354.36 121.26 329.73 C 102.41 306.62 90.91 277.66 88.69 247.93 C 86.21 216.59 94.13 184.54 110.94 157.98 C 134.48 120.04 176.10 94.13 220.52 89.71 M 219.41 121.64 C 184.72 126.46 152.88 148.00 135.51 178.40 C 122.31 201.04 117.17 228.24 121.22 254.13 C 125.23 281.10 139.21 306.43 159.83 324.26 C 178.69 340.70 203.01 350.81 227.99 352.45 C 253.55 354.30 279.62 347.24 300.84 332.88 C 322.95 318.08 339.66 295.44 347.21 269.93 C 354.77 245.20 353.59 217.92 344.01 193.91 C 334.52 169.71 316.59 148.94 294.04 136.01 C 271.70 123.05 244.98 117.88 219.41 121.64 Z" />
</g>
</svg>
