<?xml version="1.0" encoding="UTF-8" ?>
<!DOCTYPE svg PUBLIC "-//W3C//DTD SVG 1.1//EN" "http://www.w3.org/Graphics/SVG/1.1/DTD/svg11.dtd">
<svg width="402pt" height="402pt" viewBox="0 0 402 402" version="1.1" xmlns="http://www.w3.org/2000/svg">
<g id="#e5e5e5ff">
</g>
<g id="#4d4d4eff">
<path fill="#4d4d4e" opacity="1.00" d=" M 132.99 1.96 C 163.85 -2.79 196.11 2.14 224.15 15.88 C 252.65 29.62 276.71 52.36 292.03 80.05 C 307.63 107.77 314.26 140.42 310.88 172.04 C 307.53 205.01 293.18 236.70 270.76 261.09 C 272.42 262.08 274.12 263.08 275.51 264.47 C 316.81 305.86 358.21 347.16 399.52 388.53 C 400.64 389.69 401.35 391.15 402.00 392.61 L 402.00 395.70 C 401.01 398.86 398.42 401.69 394.91 401.76 C 390.64 402.24 387.97 398.35 385.24 395.77 C 344.92 355.41 304.58 315.07 264.23 274.75 C 263.07 273.54 262.21 272.08 261.33 270.67 C 248.12 282.72 232.97 292.72 216.46 299.63 C 189.70 311.05 159.68 314.61 130.99 309.90 C 100.18 304.86 70.89 290.35 48.52 268.53 C 30.87 251.73 17.32 230.67 9.29 207.67 C -0.06 181.20 -2.03 152.18 3.67 124.69 C 10.32 91.82 28.00 61.34 53.18 39.20 C 75.47 19.46 103.54 6.35 132.99 1.96 M 150.40 15.53 C 119.98 16.73 90.07 28.20 66.67 47.68 C 40.97 68.78 23.26 99.34 17.72 132.13 C 12.89 159.62 16.61 188.50 28.14 213.91 C 40.60 241.76 62.53 265.22 89.38 279.70 C 114.43 293.34 143.76 298.99 172.09 295.73 C 203.37 292.26 233.37 277.91 255.54 255.57 C 273.17 238.21 285.96 216.04 292.24 192.12 C 299.30 165.50 298.33 136.79 289.37 110.74 C 279.23 80.36 258.12 53.87 230.99 36.90 C 207.12 21.85 178.60 14.28 150.40 15.53 Z" />
<path fill="#4d4d4e" opacity="1.00" d=" M 64.84 81.96 C 86.80 54.52 121.52 38.13 156.63 38.22 C 156.62 43.30 156.62 48.39 156.63 53.47 C 130.29 53.49 104.05 63.87 85.19 82.30 C 65.20 101.35 53.50 128.83 53.75 156.46 C 48.69 156.53 43.63 156.50 38.56 156.48 C 38.33 129.60 47.86 102.78 64.84 81.96 Z" />
</g>
</svg>
