<svg height="131pt" viewBox="0 0 130 131" width="130pt" xmlns="http://www.w3.org/2000/svg"><g fill="#4d4d4d"><path d="m0 0h130v-.22c-1.13 2.23-.52 4.79-.64 7.18-.06 19.25.13 38.51-.09 57.76-11.21-10.08-21.49-21.27-32.28-31.85l-.2-.2c10.81-10.27 21.17-21.02 31.72-31.56-20.95-.16-41.92-.2-62.88.02-.33.01-1 .03-1.33.04-21.16-.31-42.34-.2-63.51-.05 10.31 10.44 20.54 21.04 31.26 31.04l-.21.16c-9.58 9.26-19.08 18.62-28.8 27.74-.91.88-2.05 1.43-3.04 2.2z"/><path d="m0 62.61c.15.01.46.04.61.05 10.42 11.52 21.62 22.31 32.17 33.71.23.25.7.74.93.98-.54.29-1.62.86-2.16 1.14-10.58 10.37-20.86 21.06-31.55 31.32z"/><path d="m96.95 97.28c11-10.37 21.13-21.65 32.29-31.84.29 19.53.02 39.07.14 58.61.02 1.66.03 3.35-.4 4.98-10.77-10.39-21.06-21.29-31.89-31.62z"/></g><path d="m .79 1.12c21.17-.15 42.35-.26 63.51.05-5.06 4.98-10.35 9.73-15.29 14.83-5.92 5.12-10.88 11.27-16.96 16.16-10.72-10-20.95-20.6-31.26-31.04z" fill="#999"/><path d="m65.63 1.13c20.96-.22 41.93-.18 62.88-.02-10.55 10.54-20.91 21.29-31.72 31.56-10.29-10.61-21.3-20.54-31.16-31.54z" fill="#999"/><path d="m64.3 1.17c.33-.01 1-.03 1.33-.04 9.86 11 20.87 20.93 31.16 31.54l.2.2c-10.98 10.26-21.14 21.38-32.05 31.7-3.72-2.37-6.32-6.04-9.54-9-8.04-7.56-15.35-15.89-23.56-23.25l.21-.16c6.08-4.89 11.04-11.04 16.96-16.16 4.94-5.1 10.23-9.85 15.29-14.83z" fill="#ff7070"/><path d="m129.36 6.96c.12-2.39-.49-4.95.64-7.18v131.22h-130v-1.19c10.69-10.26 20.97-20.95 31.55-31.32.54-.28 1.62-.85 2.16-1.14 9.42 9.93 19.31 19.41 28.34 29.7.93.91 2.1 2.57 3.6 1.7 10.45-10.48 20.78-21.06 31.44-31.34 10.83 10.33 21.12 21.23 31.89 31.62.43-1.63.42-3.32.4-4.98-.12-19.54.15-39.08-.14-58.61.01-.18.02-.54.03-.72.22-19.25.03-38.51.09-57.76z"/><path d="m3.04 60.06c9.72-9.12 19.22-18.48 28.8-27.74 8.21 7.36 15.52 15.69 23.56 23.25 3.22 2.96 5.82 6.63 9.54 9 10.91-10.32 21.07-21.44 32.05-31.7 10.79 10.58 21.07 21.77 32.28 31.85-.01.18-.02.54-.03.72-11.16 10.19-21.29 21.47-32.29 31.84-10.53-10.77-21.18-21.45-31.97-31.96-11.4 9.62-20.94 21.3-32.2 31.05-10.55-11.4-21.75-22.19-32.17-33.71-.15-.01-.46-.04-.61-.05v-.35c.99-.77 2.13-1.32 3.04-2.2z" fill="#ff3b3b"/><path d="m32.78 96.37c11.26-9.75 20.8-21.43 32.2-31.05 10.79 10.51 21.44 21.19 31.97 31.96l.14.13c-10.66 10.28-20.99 20.86-31.44 31.34-1.5.87-2.67-.79-3.6-1.7-9.03-10.29-18.92-19.77-28.34-29.7-.23-.24-.7-.73-.93-.98z" fill="#c20a0a"/></svg>