<svg height="37pt" viewBox="0 0 669 37" width="669pt" xmlns="http://www.w3.org/2000/svg"><g fill="#060606"><path d="m650.42 0h2.79c.37.72 1.12 2.17 1.49 2.9 2.58.26 4.77-.69 6.22-2.9h2.15c-.72 1.31-1.27 2.72-2.15 3.93-1.72 1.99-4.79 1.77-7.04.98-2.26-.59-2.58-3.12-3.46-4.91z"/><path d="m567.47 7.56c1.11-.34 2.22-.71 3.33-1.08.9 3.1.54 6.35.59 9.53.01 6.65-.07 13.3.05 19.95-1.33-.26-3.18.6-4.06-.75-.05-4.06 0-8.11.09-12.17-5.01-.41-10.05-.32-15.07-.06.07 4.41.15 8.83-.08 13.25-1.31-.16-2.62-.3-3.91-.44.12-9.44.02-18.89.05-28.33 1.34 0 2.68 0 4.03-.01-.05 3.94-.06 7.88.02 11.82 4.95.03 9.89.04 14.84-.01.06-3.9-.01-7.8.12-11.7z"/><path d="m42.35 7.45c5.61.18 11.3-.5 16.84.48 7.09 2.11 6.92 13.72-.01 15.97-4.11 1.17-8.51.42-12.73.64-.13 4.15-.06 8.31-.25 12.46h-3.73c-.27-9.85-.1-19.7-.12-29.55m3.52 3.39c-.29 3.47-.08 6.95-.11 10.43 3.33.09 6.67.29 9.99-.03 2.53-.42 5.16-2.51 4.85-5.31.43-2.35-1.5-3.97-3.28-5.08-3.78-.48-7.67-.43-11.45-.01z"/><path d="m83.95 7.36c1.15.05 2.3.1 3.45.16 3.17 5.82 5.74 12.07 9.67 17.41 2.03-6.04 5.62-11.39 7.62-17.43 1.38-.02 2.75-.04 4.13-.04-4.64 8.88-8.32 18.25-13.37 26.92-1.52 2.96-5.46 1.75-8.11 1.56-.01-.63-.04-1.88-.06-2.5 3.59.93 7.97-.82 7.47-5.12-3.37-7.09-8.27-13.5-10.8-20.96z"/><path d="m131.43 7.44c7.68.01 15.36-.03 23.04.04-.28 9.84.37 19.7-.34 29.52h-3.72c-1.04-8.55-.34-17.18-.6-25.77-4.79-.04-9.57-.06-14.35.03-.03 8.28-.05 16.56 0 24.84-1.35.09-2.7.16-4.04.22.01-9.62-.02-19.25.01-28.88z"/><path d="m179.57 7.55c7.66-.23 15.33-.06 23-.1.02 9.51 0 19.03.01 28.54-1.36-.06-2.72-.14-4.07-.21.11-8.17.04-16.34.04-24.51-4.99-.1-9.98-.13-14.97.04.02 8.22.01 16.44.01 24.67-1.36-.07-2.72-.13-4.07-.2.12-9.41.02-18.82.05-28.23z"/><path d="m236.26 7.32c1.56.11 3.13.23 4.69.41 3.06 9.72 8.05 18.8 10.76 28.6-.91-.11-2.73-.32-3.64-.42-1.78-2.52-2.07-5.89-4.1-8.19-3.65-.17-7.33-.19-10.97.03-2.43 1.82-2.33 5.29-3.5 7.89-1.32.47-2.7.71-4.13.72.57-3.69 2.27-7.04 3.72-10.43 2.22-6.27 4.71-12.43 7.17-18.61m-2.42 17.15c3.07-.01 6.15-.01 9.23-.01-1.14-4.38-3.22-8.44-4.49-12.78-2.13 4.04-3.7 8.35-4.74 12.79z"/><path d="m359.32 7.09c3.64-1.31 7.48.31 10.76 1.86 8.66 5.93 8.35 21.14-.78 26.51-4.43 1.17-9.33 1.47-13.69-.07-7.65-4.32-9.65-15.4-4.76-22.49 1.53-3.39 5.11-4.86 8.47-5.81m.06 3.44c-8.23 2.74-9.45 15.06-3.55 20.65 2.47 2.58 6.41 2.7 9.7 2.04 8.22-2.89 9.11-15.37 3.08-20.82-2.46-2.41-6.06-2.34-9.23-1.87z"/><path d="m400.44 7.42c2.01.02 4.02.04 6.04.04 1.56 6.49 4.09 12.67 6.08 19.02.41 1.51 1.32 2.77 2.49 3.81 2.69-7.53 5.38-15.06 7.91-22.64 1.8-.28 3.63-.18 5.45-.17-.17 9.47.46 19.03-.29 28.44-.87.11-2.6.34-3.47.45-.3-7.81.24-15.63-.34-23.43-2.71 7.5-5.23 15.07-7.89 22.59-1.2.78-2.77 1.06-4.04.28-1.43-3.75-2.71-7.56-4.01-11.35-1.25-3.59-1.8-7.49-3.87-10.75-.74 7.45.17 14.96-.56 22.41-1.18-.07-2.35-.14-3.51-.21.04-9.49.02-18.99.01-28.49z"/><path d="m509.98 7.9c1.26-.91 3.03-.3 4.51-.53 3.3 9.8 8.48 18.93 11.1 28.95-.87-.07-2.62-.2-3.5-.27-2.34-2.15-1.76-6.22-4.12-8.31-3.9-.11-7.87-.4-11.73.18-1.18 2.59-1.8 5.44-3.34 7.86-.87.13-2.61.41-3.48.55.85-3.55 1.98-7.04 3.42-10.4 2.68-5.89 4.39-12.17 7.14-18.03m1.77 3.17c-1.04 4.6-2.64 9.05-4.61 13.33 3.25.07 6.5.07 9.76.04-1.56-4.51-2.57-9.29-5.15-13.37z"/><path d="m597.42 7.41c1.01 0 2.04.01 3.07.01.06 7.15-.14 14.31.12 21.46 2.64-1.16 3.59-4.02 5.2-6.18 3.45-4.98 6.58-10.21 10.26-15 .89-.1 2.67-.3 3.56-.4.03 9.57.45 19.21-.19 28.75-.7.07-2.08.2-2.77.27-.27-7.49.13-14.99-.25-22.48-5.06 6.88-9.51 14.18-14.41 21.17-.99 1.64-3.08.94-4.63 1.07.03-9.56-.04-19.12.04-28.67z"/><path d="m664.49 7.46c1.5.02 3 .05 4.51.09v28.77c-1.31 0-2.62 0-3.92 0-.42-7.49-.11-15-.23-22.5-5.27 7.51-10.18 15.26-15.6 22.67-.9-.05-2.7-.15-3.6-.2-.08-9.62-.01-19.24-.04-28.86.93.05 2.81.15 3.74.2.01 7.22-.09 14.44.07 21.66 5.67-6.81 9.94-14.63 15.07-21.83z"/><path d="m .94 7.51c6.38-.1 12.75-.14 19.13.03-.06.78-.18 2.34-.23 3.12-4.91-.12-9.83-.14-14.73.04-.68 8.43-.11 16.91-.35 25.36-1.21.04-2.43.09-3.65.13-.53-9.55-.24-19.12-.17-28.68z"/><path d="m308.71 7.5c.96-.01 2.88-.02 3.84-.03.02 4.15.01 8.31.02 12.46 1.58-.32 3.48-.33 4.48-1.85 2.04-3.03 2.44-7.21 5.52-9.52 1.68-1.62 4.17-.93 6.27-1.14-.09.71-.27 2.14-.36 2.85-1.24.24-2.47.45-3.71.63-2.04 3.68-3.3 7.82-6.31 10.89 4.72 3.63 7.3 9.28 10.08 14.39-1.46.09-2.9.01-4.32-.23-3.04-3.76-4.89-8.39-8.25-11.91-.84-1-2.29-.84-3.44-1.16.04 4.43.1 8.86-.07 13.28-.93 0-2.79 0-3.72 0-.05-9.56.01-19.11-.03-28.66z"/><path d="m453.69 7.49c7.67-.09 15.33-.05 23-.01.17 9.36-.11 18.72.15 28.08-1.34.24-2.68.47-4.02.7-.18-8.58.11-17.16-.17-25.73-5 .11-10 .03-15 .06-.07 8.53.1 17.07-.11 25.59-.96 0-2.88-.02-3.84-.03-.05-9.55-.04-19.1-.01-28.66z"/></g></svg>