<svg height="832pt" viewBox="0 0 769 832" width="769pt" xmlns="http://www.w3.org/2000/svg">
	<path d="m .75.5c205.46-.01 410.91 0 616.37 0 .01 69.46-.01 138.91.01 208.37 42.41.01 84.83 0 127.24 0 .01 108.21 0 216.42.01 324.63-2.67.4-5.3.96-7.88 1.75-.01-3.64-.01-7.29 0-10.93-13.36 4.71-27.67 3.85-41.57 3.3-15.14-.77-30.21-2.81-45.03-6-20.64-4.5-41.8-6.61-62.93-6.23-7.8.23-14.95-3.24-22.45-4.75-9.23-1.9-19.32-4.15-28.39-.48-5.45 2.05-7.74 8.49-6.76 13.89 1.25 5.46 5.63 9.45 7.9 14.47 7.72 15.94 7.02 34.38 4.58 51.49-2.49 17.88-11.87 34.52-25.54 46.25-11.39 10.23-25.04 17.33-38.34 24.68-18.18 12-38.36 20.78-59.24 26.86-28.71 8.56-58.5 12.34-87.92 17.57-12.18 2.05-24.04 5.69-36.29 7.34-44.61 6.73-89.7 1.1-134.5.52-8.54-.44-17.19 1.92-24.17 6.9.08 14.17-.05 28.34.07 42.5 42.02-.04 84.04.04 126.06-.03 8.66-1.08 17.17-3.2 25.84-4.29 12.96-2.15 26.12-2.82 39.08-4.98 23.18-3.68 45.98-9.85 67.78-18.56 56.3-24.97 112.54-50.09 168.81-75.14 13.55-6.13 27.18-12.1 40.64-18.45 11.49-5.71 22.76-11.87 33.94-18.15-.09 1.54-.13 3.1-.07 4.65-15.64 8.67-31.42 17.13-47.81 24.31-60.86 27.32-121.84 54.36-182.79 81.49-25.09 11.7-52 19.18-79.26 23.7-13.76 2.33-27.77 2.86-41.49 5.45 27.76-.02 55.52 0 83.28-.01 6.26-.18 12.89 1.02 18.62-2.22 56.37-24.63 112.44-49.97 168.64-75 22.41-10.23 45.33-19.45 66.88-31.46-.08 1.5-.1 3.01-.07 4.53-17.88 9.97-36.83 17.78-55.45 26.21-58.24 26.02-116.46 52.08-174.8 77.89 36.44.22 72.88-.16 109.31.18-3.07 2.67-6.18 5.28-9.29 7.89-121.92-.03-243.83-.03-365.75 0-.05-69.92 0-139.84-.02-209.76-42.41-.01-84.82 0-127.23-.01-.05-186.79-.01-373.58-.02-560.37m7.87 8.01c.02 181.45-.02 362.91.02 544.36 24.56 0 49.11.01 73.67 0 1.47-.01 2.95 0 4.43.01 3.24-.01 6.47-.01 9.71-.01 1.49-.01 2.97-.01 4.46 0 9.03.01 18.06 0 27.09.01 0-20.62 0-41.24 0-61.86-.18-12.6.36-25.27-.26-37.83.24-3.15.49-6.32.17-9.46-.06-7.13.55-14.35-.3-21.41.54-3.53.56-7.14.29-10.69.24-67.58.03-135.17.1-202.75 14.27-.02 28.54.02 42.8-.02 1.4 0 2.81.01 4.21.03 2.71-.02 5.42-.02 8.14-.01l4.47-.03c21.61.03 43.23.06 64.85-.01 1.43 0 2.87.01 4.31.02 4.24.01 8.49.07 12.74-.05 1.84.03 3.69.05 5.54.06 87.35 0 174.7.03 262.05-.02 3.68.17 7.37 0 11.05-.11 18.23.35 36.49-.01 54.73.17 2.15-.01 4.3-.03 6.47-.08-.09-.34-.27-1.01-.36-1.35.27-9.48.05-18.97.12-28.46-.05-56.85.1-113.7-.07-170.54-7.54.14-15.08-.17-22.61.14-23.45-.69-46.94-.07-70.41-.3-109.52.16-219.08-.24-328.62.19-23.65-.01-47.3-.02-70.94.01-13.16-.37-26.31-.03-39.47-.18-22.79.13-45.59-.25-68.38.17m127.26 208.27c-.01 3.76-.01 7.53 0 11.31 4.08-.42 8.14-1.03 12.22-1.44 16.78-1.38 33.35-4.51 49.87-7.61 5.39-1.1 10.96-1.12 16.29-2.54-26.11.6-52.26.05-78.38.28m123.02.34c16.93 2.52 33.77 5.82 50.16 10.82 28.19 8.4 55.09 20.8 80.34 35.83 14.88 9.03 29.64 18.43 43.09 29.52 14.15 11.46 27.63 23.75 40.38 36.75 7.12 7.92 15.17 14.92 22.66 22.49 15.2 14.28 30.74 28.51 48.73 39.27 12.31 7.39 26.2 12.98 40.74 13.27 50.57.03 101.05 3.65 151.5 6.7 0-10.07-.01-20.13 0-30.2-13.85-4.33-27.61-8.95-41.27-13.83-36.92-13.11-74.47-27.55-114.17-28.2-9.39.2-18.77-1.55-27.53-4.88-20.44-7.76-37.71-21.92-52.86-37.37-10.43-10.33-19.53-21.87-28.76-33.26-13.22-16.06-27-31.64-40.68-47.32-54.72.09-109.45.01-164.17.04-2.72.1-5.51-.36-8.16.37m177.92-.34c13.69 16.35 28.11 32.1 41.45 48.75 12.89 16.32 26.73 32.04 42.88 45.21 13.44 10.89 28.74 20.28 45.93 23.64 6.87 1.48 13.92 1.03 20.89 1.41 8.74.46 17.45 1.59 26.06 3.16 42.22 7.96 81.46 26.16 122.44 38.44.05-6.23.02-12.46.02-18.69-30.87-9.35-60.66-21.96-91.62-31.06-21.39-6.35-43.49-11.03-65.89-11.02-15.77 0-30.84-6.21-43.97-14.55-18.17-11.69-33.53-27.18-47.35-43.67-11.39-14.02-22.58-28.23-34.7-41.64-5.38 0-10.76-.05-16.14.02m21.52-.03c8.32 9.65 16.6 19.35 24.48 29.36 12.97 16.49 27.12 32.25 43.75 45.15 12.46 9.64 26.62 17.73 42.31 20.48 5.61 1.12 11.35.79 17.03 1.05 13.7.53 27.29 2.75 40.62 5.85 37.63 8.83 73.11 24.58 109.97 35.93-.01-45.94 0-91.88 0-137.82-92.72 0-185.44 0-278.16 0m-274.24 8.95c-15.95 3.03-32.11 4.56-48.23 6.39 0 6.41.01 12.81 0 19.22 12.04-1.32 24.13-2.36 36.1-4.3 9.74-1.39 19.28-3.86 29.02-5.23 16.22-2.41 32.68-3.26 49.05-2.32 30.02 3.08 59.57 10.59 87.51 21.98 23.37 9.48 45.62 21.61 66.77 35.33 17.28 10.9 33.06 23.99 48.27 37.58 11.88 10.48 22.52 22.24 34.12 33.01 15.22 14.8 30.79 29.41 48.31 41.5 15.64 10.66 33.69 19.54 53.05 19.19 49.54.06 98.97 3.79 148.39 6.77.07-6.35.02-12.7.04-19.05-50.1-3.11-100.23-6.56-150.45-6.76-8.64.13-17.19-1.82-25.27-4.76-16.66-6.28-31.3-16.76-44.9-28.06-15.15-12.8-29.37-26.66-43.37-40.69-16.17-16.9-33.65-32.55-52.24-46.75-17.79-12.71-36.38-24.36-55.92-34.2-31.11-16.04-64.78-27.24-99.42-32.43-26.83-4.48-54.36-2.02-80.83 3.58m-.98 23.43c-15.59 3.06-31.43 4.5-47.21 6.17-.09 17.84.01 35.68-.05 53.51 15.96 8.18 34.19 11.82 52.07 10.3 27.57-1.13 55.27 1.38 82.25 7.1 26.12 6.05 52.96 8.95 79.76 8.69 21.84.06 43.23 7.13 61.87 18.26 21.06 12.49 39.27 29.27 55.51 47.47 7.3 8.48 15.38 16.66 19.81 27.12 8.31 18.7 8.34 39.79 6.63 59.82-.93 13.19-4.21 26.18-3.76 39.47-.17 3.78.64 7.82 3.5 10.51 2 2.45 5.58 2.97 7.56 5.29.03 9.09.62 18.24-.74 27.27-1.6 11.96-5.29 24.42-14.41 32.85-8.81 8.24-21.3 10.63-32.97 10.94-8.96.54-17.95-1.15-26.89-.19-15.25 4.04-29.81 10.34-43.83 17.52-17.72 8.51-36.24 17.15-56.24 17.75-54.26.01-107.99 8.52-162 12.51-10.04.3-19.86 3.8-28.11 9.47.02 6.94-.02 13.88.02 20.83 7.33-4.05 15.79-5.78 24.13-5.41 47.58.7 95.69 6.8 142.86-2.16 15.23-3.35 30.59-6.04 45.91-8.89 18.83-3.14 37.72-6.1 56.22-10.86 22.48-5.69 44.5-13.92 64.21-26.25 5.67-3.78 11.96-6.49 17.78-10.02 14.22-8.16 28.4-17.72 37.48-31.7 5.65-8.67 7.72-19.25 7.03-29.47-.81-8.42-7.51-14.45-10.27-22.15-5.62-12.56-4.75-26.79-2.11-39.96 1.8-8.27 5.98-16.85 13.94-20.73 9.63-4.91 20.88-2.96 30.99-.76 8.03 1.59 15.71 5.24 24.03 5.08 20.44-.25 40.9 1.76 60.93 5.78 22.27 5.01 45.13 7.34 67.95 6.75 6.69-.06 13.23-1.82 19.53-3.95-.01-19.44 0-38.89-.01-58.33-49.77-2.91-99.54-6.73-149.43-6.75-14.81.13-29.11-5.08-41.92-12.16-17.86-10.09-33.5-23.56-48.46-37.47-11.09-10.26-21.8-20.91-32.44-31.64-14.61-14.18-29.99-27.57-46.24-39.84-19.63-13.91-40.27-26.44-61.92-36.93-28.43-13.64-58.74-23.54-89.93-28.39-27.53-4.86-55.86-2.27-83.03 3.55m-47.22 64.24c-.07 6.34.03 12.68-.06 19.03 12.71 6.46 26.88 9.95 41.12 10.35 6.01.2 11.99-.56 18-.6 21.15-.29 42.33 1.39 63.16 5.1 9.46 1.6 18.76 4.02 28.23 5.56 20.68 3.59 41.69 5.52 62.69 5.35 27.48-.5 53.75 11.03 75.48 27.17 16.23 11.95 30.5 26.35 43.69 41.54 4.5 5.52 9.56 10.72 12.79 17.15 3.04 6.21 4.69 13.06 5.09 19.97 1.36 21.82-5.68 43.16-4.3 64.98.52 7.56.54 15.43 3.52 22.54 1.65 4.03 4.66 7.23 7.56 10.4-.97 9.18-5.87 18.17-13.99 22.88-10.73 6.41-23.69 6.83-35.85 6.52-6.66-.04-13.46-1.73-20.01.17-10.92 3.09-21.64 6.96-31.88 11.88-17.13 8.28-34.21 17.46-53.05 21.19-8.26 1.76-16.73 1.35-25.11 1.66-30.41.91-60.77 3.17-90.98 6.79-20.95 2.18-41.9 4.35-62.91 5.84-8.3.7-16.26 3.79-23.23 8.27.04 6.33-.01 12.66.03 19 5.38-3.06 11.04-5.75 17.1-7.13 5.21-1.38 10.63-1.35 15.96-1.84 52.34-4.2 104.46-12.1 157.07-12.16 20.53-.65 39.26-10.14 57.46-18.71 13.25-6.97 27.27-12.48 41.69-16.48 8.24-1 16.53.37 24.79.21 8.86-.16 18.04-.95 26.07-5 7.67-3.82 13.31-10.92 16.32-18.84 5.05-13.18 5.14-27.49 4.78-41.4-5.2-2.36-9.72-6.82-10.81-12.58-1.65-17.55 3.43-34.73 4.03-52.2 1.17-21.22-.32-44.43-13.59-62.02-16.12-20.02-34.12-38.78-55.13-53.71-17.7-12.52-38.01-22.03-59.71-24.59-8.61-1.18-17.32-.57-25.98-.93-21.81-.65-43.56-3.46-64.85-8.25-22.37-4.86-45.23-7.48-68.13-7.67-11.34-.39-22.69 1.45-34 .01-11.49-1.13-22.6-4.66-33.06-9.45m-.02 23.49c-.01 12.44.01 24.88-.02 37.32 21.92 7.43 45.54 5.45 68.13 2.92 10.73-.91 21.44-2.15 32.08-3.86 18.13-3.06 36.59-4.18 54.96-3.35 24.51 1.75 48.54 9.65 69.38 22.66 14.14 8.68 27.07 19.9 35.62 34.28 10.53 16.98 15.05 37.36 13.56 57.22-1.35 21.02-8.5 41.65-20.57 58.93-9.01 13.72-20.7 26.14-35.55 33.55-11.35 5.67-23.85 8.29-35.94 11.89-9.35 2.72-18.51 6.06-27.69 9.29-19.43 7.97-39.89 13.37-60.71 16.04-12.23 1.57-24.31 4.2-36.12 7.72-10.37 3.16-20.48 7.17-30.97 9.94-8.5 2.4-17.16 4.21-25.82 5.89-.76 1.5-.17 3.44-.39 5.11 7.13-4.12 15.08-6.93 23.32-7.56 25.03-1.85 50-4.4 74.94-7.21 25.55-2.76 51.21-4.55 76.9-5.35 9.74-.4 19.61.17 29.15-2.21 18.48-4.39 35.27-13.6 52.28-21.74 9.6-4.35 19.57-7.88 29.72-10.74 7.47-2.12 15.21-.17 22.81-.23 10.48.17 21.58-.29 30.98-5.44 6.95-3.79 11.48-10.98 12.78-18.69-5.18-5.13-8.61-11.99-9.58-19.21-2.24-15.93-1.77-32.17.91-48.01 1.52-13.24 3.63-26.8.94-40.02-1.39-6.64-4.4-12.92-8.77-18.11-16.55-20.29-34.96-39.4-56.76-54.1-16.84-11.22-36.08-19.54-56.41-21.25-6.34-.65-12.71-.25-19.06-.44-24.06-.59-48.07-3.5-71.55-8.78-28.33-5.99-57.48-8.45-86.4-6.58-15.87.38-31.85-2.96-46.15-9.88m124.16 37.48c-12.1.74-24 3.09-35.99 4.66-8.61 1.2-17.31 1.69-25.94 2.74-20.69 2.19-42.13 3.01-62.23-3.27-.01 6.44.01 12.88-.02 19.32 21.35 6.92 44.22 5.05 66.18 2.82 12.35-1.22 24.7-2.48 36.94-4.56 16.17-2.64 32.62-3.67 49-2.97 29.06 1.29 57.59 11.54 80.95 28.83 17.98 12.21 30.81 32.21 32.83 54-.54 16.48-6.3 32.67-15.89 46.05-8.51 13.1-19.51 25.05-33.73 31.98-13.9 6.76-29.33 9.16-43.83 14.25-7.66 2.71-15.36 5.3-22.9 8.32-19.35 7.58-39.66 12.75-60.31 15.12-12.76 1.76-25.39 4.62-37.6 8.75-16.88 5.8-33.99 11.23-51.63 14.16 0 6.24.01 12.47 0 18.7 16.03-2.79 31.75-7.16 47.05-12.66 14.64-5.1 29.79-8.65 45.15-10.71 18.43-2.35 36.61-6.79 53.98-13.39 9.86-3.94 19.94-7.25 30.02-10.57 12.78-4.13 26.19-6.5 38.36-12.36 14.61-6.83 26.16-18.85 34.86-32.22 9.5-13.42 15.99-28.95 18.84-45.14 3.57-19.88 1.85-41.08-7.19-59.33-6.39-13.61-16.54-25.27-28.62-34.13-18.09-13.37-39.19-22.68-61.32-26.78-15.45-3.05-31.32-2.64-46.96-1.61m-15.96 24.93c-12.79 2.15-25.66 3.79-38.57 4.98-23.1 2.43-47.06 4.63-69.64-2.23 0 1.14.01 3.43.02 4.58 21.74 3.01 43.9 4.07 65.09 10.2 11.38 3.13 22.32 7.86 32.44 13.94 3.01 1.83 6.37 2.95 9.52 4.5 7.69 3.7 14.11 9.81 18.4 17.17 2.95 4.76 4.13 10.3 6.06 15.5.4 1.32 1.08 2.71.55 4.13-1.52 7.55-3.28 15.17-6.85 22.07-7.17 14.57-19.97 25.63-34.02 33.38-17.57 9.56-37.2 15.09-57.05 17.24-12.95.53-25.7 6.4-34.16 16.28.01 16.48 0 32.97 0 49.46 17.82-2.94 35.07-8.59 52.09-14.47 12.67-4.05 25.71-6.94 38.91-8.61 10.84-1.32 21.58-3.47 32.12-6.32 20.59-5.47 39.84-14.94 60.41-20.46 14.15-3.91 29-7.33 40.95-16.33 10.67-7.69 18.43-18.53 25.46-29.47 7.25-11.64 11.5-25.23 11.96-38.95-1.77-16.33-9.7-31.87-21.71-43.05-14.67-13.06-32.14-22.9-50.82-28.96-26.1-8.66-54.2-8.22-81.16-4.58m-108.21 11.33c.04 6.34-.06 12.68.06 19.03 26.2 3.5 53.18 4.81 77.99 14.78 9.54 3.58 17.96 9.46 27.34 13.38 7.04 3.28 12.89 8.99 16.36 15.93-8.27 16.8-24.55 27.78-41.06 35.5-16.27 7.44-33.86 12.33-51.76 13.37-10.76 1.6-21.39 6.41-28.85 14.4-.19 6.01-.03 12.03-.06 18.05 9.49-8.87 22.14-14.03 35.12-14.39 25.95-3.33 52.42-11.67 72.2-29.46 11.6-10.31 18.69-24.96 20.81-40.23-1.84-6.15-3.44-12.53-6.99-17.97-3.1-4.82-7.19-8.99-12.03-12.06-4.35-2.99-9.6-4.21-14.03-7.05-11.78-7.01-24.7-12.02-38.06-15.06-18.73-4.47-38.01-5.59-57.04-8.22m0 23.05c0 32.59.03 65.19-.02 97.78 8.17-6.99 18.39-11.52 29.07-12.84 17.5-1.06 34.7-5.91 50.58-13.28 14.88-7.09 29.8-16.76 37.63-31.78-3.69-5.54-8.76-10.31-15.03-12.74-7.57-3.11-14.23-8.03-21.83-11.06-25.3-11.24-53.34-12.52-80.4-16.08m400.89 53.2c-7.62 2.78-11.77 10.55-13.54 18.03-2.51 12.13-3.66 25.17 1.07 36.93 2.39 7.25 7.88 12.96 10.27 20.21 1.65 5.5 1.11 11.34.44 16.95-1.39 12.1-8.14 22.97-16.72 31.36-12.46 12.59-28.32 20.88-43.72 29.24-29.04 18.91-62.87 28.75-96.69 34.84-23.68 4.15-47.43 7.93-70.92 13.06-48.78 10.08-98.72 3.52-148.01 2.89-7.94-.28-16 1.68-22.75 5.92-.76 6.26-.08 12.72-.33 19.06 6.94-4.14 15.01-6.39 23.11-6.11 29.67.3 59.28 2.96 88.96 2.77 22.79-.19 45.75-1.87 67.87-7.66 32.58-7 65.98-10.08 98.1-19.27 21.94-6.1 43.19-15.05 62.21-27.66 15.22-8.32 30.96-16.58 42.97-29.38 11.52-11.73 18.13-27.68 19.55-43.96 1.97-17.36 1.48-36.64-9.46-51.19-4.31-5.54-5.37-13.43-1.95-19.67 3.03-6.16 10.25-8.51 16.67-8.85 11.8-.57 23.38 2.63 34.59 5.97 5.38 1.5 10.99.95 16.5 1.04 14.7.18 29.37 1.54 43.85 4.03 8.1 1.36 16.06 3.39 24.18 4.69 17.8 3.07 35.91 4.27 53.97 3.85 6.68-.08 13.18-1.86 19.52-3.83-.01-6.27 0-12.55-.01-18.82-6.31 2.02-12.83 3.69-19.49 3.72-21.5.56-43.06-1.42-64.1-5.85-21.28-4.6-43.08-6.97-64.86-6.64-7.32.12-14.23-2.56-21.22-4.32-9.74-2.29-20.3-4.88-30.06-1.35z" />
	<path d="m736.49 597.22c2.64-1.65 5.29-3.27 7.84-5.05.11 59.48 0 118.96.06 178.44-31.51.03-63.02 0-94.53.02-.05-2.68-.12-5.35-.16-8.02 28.93.02 57.87.01 86.8.01-.04-18.13.06-36.25-.04-54.37-23.66-9.47-49.99-11.36-74.98-6.93-.39-1.3-.77-2.57-1.23-3.83 25.39-4.57 52.12-2.8 76.28 6.5-.06-6.3-.04-12.6-.02-18.9-27.6-10.97-58.87-11.89-87.43-4.13-.84-1.16-1.67-2.31-2.48-3.47 29.3-8.27 61.37-7.51 89.92 3.28-.05-24.35-.01-48.71-.02-73.06-10.52 2.04-20.77 5.26-30.74 9.12 4.61-3.04 9.24-6.06 13.93-8.98 5.5-1.76 11.14-3.1 16.81-4.19-.01-2.15-.02-4.3-.01-6.44z" />
	<path d="m648.47 641.21c.86.81 1.72 1.61 2.6 2.42-4.04 2.18-8.09 4.33-12.04 6.66 2.3-3.81 5.9-6.51 9.44-9.08z" />
	<path d="m601.59 699.04c10.08-6.92 20.95-12.67 32.3-17.19.76 1.11 1.53 2.22 2.32 3.34-10.31 4-20.16 9.11-29.42 15.15-1.74-.44-3.47-.87-5.2-1.3z" />
	<path d="m630.22 706.23c5.65-1.74 11.08-4.16 16.82-5.64.34.61 1.03 1.83 1.38 2.45-.73.64-1.46 1.28-2.19 1.92-2.98.98-5.99 1.87-8.89 3.05-2.37-.62-4.75-1.22-7.12-1.78z" />
	<path d="m8.62 8.51c22.79-.42 45.59-.04 68.38-.17 13.16.15 26.31-.19 39.47.18-8.22 12.52-17.32 24.47-27.27 35.66-24.62 28.48-42.35 62.78-51.7 99.23-6.64 26.11-9.72 52.97-11.77 79.78-3.03 43.87-2.82 87.92-.49 131.82 1.17 27.25 4.89 54.56 13.36 80.57 5.48 16.89 12.75 33.32 22.75 48.05 11.05 15.13 20.6 31.33 28.89 48.11 3.42 7.11 6.86 14.22 10.67 21.13-1.49-.01-2.97-.01-4.46 0-3.49-6.41-6.72-12.96-9.8-19.58-6.9-13.71-14.54-27.05-23.17-39.75-26.02-34.64-37.34-78.04-41.08-120.61-3.22-45.59-3.86-91.38-1.45-137.02 1.85-31.26 4.95-62.61 12.58-93.05 9.8-38.42 28.73-74.53 55.16-104.13 8.2-9.48 15.85-19.46 22.74-29.93-4.45-.16-8.9-.18-13.35-.12-3.53 4.28-7.01 8.6-10.71 12.73-27.26 31.28-46.65 69.2-56.56 109.47-7.93 32.1-11.41 65.11-13.48 98.05-2.57 43.63-2.32 87.4-.25 131.05 1.55 35.07 7.09 70.27 19.6 103.19 5.91 15.54 13.39 30.55 23.03 44.13 10.45 14.29 19.29 29.68 27.03 45.58-1.48-.01-2.96-.02-4.43-.01-6.88-14.06-14.77-27.63-23.8-40.42-15.76-21.37-26.2-46.22-33.35-71.67-6.92-25.02-10.52-50.87-11.86-76.76-2.38-47.62-2.65-95.39.55-142.98 2.24-31.24 5.84-62.52 13.56-92.93 10.03-39.35 28.86-76.52 55.31-107.39 3.41-3.94 6.88-7.82 10.08-11.94-28.05-.39-56.12.19-84.18-.27z" fill="#7f7f7f" />
	<path d="m187.41 8.51c109.54-.43 219.1-.03 328.62-.19 23.47.23 46.96-.39 70.41.3-19.26 8.72-40.61 10.67-61.45 12-22.62.53-45.43 4.67-66.05 14.22-23.18 10.19-45.56 22.08-68.67 32.42-11.03 5.18-23.03 8.36-35.23 8.8-12.05.36-24.55.33-35.85 5.09-7.79 3.24-14.42 8.84-19.5 15.52-12.98 15.98-28 30.3-44.58 42.48-13.17 9.99-25.5 21.05-37.16 32.75-12.22 10.37-22.64 22.88-30.33 36.95-1.49.01-2.98.02-4.47.03 5.99-11.67 13.99-22.24 23.11-31.64 3.83-3.85 8.09-7.24 11.94-11.07 11.98-12.13 25.02-23.19 38.7-33.34 15.37-11.79 29.25-25.5 41.32-40.65 5.93-7.43 14.06-13.07 23.08-16.06 12.61-4.4 26.12-3.35 39.21-4.44 17.95-1.63 33.81-10.8 49.86-18.2 12.82-6.28 25.66-12.5 38.6-18.53 8.13-3.62 16.18-7.52 24.71-10.13 16.28-5.12 33.29-7.8 50.35-8.13 16.62-1.12 33.46-2.37 49.44-7.42-1.8-.28-3.61-.55-5.42-.61-31.35.03-62.71 0-94.07.01-3.7-.01-7.61-.47-11.03 1.27-26.53 11.8-52.01 25.86-78.81 37.09-10.12 4.34-21.15 6.36-32.14 6.56-9.18.17-18.48.49-27.4 2.88-7.93 2.11-15.28 6.25-21.25 11.86-3.99 3.7-7.14 8.18-10.71 12.26-12.41 14.57-26.63 27.55-42.06 38.86-15 11.23-28.02 24.75-41.85 37.33-14.84 14.66-26.41 32.57-33.72 52.11-1.4-.02-2.81-.03-4.21-.03 5.9-16.41 14.78-31.73 26.04-45.03 7.34-8.96 16.35-16.32 24.62-24.38 10.31-10.15 21.51-19.35 33.09-28.01 15.09-11.71 28.79-25.25 40.66-40.22 6.51-8.09 15.3-14.35 25.17-17.62 9.85-3.26 20.33-3.8 30.63-3.97 11.04-.11 22.15-2.11 32.29-6.57 24.38-10.35 47.82-22.72 71.75-34.05-6.66-.66-13.35-.23-20.03-.35-74.63.03-149.27 0-223.9.01-2.62 3.51-5.25 7-7.96 10.44-14.25 18.03-26.6 37.54-37.06 58-19.1 39.91-34.76 81.66-44.14 124.97-6.01 27.87-9.34 56.39-8.93 84.92.56 41.85 2.75 84.3 14.87 124.63.27 3.55.25 7.16-.29 10.69-3.37-7.56-5.28-15.67-7.39-23.65-8.54-35.54-10.64-72.25-11.1-108.67-1.06-44.91 7.09-89.63 20.56-132.35 7.56-24.11 16.91-47.64 27.39-70.62 9.97-22.25 22.65-43.23 37.15-62.8 3.84-5.23 8.01-10.2 11.81-15.46-4.63-.11-9.25-.18-13.88-.07-11.39 15.59-21.62 32.05-30.08 49.41-27.96 58.11-48.66 120.4-54.84 184.84-2.76 28.27-2.02 56.73-.73 85.06 2.27 39.2 7.03 78.91 21.41 115.72.32 3.14.07 6.31-.17 9.46-3.55-7.52-6.43-15.33-8.95-23.25-11.01-35.22-14.89-72.2-16.61-108.91-1-26.71-1.53-53.53 1.25-80.16 6.47-64.79 27.47-127.36 55.64-185.79 8.15-16.27 17.65-31.84 28.34-46.57z" fill="#7f7f7f" />
	<path d="m394.91 162.21c32.4-6.43 65.96-2.82 97.75 5.17 19.99 4.99 39.48 11.77 58.65 19.28 19.17 7.1 39.8 10.52 57.69 20.82.09.34.27 1.01.36 1.35-2.17.05-4.32.07-6.47.08-16.47-8.79-35.18-11.84-52.54-18.36-20.41-7.98-41.17-15.19-62.5-20.26-26.41-6.28-53.89-9.45-80.94-5.99-10.05 1.12-19.81 4.08-29.91 4.81-11.66 1.32-23.39.65-35.03-.37-17.8-.19-36.7-1.27-53.07 7.02-14.18 6.95-24.34 19.7-32.12 33.1-1.44-.01-2.88-.02-4.31-.02 5.72-10.82 13.06-21.04 22.6-28.82 10.87-9.09 24.8-13.86 38.83-14.86 12.66-.81 25.4-.88 38.04.35 14.38 1.02 28.91-.13 42.97-3.3z" fill="#7f7f7f" />
	<path d="m391.75 185.81c33.39-6.4 68.28-4.85 100.97 4.5 18.81 5.08 37.38 11.1 55.44 18.43-3.68.11-7.37.28-11.05.11-18.87-7.43-38.41-13.12-58.1-17.9-28.15-6.22-57.56-6.72-85.88-1.34-13.15 2.59-26.65 3.62-40.03 2.63-7.34-.61-14.71-.18-22.05-.83-19.8-.84-41.41 2.96-55.99 17.46-1.85-.01-3.7-.03-5.54-.06 7.63-8.41 17.72-14.48 28.54-17.82 11.65-3.18 23.85-4.18 35.89-3.39 6.05.45 12.12.05 18.16.58 13.24 1.07 26.62.23 39.64-2.37z" fill="#7f7f7f" />
	<g fill="#fff">
		<path d="m116.47 8.52c23.64-.03 47.29-.02 70.94-.01-10.69 14.73-20.19 30.3-28.34 46.57-28.17 58.43-49.17 121-55.64 185.79-2.78 26.63-2.25 53.45-1.25 80.16 1.72 36.71 5.6 73.69 16.61 108.91 2.52 7.92 5.4 15.73 8.95 23.25.62 12.56.08 25.23.26 37.83v61.86c-9.03-.01-18.06 0-27.09-.01-3.81-6.91-7.25-14.02-10.67-21.13-8.29-16.78-17.84-32.98-28.89-48.11-10-14.73-17.27-31.16-22.75-48.05-8.47-26.01-12.19-53.32-13.36-80.57-2.33-43.9-2.54-87.95.49-131.82 2.05-26.81 5.13-53.67 11.77-79.78 9.35-36.45 27.08-70.75 51.7-99.23 9.95-11.19 19.05-23.14 27.27-35.66z" />
		<path d="m586.44 8.62c7.53-.31 15.07 0 22.61-.14.17 56.84.02 113.69.07 170.54-.07 9.49.15 18.98-.12 28.46-17.89-10.3-38.52-13.72-57.69-20.82-19.17-7.51-38.66-14.29-58.65-19.28-31.79-7.99-65.35-11.6-97.75-5.17-14.06 3.17-28.59 4.32-42.97 3.3-12.64-1.23-25.38-1.16-38.04-.35-14.03 1-27.96 5.77-38.83 14.86-9.54 7.78-16.88 18-22.6 28.82-21.62.07-43.24.04-64.85.01 7.69-14.07 18.11-26.58 30.33-36.95 11.66-11.7 23.99-22.76 37.16-32.75 16.58-12.18 31.6-26.5 44.58-42.48 5.08-6.68 11.71-12.28 19.5-15.52 11.3-4.76 23.8-4.73 35.85-5.09 12.2-.44 24.2-3.62 35.23-8.8 23.11-10.34 45.49-22.23 68.67-32.42 20.62-9.55 43.43-13.69 66.05-14.22 20.84-1.33 42.19-3.28 61.45-12z" />
		<path d="m8.62 8.51c28.06.46 56.13-.12 84.18.27-3.2 4.12-6.67 8-10.08 11.94-26.45 30.87-45.28 68.04-55.31 107.39-7.72 30.41-11.32 61.69-13.56 92.93-3.2 47.59-2.93 95.36-.55 142.98 1.34 25.89 4.94 51.74 11.86 76.76 7.15 25.45 17.59 50.3 33.35 71.67 9.03 12.79 16.92 26.36 23.8 40.42-24.56.01-49.11 0-73.67 0-.04-181.45 0-362.91-.02-544.36z" />
		<path d="m98.08 8.68c4.45-.06 8.9-.04 13.35.12-6.89 10.47-14.54 20.45-22.74 29.93-26.43 29.6-45.36 65.71-55.16 104.13-7.63 30.44-10.73 61.79-12.58 93.05-2.41 45.64-1.77 91.43 1.45 137.02 3.74 42.57 15.06 85.97 41.08 120.61 8.63 12.7 16.27 26.04 23.17 39.75 3.08 6.62 6.31 13.17 9.8 19.58-3.24 0-6.47 0-9.71.01-7.74-15.9-16.58-31.29-27.03-45.58-9.64-13.58-17.12-28.59-23.03-44.13-12.51-32.92-18.05-68.12-19.6-103.19-2.07-43.65-2.32-87.42.25-131.05 2.07-32.94 5.55-65.95 13.48-98.05 9.91-40.27 29.3-78.19 56.56-109.47 3.7-4.13 7.18-8.45 10.71-12.73z" />
		<path d="m192.15 8.7c4.63-.11 9.25-.04 13.88.07-3.8 5.26-7.97 10.23-11.81 15.46-14.5 19.57-27.18 40.55-37.15 62.8-10.48 22.98-19.83 46.51-27.39 70.62-13.47 42.72-21.62 87.44-20.56 132.35.46 36.42 2.56 73.13 11.1 108.67 2.11 7.98 4.02 16.09 7.39 23.65.85 7.06.24 14.28.3 21.41-14.38-36.81-19.14-76.52-21.41-115.72-1.29-28.33-2.03-56.79.73-85.06 6.18-64.44 26.88-126.73 54.84-184.84 8.46-17.36 18.69-33.82 30.08-49.41z" />
		<path d="m211.12 8.67c74.63-.01 149.27.02 223.9-.01 6.68.12 13.37-.31 20.03.35-23.93 11.33-47.37 23.7-71.75 34.05-10.14 4.46-21.25 6.46-32.29 6.57-10.3.17-20.78.71-30.63 3.97-9.87 3.27-18.66 9.53-25.17 17.62-11.87 14.97-25.57 28.51-40.66 40.22-11.58 8.66-22.78 17.86-33.09 28.01-8.27 8.06-17.28 15.42-24.62 24.38-11.26 13.3-20.14 28.62-26.04 45.03-14.26.04-28.53 0-42.8.02-.07 67.58.14 135.17-.1 202.75-12.12-40.33-14.31-82.78-14.87-124.63-.41-28.53 2.92-57.05 8.93-84.92 9.38-43.31 25.04-85.06 44.14-124.97 10.46-20.46 22.81-39.97 37.06-58 2.71-3.44 5.34-6.93 7.96-10.44z" />
		<path d="m462.95 9.94c3.42-1.74 7.33-1.28 11.03-1.27 31.36-.01 62.72.02 94.07-.01 1.81.06 3.62.33 5.42.61-15.98 5.05-32.82 6.3-49.44 7.42-17.06.33-34.07 3.01-50.35 8.13-8.53 2.61-16.58 6.51-24.71 10.13-12.94 6.03-25.78 12.25-38.6 18.53-16.05 7.4-31.91 16.57-49.86 18.2-13.09 1.09-26.6.04-39.21 4.44-9.02 2.99-17.15 8.63-23.08 16.06-12.07 15.15-25.95 28.86-41.32 40.65-13.68 10.15-26.72 21.21-38.7 33.34-3.85 3.83-8.11 7.22-11.94 11.07-9.12 9.4-17.12 19.97-23.11 31.64-2.72-.01-5.43-.01-8.14.01 7.31-19.54 18.88-37.45 33.72-52.11 13.83-12.58 26.85-26.1 41.85-37.33 15.43-11.31 29.65-24.29 42.06-38.86 3.57-4.08 6.72-8.56 10.71-12.26 5.97-5.61 13.32-9.75 21.25-11.86 8.92-2.39 18.22-2.71 27.4-2.88 10.99-.2 22.02-2.22 32.14-6.56 26.8-11.23 52.28-25.29 78.81-37.09z" />
		<path d="m406.91 164.3c27.05-3.46 54.53-.29 80.94 5.99 21.33 5.07 42.09 12.28 62.5 20.26 17.36 6.52 36.07 9.57 52.54 18.36-18.24-.18-36.5.18-54.73-.17-18.06-7.33-36.63-13.35-55.44-18.43-32.69-9.35-67.58-10.9-100.97-4.5-13.02 2.6-26.4 3.44-39.64 2.37-6.04-.53-12.11-.13-18.16-.58-12.04-.79-24.24.21-35.89 3.39-10.82 3.34-20.91 9.41-28.54 17.82-4.25.12-8.5.06-12.74.05 7.78-13.4 17.94-26.15 32.12-33.1 16.37-8.29 35.27-7.21 53.07-7.02 11.64 1.02 23.37 1.69 35.03.37 10.1-.73 19.86-3.69 29.91-4.81z" />
		<path d="m393.13 189.61c28.32-5.38 57.73-4.88 85.88 1.34 19.69 4.78 39.23 10.47 58.1 17.9-87.35.05-174.7.02-262.05.02 14.58-14.5 36.19-18.3 55.99-17.46 7.34.65 14.71.22 22.05.83 13.38.99 26.88-.04 40.03-2.63z" />
		<path d="m135.88 216.78c26.12-.23 52.27.32 78.38-.28-5.33 1.42-10.9 1.44-16.29 2.54-16.52 3.1-33.09 6.23-49.87 7.61-4.08.41-8.14 1.02-12.22 1.44-.01-3.78-.01-7.55 0-11.31z" />
		<path d="m258.9 217.12c2.65-.73 5.44-.27 8.16-.37 54.72-.03 109.45.05 164.17-.04 13.68 15.68 27.46 31.26 40.68 47.32 9.23 11.39 18.33 22.93 28.76 33.26 15.15 15.45 32.42 29.61 52.86 37.37 8.76 3.33 18.14 5.08 27.53 4.88 39.7.65 77.25 15.09 114.17 28.2 13.66 4.88 27.42 9.5 41.27 13.83-.01 10.07 0 20.13 0 30.2-50.45-3.05-100.93-6.67-151.5-6.7-14.54-.29-28.43-5.88-40.74-13.27-17.99-10.76-33.53-24.99-48.73-39.27-7.49-7.57-15.54-14.57-22.66-22.49-12.75-13-26.23-25.29-40.38-36.75-13.45-11.09-28.21-20.49-43.09-29.52-25.25-15.03-52.15-27.43-80.34-35.83-16.39-5-33.23-8.3-50.16-10.82z" />
		<path d="m436.82 216.78c5.38-.07 10.76-.02 16.14-.02 12.12 13.41 23.31 27.62 34.7 41.64 13.82 16.49 29.18 31.98 47.35 43.67 13.13 8.34 28.2 14.55 43.97 14.55 22.4-.01 44.5 4.67 65.89 11.02 30.96 9.1 60.75 21.71 91.62 31.06 0 6.23.03 12.46-.02 18.69-40.98-12.28-80.22-30.48-122.44-38.44-8.61-1.57-17.32-2.7-26.06-3.16-6.97-.38-14.02.07-20.89-1.41-17.19-3.36-32.49-12.75-45.93-23.64-16.15-13.17-29.99-28.89-42.88-45.21-13.34-16.65-27.76-32.4-41.45-48.75z" />
		<path d="m458.34 216.75h278.16c0 45.94-.01 91.88 0 137.82-36.86-11.35-72.34-27.1-109.97-35.93-13.33-3.1-26.92-5.32-40.62-5.85-5.68-.26-11.42.07-17.03-1.05-15.69-2.75-29.85-10.84-42.31-20.48-16.63-12.9-30.78-28.66-43.75-45.15-7.88-10.01-16.16-19.71-24.48-29.36z" />
		<path d="m184.1 225.7c26.47-5.6 54-8.06 80.83-3.58 34.64 5.19 68.31 16.39 99.42 32.43 19.54 9.84 38.13 21.49 55.92 34.2 18.59 14.2 36.07 29.85 52.24 46.75 14 14.03 28.22 27.89 43.37 40.69 13.6 11.3 28.24 21.78 44.9 28.06 8.08 2.94 16.63 4.89 25.27 4.76 50.22.2 100.35 3.65 150.45 6.76-.02 6.35.03 12.7-.04 19.05-49.42-2.98-98.85-6.71-148.39-6.77-19.36.35-37.41-8.53-53.05-19.19-17.52-12.09-33.09-26.7-48.31-41.5-11.6-10.77-22.24-22.53-34.12-33.01-15.21-13.59-30.99-26.68-48.27-37.58-21.15-13.72-43.4-25.85-66.77-35.33-27.94-11.39-57.49-18.9-87.51-21.98-16.37-.94-32.83-.09-49.05 2.32-9.74 1.37-19.28 3.84-29.02 5.23-11.97 1.94-24.06 2.98-36.1 4.3.01-6.41 0-12.81 0-19.22 16.12-1.83 32.28-3.36 48.23-6.39z" />
		<path d="m183.12 249.13c27.17-5.82 55.5-8.41 83.03-3.55 31.19 4.85 61.5 14.75 89.93 28.39 21.65 10.49 42.29 23.02 61.92 36.93 16.25 12.27 31.63 25.66 46.24 39.84 10.64 10.73 21.35 21.38 32.44 31.64 14.96 13.91 30.6 27.38 48.46 37.47 12.81 7.08 27.11 12.29 41.92 12.16 49.89.02 99.66 3.84 149.43 6.75.01 19.44 0 38.89.01 58.33-6.3 2.13-12.84 3.89-19.53 3.95-22.82.59-45.68-1.74-67.95-6.75-20.03-4.02-40.49-6.03-60.93-5.78-8.32.16-16-3.49-24.03-5.08-10.11-2.2-21.36-4.15-30.99.76-7.96 3.88-12.14 12.46-13.94 20.73-2.64 13.17-3.51 27.4 2.11 39.96 2.76 7.7 9.46 13.73 10.27 22.15.69 10.22-1.38 20.8-7.03 29.47-9.08 13.98-23.26 23.54-37.48 31.7-5.82 3.53-12.11 6.24-17.78 10.02-19.71 12.33-41.73 20.56-64.21 26.25-18.5 4.76-37.39 7.72-56.22 10.86-15.32 2.85-30.68 5.54-45.91 8.89-47.17 8.96-95.28 2.86-142.86 2.16-8.34-.37-16.8 1.36-24.13 5.41-.04-6.95 0-13.89-.02-20.83 8.25-5.67 18.07-9.17 28.11-9.47 54.01-3.99 107.74-12.5 162-12.51 20-.6 38.52-9.24 56.24-17.75 14.02-7.18 28.58-13.48 43.83-17.52 8.94-.96 17.93.73 26.89.19 11.67-.31 24.16-2.7 32.97-10.94 9.12-8.43 12.81-20.89 14.41-32.85 1.36-9.03.77-18.18.74-27.27-1.98-2.32-5.56-2.84-7.56-5.29-2.86-2.69-3.67-6.73-3.5-10.51-.45-13.29 2.83-26.28 3.76-39.47 1.71-20.03 1.68-41.12-6.63-59.82-4.43-10.46-12.51-18.64-19.81-27.12-16.24-18.2-34.45-34.98-55.51-47.47-18.64-11.13-40.03-18.2-61.87-18.26-26.8.26-53.64-2.64-79.76-8.69-26.98-5.72-54.68-8.23-82.25-7.1-17.88 1.52-36.11-2.12-52.07-10.3.06-17.83-.04-35.67.05-53.51 15.78-1.67 31.62-3.11 47.21-6.17z" />
		<path d="m135.9 313.37c10.46 4.79 21.57 8.32 33.06 9.45 11.31 1.44 22.66-.4 34-.01 22.9.19 45.76 2.81 68.13 7.67 21.29 4.79 43.04 7.6 64.85 8.25 8.66.36 17.37-.25 25.98.93 21.7 2.56 42.01 12.07 59.71 24.59 21.01 14.93 39.01 33.69 55.13 53.71 13.27 17.59 14.76 40.8 13.59 62.02-.6 17.47-5.68 34.65-4.03 52.2 1.09 5.76 5.61 10.22 10.81 12.58.36 13.91.27 28.22-4.78 41.4-3.01 7.92-8.65 15.02-16.32 18.84-8.03 4.05-17.21 4.84-26.07 5-8.26.16-16.55-1.21-24.79-.21-14.42 4-28.44 9.51-41.69 16.48-18.2 8.57-36.93 18.06-57.46 18.71-52.61.06-104.73 7.96-157.07 12.16-5.33.49-10.75.46-15.96 1.84-6.06 1.38-11.72 4.07-17.1 7.13-.04-6.34.01-12.67-.03-19 6.97-4.48 14.93-7.57 23.23-8.27 21.01-1.49 41.96-3.66 62.91-5.84 30.21-3.62 60.57-5.88 90.98-6.79 8.38-.31 16.85.1 25.11-1.66 18.84-3.73 35.92-12.91 53.05-21.19 10.24-4.92 20.96-8.79 31.88-11.88 6.55-1.9 13.35-.21 20.01-.17 12.16.31 25.12-.11 35.85-6.52 8.12-4.71 13.02-13.7 13.99-22.88-2.9-3.17-5.91-6.37-7.56-10.4-2.98-7.11-3-14.98-3.52-22.54-1.38-21.82 5.66-43.16 4.3-64.98-.4-6.91-2.05-13.76-5.09-19.97-3.23-6.43-8.29-11.63-12.79-17.15-13.19-15.19-27.46-29.59-43.69-41.54-21.73-16.14-48-27.67-75.48-27.17-21 .17-42.01-1.76-62.69-5.35-9.47-1.54-18.77-3.96-28.23-5.56-20.83-3.71-42.01-5.39-63.16-5.1-6.01.04-11.99.8-18 .6-14.24-.4-28.41-3.89-41.12-10.35.09-6.35-.01-12.69.06-19.03z" />
		<path d="m135.88 336.86c14.3 6.92 30.28 10.26 46.15 9.88 28.92-1.87 58.07.59 86.4 6.58 23.48 5.28 47.49 8.19 71.55 8.78 6.35.19 12.72-.21 19.06.44 20.33 1.71 39.57 10.03 56.41 21.25 21.8 14.7 40.21 33.81 56.76 54.1 4.37 5.19 7.38 11.47 8.77 18.11 2.69 13.22.58 26.78-.94 40.02-2.68 15.84-3.15 32.08-.91 48.01.97 7.22 4.4 14.08 9.58 19.21-1.3 7.71-5.83 14.9-12.78 18.69-9.4 5.15-20.5 5.61-30.98 5.44-7.6.06-15.34-1.89-22.81.23-10.15 2.86-20.12 6.39-29.72 10.74-17.01 8.14-33.8 17.35-52.28 21.74-9.54 2.38-19.41 1.81-29.15 2.21-25.69.8-51.35 2.59-76.9 5.35-24.94 2.81-49.91 5.36-74.94 7.21-8.24.63-16.19 3.44-23.32 7.56.22-1.67-.37-3.61.39-5.11 8.66-1.68 17.32-3.49 25.82-5.89 10.49-2.77 20.6-6.78 30.97-9.94 11.81-3.52 23.89-6.15 36.12-7.72 20.82-2.67 41.28-8.07 60.71-16.04 9.18-3.23 18.34-6.57 27.69-9.29 12.09-3.6 24.59-6.22 35.94-11.89 14.85-7.41 26.54-19.83 35.55-33.55 12.07-17.28 19.22-37.91 20.57-58.93 1.49-19.86-3.03-40.24-13.56-57.22-8.55-14.38-21.48-25.6-35.62-34.28-20.84-13.01-44.87-20.91-69.38-22.66-18.37-.83-36.83.29-54.96 3.35-10.64 1.71-21.35 2.95-32.08 3.86-22.59 2.53-46.21 4.51-68.13-2.92.03-12.44.01-24.88.02-37.32z" />
		<path d="m260.04 374.34c15.64-1.03 31.51-1.44 46.96 1.61 22.13 4.1 43.23 13.41 61.32 26.78 12.08 8.86 22.23 20.52 28.62 34.13 9.04 18.25 10.76 39.45 7.19 59.33-2.85 16.19-9.34 31.72-18.84 45.14-8.7 13.37-20.25 25.39-34.86 32.22-12.17 5.86-25.58 8.23-38.36 12.36-10.08 3.32-20.16 6.63-30.02 10.57-17.37 6.6-35.55 11.04-53.98 13.39-15.36 2.06-30.51 5.61-45.15 10.71-15.3 5.5-31.02 9.87-47.05 12.66.01-6.23 0-12.46 0-18.7 17.64-2.93 34.75-8.36 51.63-14.16 12.21-4.13 24.84-6.99 37.6-8.75 20.65-2.37 40.96-7.54 60.31-15.12 7.54-3.02 15.24-5.61 22.9-8.32 14.5-5.09 29.93-7.49 43.83-14.25 14.22-6.93 25.22-18.88 33.73-31.98 9.59-13.38 15.35-29.57 15.89-46.05-2.02-21.79-14.85-41.79-32.83-54-23.36-17.29-51.89-27.54-80.95-28.83-16.38-.7-32.83.33-49 2.97-12.24 2.08-24.59 3.34-36.94 4.56-21.96 2.23-44.83 4.1-66.18-2.82.03-6.44.01-12.88.02-19.32 20.1 6.28 41.54 5.46 62.23 3.27 8.63-1.05 17.33-1.54 25.94-2.74 11.99-1.57 23.89-3.92 35.99-4.66z" />
		<path d="m244.08 399.27c26.96-3.64 55.06-4.08 81.16 4.58 18.68 6.06 36.15 15.9 50.82 28.96 12.01 11.18 19.94 26.72 21.71 43.05-.46 13.72-4.71 27.31-11.96 38.95-7.03 10.94-14.79 21.78-25.46 29.47-11.95 9-26.8 12.42-40.95 16.33-20.57 5.52-39.82 14.99-60.41 20.46-10.54 2.85-21.28 5-32.12 6.32-13.2 1.67-26.24 4.56-38.91 8.61-17.02 5.88-34.27 11.53-52.09 14.47 0-16.49.01-32.98 0-49.46 8.46-9.88 21.21-15.75 34.16-16.28 19.85-2.15 39.48-7.68 57.05-17.24 14.05-7.75 26.85-18.81 34.02-33.38 3.57-6.9 5.33-14.52 6.85-22.07.53-1.42-.15-2.81-.55-4.13-1.93-5.2-3.11-10.74-6.06-15.5-4.29-7.36-10.71-13.47-18.4-17.17-3.15-1.55-6.51-2.67-9.52-4.5-10.12-6.08-21.06-10.81-32.44-13.94-21.19-6.13-43.35-7.19-65.09-10.2-.01-1.15-.02-3.44-.02-4.58 22.58 6.86 46.54 4.66 69.64 2.23 12.91-1.19 25.78-2.83 38.57-4.98z" />
		<path d="m135.87 410.6c19.03 2.63 38.31 3.75 57.04 8.22 13.36 3.04 26.28 8.05 38.06 15.06 4.43 2.84 9.68 4.06 14.03 7.05 4.84 3.07 8.93 7.24 12.03 12.06 3.55 5.44 5.15 11.82 6.99 17.97-2.12 15.27-9.21 29.92-20.81 40.23-19.78 17.79-46.25 26.13-72.2 29.46-12.98.36-25.63 5.52-35.12 14.39.03-6.02-.13-12.04.06-18.05 7.46-7.99 18.09-12.8 28.85-14.4 17.9-1.04 35.49-5.93 51.76-13.37 16.51-7.72 32.79-18.7 41.06-35.5-3.47-6.94-9.32-12.65-16.36-15.93-9.38-3.92-17.8-9.8-27.34-13.38-24.81-9.97-51.79-11.28-77.99-14.78-.12-6.35-.02-12.69-.06-19.03z" />
		<path d="m135.87 433.65c27.06 3.56 55.1 4.84 80.4 16.08 7.6 3.03 14.26 7.95 21.83 11.06 6.27 2.43 11.34 7.2 15.03 12.74-7.83 15.02-22.75 24.69-37.63 31.78-15.88 7.37-33.08 12.22-50.58 13.28-10.68 1.32-20.9 5.85-29.07 12.84.05-32.59.02-65.19.02-97.78z" />
		<path d="m536.76 486.85c9.76-3.53 20.32-.94 30.06 1.35 6.99 1.76 13.9 4.44 21.22 4.32 21.78-.33 43.58 2.04 64.86 6.64 21.04 4.43 42.6 6.41 64.1 5.85 6.66-.03 13.18-1.7 19.49-3.72.01 6.27 0 12.55.01 18.82-6.34 1.97-12.84 3.75-19.52 3.83-18.06.42-36.17-.78-53.97-3.85-8.12-1.3-16.08-3.33-24.18-4.69-14.48-2.49-29.15-3.85-43.85-4.03-5.51-.09-11.12.46-16.5-1.04-11.21-3.34-22.79-6.54-34.59-5.97-6.42.34-13.64 2.69-16.67 8.85-3.42 6.24-2.36 14.13 1.95 19.67 10.94 14.55 11.43 33.83 9.46 51.19-1.42 16.28-8.03 32.23-19.55 43.96-12.01 12.8-27.75 21.06-42.97 29.38-19.02 12.61-40.27 21.56-62.21 27.66-32.12 9.19-65.52 12.27-98.1 19.27-22.12 5.79-45.08 7.47-67.87 7.66-29.68.19-59.29-2.47-88.96-2.77-8.1-.28-16.17 1.97-23.11 6.11.25-6.34-.43-12.8.33-19.06 6.75-4.24 14.81-6.2 22.75-5.92 49.29.63 99.23 7.19 148.01-2.89 23.49-5.13 47.24-8.91 70.92-13.06 33.82-6.09 67.65-15.93 96.69-34.84 15.4-8.36 31.26-16.65 43.72-29.24 8.58-8.39 15.33-19.26 16.72-31.36.67-5.61 1.21-11.45-.44-16.95-2.39-7.25-7.88-12.96-10.27-20.21-4.73-11.76-3.58-24.8-1.07-36.93 1.77-7.48 5.92-15.25 13.54-18.03z" />
		<path d="m536.13 510.16c9.07-3.67 19.16-1.42 28.39.48 7.5 1.51 14.65 4.98 22.45 4.75 21.13-.38 42.29 1.73 62.93 6.23 14.82 3.19 29.89 5.23 45.03 6 13.9.55 28.21 1.41 41.57-3.3-.01 3.64-.01 7.29 0 10.93-8.93 2.4-16.49 7.89-23.3 13.95-15.33 13.29-29.25 28.09-43.74 42.26-7.32 6.7-14.11 13.95-21.5 20.59-3.5 3.45-8.01 6.22-9.89 10.98-11.18 6.28-22.45 12.44-33.94 18.15-13.46 6.35-27.09 12.32-40.64 18.45-56.27 25.05-112.51 50.17-168.81 75.14-21.8 8.71-44.6 14.88-67.78 18.56-12.96 2.16-26.12 2.83-39.08 4.98-8.67 1.09-17.18 3.21-25.84 4.29-42.02.07-84.04-.01-126.06.03-.12-14.16.01-28.33-.07-42.5 6.98-4.98 15.63-7.34 24.17-6.9 44.8.58 89.89 6.21 134.5-.52 12.25-1.65 24.11-5.29 36.29-7.34 29.42-5.23 59.21-9.01 87.92-17.57 20.88-6.08 41.06-14.86 59.24-26.86 13.3-7.35 26.95-14.45 38.34-24.68 13.67-11.73 23.05-28.37 25.54-46.25 2.44-17.11 3.14-35.55-4.58-51.49-2.27-5.02-6.65-9.01-7.9-14.47-.98-5.4 1.31-11.84 6.76-13.89z" />
		<path d="m719.69 607.85c5.58-3.57 11.16-7.15 16.8-10.63-.01 2.14 0 4.29.01 6.44-5.67 1.09-11.31 2.43-16.81 4.19z" />
		<path d="m705.76 616.83c9.97-3.86 20.22-7.08 30.74-9.12.01 24.35-.03 48.71.02 73.06-28.55-10.79-60.62-11.55-89.92-3.28-3.16-4.59-6.18-9.35-8.21-14.56-1.55-4.04-1.88-8.92.64-12.64 3.95-2.33 8-4.48 12.04-6.66 1.26.99 2.68 3.01 4.46 1.73 17.63-7.85 33.88-18.36 50.23-28.53z" />
		<path d="m590.19 651.99c16.39-7.18 32.17-15.64 47.81-24.31.55 1.39 1.18 2.75 1.81 4.14-7.55 5.25-14.65 12.55-15.74 22.12-21.55 12.01-44.47 21.23-66.88 31.46-56.2 25.03-112.27 50.37-168.64 75-5.73 3.24-12.36 2.04-18.62 2.22-27.76.01-55.52-.01-83.28.01 13.72-2.59 27.73-3.12 41.49-5.45 27.26-4.52 54.17-12 79.26-23.7 60.95-27.13 121.93-54.17 182.79-81.49z" />
		<path d="m568.55 684.68c18.62-8.43 37.57-16.24 55.45-26.21.79 8.61 5.23 16.3 9.89 23.38-11.35 4.52-22.22 10.27-32.3 17.19-5.51-1.36-11-2.76-16.51-4.1-27.53 22.37-54.75 45.13-82.02 67.81-36.43-.34-72.87.04-109.31-.18 58.34-25.81 116.56-51.87 174.8-77.89z" />
		<path d="m649.08 680.96c28.56-7.76 59.83-6.84 87.43 4.13-.02 6.3-.04 12.6.02 18.9-24.16-9.3-50.89-11.07-76.28-6.5-2.92-6.02-7.32-11.12-11.17-16.53z" />
		<path d="m606.79 700.34c9.26-6.04 19.11-11.15 29.42-15.15 3.45 5.25 7.67 9.95 10.83 15.4-5.74 1.48-11.17 3.9-16.82 5.64-7.81-1.98-15.62-3.93-23.43-5.89z" />
		<path d="m661.48 701.32c24.99-4.43 51.32-2.54 74.98 6.93.1 18.12 0 36.24.04 54.37-28.93 0-57.87.01-86.8-.01-.27-14.46-.52-28.93-.86-43.39 3.81-2.96 8.29-5.39 10.93-9.59 1.57-2.45 1.83-5.47 1.71-8.31z" />
		<path d="m637.34 708.01c2.9-1.18 5.91-2.07 8.89-3.05-2.44 2.27-5.4 4.96-8.89 3.05z" />
	</g>
	<path d="m736.5 535.25c2.58-.79 5.21-1.35 7.88-1.75 5-.41 10.28.68 14.13 4.07 5.11 4.51 8.97 10.59 10.49 17.26v2.93c-1.62 14.84-13.45 25.82-24.67 34.41-2.55 1.78-5.2 3.4-7.84 5.05-5.64 3.48-11.22 7.06-16.8 10.63-4.69 2.92-9.32 5.94-13.93 8.98-16.35 10.17-32.6 20.68-50.23 28.53-1.78 1.28-3.2-.74-4.46-1.73-.88-.81-1.74-1.61-2.6-2.42-3.54 2.57-7.14 5.27-9.44 9.08-2.52 3.72-2.19 8.6-.64 12.64 2.03 5.21 5.05 9.97 8.21 14.56.81 1.16 1.64 2.31 2.48 3.47 3.85 5.41 8.25 10.51 11.17 16.53.46 1.26.84 2.53 1.23 3.83.12 2.84-.14 5.86-1.71 8.31-2.64 4.2-7.12 6.63-10.93 9.59.34 14.46.59 28.93.86 43.39.04 2.67.11 5.34.16 8.02.17 9.21.34 18.43.54 27.65-64.35 10.58-128.73 21.1-193.29 30.39-10.59 1.26-21.14 3.49-31.86 3.09 6.91-7.6 14.67-14.35 22.27-21.23 15.21-13.53 30.71-26.73 46.25-39.89 3.11-2.61 6.22-5.22 9.29-7.89 27.27-22.68 54.49-45.44 82.02-67.81 5.51 1.34 11 2.74 16.51 4.1 1.73.43 3.46.86 5.2 1.3 7.81 1.96 15.62 3.91 23.43 5.89 2.37.56 4.75 1.16 7.12 1.78 3.49 1.91 6.45-.78 8.89-3.05.73-.64 1.46-1.28 2.19-1.92-.35-.62-1.04-1.84-1.38-2.45-3.16-5.45-7.38-10.15-10.83-15.4-.79-1.12-1.56-2.23-2.32-3.34-4.66-7.08-9.1-14.77-9.89-23.38-.03-1.52-.01-3.03.07-4.53 1.09-9.57 8.19-16.87 15.74-22.12-.63-1.39-1.26-2.75-1.81-4.14-.06-1.55-.02-3.11.07-4.65 1.88-4.76 6.39-7.53 9.89-10.98 7.39-6.64 14.18-13.89 21.5-20.59 14.49-14.17 28.41-28.97 43.74-42.26 6.81-6.06 14.37-11.55 23.3-13.95z" fill="#c20a0a" />
</svg>
