<svg height="692pt" viewBox="0 0 427 692" width="427pt" xmlns="http://www.w3.org/2000/svg">
	<path d="m290.72 0h15.02c11.12 57.02 22.29 114.04 33.41 171.06.89 4.94 2.32 9.85 2.09 14.91-.27 8.38-1.42 16.71-1.37 25.09-.02 3.62 1.59 6.94 2.73 10.3 3.98 11.34 7.8 22.74 11.83 34.06 1.94 5.31 1.35 11.06 1.68 16.6 1.21 58.7 1.07 117.4 1.15 176.11-2.42 2.37-4.86 4.72-7.26 7.11-.31-60.75.11-121.51-1.21-182.26-.34-5.4.32-11.04-1.66-16.2-4.14-11.56-8-23.22-12.08-34.79-.9-2.64-2.15-5.21-2.44-8-.69-10.98 1.87-21.93 1.01-32.88-11.35-58.24-22.7-116.49-34.16-174.71-90.17 12.36-180.34 24.74-270.51 37.07 13.84 40.65 28.2 81.16 40.32 122.37 1.75 6.44 3.81 12.85 4.49 19.52 1.46 14.5 2.28 29.08 2.25 43.66 2.01 42.6 3.57 85.22 6.12 127.79.85 12.29 1.44 24.62 3.12 36.83 2.66 11.39 3.38 23.1 4.49 34.71 2.77 32.16 4.91 64.37 7.34 96.55 1.12 12.55 1.62 25.19 3.51 37.64 3.3 5.74 8.43 11.35 7.82 18.45-1.69 6.39-6.64 11.26-9 17.36-.59 7.87-.4 15.79-.81 23.68-.6 7.78 1.43 15.41 2.48 23.08 27.45-6.17 54.71-13.19 82.2-19.21-3.82 3.65-7.86 7.07-12.05 10.28-22.2 5.14-44.35 10.47-66.52 15.7-3.56.69-6.86 3.2-10.61 2.3-10.21-1.92-18.77-8.21-26.66-14.62-17.51-13.54-34.96-27.16-52.39-40.8-.29-9.37.5-18.78-.8-28.1-3.21-28.95-6.22-57.92-8.66-86.94-3.1-37.49-5.58-75.11-4.48-112.74.75-32.68 2.38-65.34 4.9-97.93 1.43-16.86 2.9-33.74 5.48-50.48.89-5.5 1.78-11.07 3.97-16.23 6.43-15.84 14.19-31.16 23.3-45.64.89-1.26 1.41-2.74.99-4.28-2.51-14.24-5.04-28.5-8.43-42.56-.8-3.42-1.86-6.76-3.29-9.97-2.2-4.97-2.73-10.43-3.52-15.75-1.85-14.35-2.91-28.79-3.86-43.22-.12-2.58-.77-5.08-1.42-7.57 64.32-8.68 128.6-17.62 192.91-26.37 26.18-3.76 52.45-6.93 78.58-10.98m-260.59 69.77c.32 8.74 1.59 17.44 3.05 26.05.61 4.24 3.2 7.82 4.13 11.97 4.37 16.65 7.21 33.64 10.26 50.56-.69.24-2.08.74-2.77.98.75.65 1.51 1.3 2.26 1.95-8.55 13.51-16.4 27.56-22.35 42.42 6.87-3.26 13.22-7.5 20.04-10.85 1.14 2.08 2.28 4.17 3.43 6.26-9.18 5.26-18.39 10.45-27.69 15.48-1.66 7.03-2.5 14.21-3.46 21.35-2.97 24.95-4.75 50.02-6.21 75.1-1.78 35.61-3.49 71.28-2.09 106.93 2.08 51.82 7.53 103.42 13.12 154.96.97 7.44.29 14.96.61 22.44 18.91 14.47 37.55 29.31 56.47 43.78 4.44 3.48 9.62 5.85 14.96 7.61-.71-4.47-1.35-8.96-2.12-13.42-1.92-11.73-.48-23.64.24-35.41.76-6.69 6.38-11.14 8.62-17.19.76-7.84-7.4-12.27-9.24-19.29-3.07-10.2-1.46-20.98-2.33-31.44-3.43-43.33-6.75-86.67-10.18-130-2.33-12.87-2.91-25.97-3.83-39-1.2-17.34-1.72-34.73-3.12-52.07-1.38-16.61-1.91-33.27-2.81-49.9-1-22.69-2.15-45.37-2.23-68.08-.33-9.52-3.48-18.59-6.01-27.68-9.5-31.41-19.94-62.53-30.75-93.51z" />
	<path d="m296.88 198.8c.91-.47 1.64-1.78 2.79-1.5 1.48 1.73 2.81 3.59 4.2 5.39-9.27 7.26-18.48 14.58-27.72 21.88 10.28 1.58 20.51 3.47 30.79 5.03-.3 2.46-.63 4.92-.98 7.38-17-2.11-34-4.2-51.01-6.25-1.9-.32-3.74.31-5.56.75-19.24 5.11-38.52 10.05-57.77 15.15-.72-2.38-1.35-4.79-1.66-7.26 20.75-5.2 41.4-10.85 62.13-16.13 4.08-.11 8.13.81 12.18 1.33 10.89-8.56 21.76-17.15 32.61-25.77z" />
	<path d="m54.79 225.02c2.42-.24 4.83-.5 7.26-.69.74 8.83.77 17.86-1.14 26.55-4.86 12.87-11.08 25.2-17.87 37.15-4.12 9.26-6.68 19.14-9.21 28.93-1.84 7.23-3.43 14.55-3.87 22.01-2.35.51-4.7 1.01-7.06 1.47-.39-10.4 2.71-20.51 5.15-30.51 2.93-10.2 5.48-20.73 11.03-29.89 5.51-9.86 10.37-20.1 14.55-30.58 1.99-7.96 1.7-16.31 1.16-24.44z" />
	<path d="m349.58 505.52c2.48-1.51 4.92-3.08 7.39-4.63-.03 27.06-.25 54.12-1.03 81.16-.31 2.8.17 5.98-1.41 8.47-2.7 1.99-6.12 2.63-9.23 3.74-9.74 3.18-19.82 5.1-29.71 7.75-.08-2.57-.13-5.13-.15-7.7 11.11-2.46 22.24-5 32.95-8.9 1.04-26.61 1.14-53.26 1.19-79.89z" />
	<g fill="#fff">
		<path d="m28.95 43.47c90.17-12.33 180.34-24.71 270.51-37.07 11.46 58.22 22.81 116.47 34.16 174.71.86 10.95-1.7 21.9-1.01 32.88.29 2.79 1.54 5.36 2.44 8 4.08 11.57 7.94 23.23 12.08 34.79 1.98 5.16 1.32 10.8 1.66 16.2 1.32 60.75.9 121.51 1.21 182.26-13.66 13.95-27.8 27.41-42.1 40.68-3.48 3.13-2.83 8.06-1.18 11.95-6.64 4.96-13.09 11.5-14.08 20.14-1.2 10.69 4.92 20.21 10.68 28.63 3.7 5.83 8.71 10.78 11.56 17.14-1.98 1.67-3.85 3.57-6.19 4.76-1.51-.03-2.98-.45-4.43-.78-14.39-3.72-28.84-7.18-43.23-10.9-1.95-.32-4.34-1.56-6 .11-24.1 19.41-47.63 39.56-71.75 58.93-27.49 6.02-54.75 13.04-82.2 19.21-1.05-7.67-3.08-15.3-2.48-23.08.41-7.89.22-15.81.81-23.68 2.36-6.1 7.31-10.97 9-17.36.61-7.1-4.52-12.71-7.82-18.45-1.89-12.45-2.39-25.09-3.51-37.64-2.43-32.18-4.57-64.39-7.34-96.55-1.11-11.61-1.83-23.32-4.49-34.71-1.68-12.21-2.27-24.54-3.12-36.83-2.55-42.57-4.11-85.19-6.12-127.79.03-14.58-.79-29.16-2.25-43.66-.68-6.67-2.74-13.08-4.49-19.52-12.12-41.21-26.48-81.72-40.32-122.37m267.93 155.33c-10.85 8.62-21.72 17.21-32.61 25.77-4.05-.52-8.1-1.44-12.18-1.33-20.73 5.28-41.38 10.93-62.13 16.13.31 2.47.94 4.88 1.66 7.26 19.25-5.1 38.53-10.04 57.77-15.15 1.82-.44 3.66-1.07 5.56-.75 17.01 2.05 34.01 4.14 51.01 6.25.35-2.46.68-4.92.98-7.38-10.28-1.56-20.51-3.45-30.79-5.03 9.24-7.3 18.45-14.62 27.72-21.88-1.39-1.8-2.72-3.66-4.2-5.39-1.15-.28-1.88 1.03-2.79 1.5z" />
		<path d="m30.13 69.77c10.81 30.98 21.25 62.1 30.75 93.51 2.53 9.09 5.68 18.16 6.01 27.68.08 22.71 1.23 45.39 2.23 68.08.9 16.63 1.43 33.29 2.81 49.9 1.4 17.34 1.92 34.73 3.12 52.07.92 13.03 1.5 26.13 3.83 39 3.43 43.33 6.75 86.67 10.18 130 .87 10.46-.74 21.24 2.33 31.44 1.84 7.02 10 11.45 9.24 19.29-2.24 6.05-7.86 10.5-8.62 17.19-.72 11.77-2.16 23.68-.24 35.41.77 4.46 1.41 8.95 2.12 13.42-5.34-1.76-10.52-4.13-14.96-7.61-18.92-14.47-37.56-29.31-56.47-43.78-.32-7.48.36-15-.61-22.44-5.59-51.54-11.04-103.14-13.12-154.96-1.4-35.65.31-71.32 2.09-106.93 1.46-25.08 3.24-50.15 6.21-75.1.96-7.14 1.8-14.32 3.46-21.35 9.3-5.03 18.51-10.22 27.69-15.48-1.15-2.09-2.29-4.18-3.43-6.26-6.82 3.35-13.17 7.59-20.04 10.85 5.95-14.86 13.8-28.91 22.35-42.42-.75-.65-1.51-1.3-2.26-1.95.69-.24 2.08-.74 2.77-.98-3.05-16.92-5.89-33.91-10.26-50.56-.93-4.15-3.52-7.73-4.13-11.97-1.46-8.61-2.73-17.31-3.05-26.05m24.66 155.25c.54 8.13.83 16.48-1.16 24.44-4.18 10.48-9.04 20.72-14.55 30.58-5.55 9.16-8.1 19.69-11.03 29.89-2.44 10-5.54 20.11-5.15 30.51 2.36-.46 4.71-.96 7.06-1.47.44-7.46 2.03-14.78 3.87-22.01 2.53-9.79 5.09-19.67 9.21-28.93 6.79-11.95 13.01-24.28 17.87-37.15 1.91-8.69 1.88-17.72 1.14-26.55-2.43.19-4.84.45-7.26.69z" />
		<path d="m320.14 521.12c10.28-4.27 19.81-10.07 29.44-15.6-.05 26.63-.15 53.28-1.19 79.89-10.71 3.9-21.84 6.44-32.95 8.9-.02-1.99-.05-3.98-.06-5.97 3.85-3.09 8.59-5.78 10.53-10.57 1.83-4.74-.41-9.73-2.97-13.71-5.35-8.24-12.09-15.6-16.4-24.49-1.83-3.9-3.22-8.49-1.63-12.7 1.76-4.65 5.91-7.68 9.83-10.43 1.79 1.56 3.6 3.12 5.4 4.68z" />
	</g>
	<path d="m380.84 426.82c6.16-4.9 13.71-7.87 21.41-9.3 5.55-1.04 11.57.57 15.53 4.69 5.03 5.16 9.52 12.19 8.16 19.73-1.64 9.34-8.1 16.93-14.84 23.21-6.64 6.31-14.77 10.63-22.41 15.55-10.6 6.69-21.1 13.54-31.72 20.19-2.47 1.55-4.91 3.12-7.39 4.63-9.63 5.53-19.16 11.33-29.44 15.6-1.8-1.56-3.61-3.12-5.4-4.68-3.92 2.75-8.07 5.78-9.83 10.43-1.59 4.21-.2 8.8 1.63 12.7 4.31 8.89 11.05 16.25 16.4 24.49 2.56 3.98 4.8 8.97 2.97 13.71-1.94 4.79-6.68 7.48-10.53 10.57.01 1.99.04 3.98.06 5.97.02 2.57.07 5.13.15 7.7.43 19.87.93 39.74 1.14 59.62-60.92 9.8-121.8 19.88-182.93 28.3-8 1.18-16.08 2.08-24.17 1.35 3.65-4.54 8.17-8.26 12.4-12.24 16.02-14.71 32.82-28.54 49.2-42.86 4.19-3.21 8.23-6.63 12.05-10.28 24.12-19.37 47.65-39.52 71.75-58.93 1.66-1.67 4.05-.43 6-.11 14.39 3.72 28.84 7.18 43.23 10.9 1.45.33 2.92.75 4.43.78 2.34-1.19 4.21-3.09 6.19-4.76-2.85-6.36-7.86-11.31-11.56-17.14-5.76-8.42-11.88-17.94-10.68-28.63.99-8.64 7.44-15.18 14.08-20.14-1.65-3.89-2.3-8.82 1.18-11.95 14.3-13.27 28.44-26.73 42.1-40.68 2.4-2.39 4.84-4.74 7.26-7.11 7.56-7.42 15.21-14.8 23.58-21.31z" fill="#c20a0a" />
</svg>