<svg height="771pt" viewBox="0 0 741 771" width="741pt" xmlns="http://www.w3.org/2000/svg">
	<path d="m4.12 309.99c1.13 0 2.26.02 3.4.04-.03 63.23-.01 126.47-.01 189.7-1.13.01-2.26.03-3.39.05.01-63.26 0-126.53 0-189.79z" fill="#e5e5e5" />
	<path d="m733.88 310c .65 0 1.97.01 2.63.01-.02 63.25-.01 126.49-.01 189.73-.66.01-1.98.02-2.64.02.04-63.26 0-126.51.02-189.76z" fill="#e5e5e5" />
	<path d="m148.88 727.25c.5-.3 1.49-.89 1.99-1.19 144.3-.04 288.59-.08 432.89.02.01.43.02 1.3.02 1.73-142.61.06-285.23 0-427.85.03-2.36-.06-4.8.31-7.05-.59z" fill="#e5e5e5" />
	<path d="m131.43 0h470.29c.55 5.65.17 11.34.28 17.01-.1 25.99.19 51.99.12 77.99 43.92.01 87.84-.01 131.76 0 0 69.21-.03 138.42.01 207.62.65 0 1.95.01 2.59.01.01-1.13.02-2.26.04-3.39.91 0 2.72.01 3.62.01-.04 70.37-.01 140.74-.02 211.12-.9 0-2.7 0-3.6.01-.02-1.13-.03-2.26-.03-3.38-.66 0-1.96 0-2.61 0-.01 69.21 0 138.42-.01 207.63-43.91-.01-87.83-.02-131.74.01-.02 18.66.01 37.32-.02 55.98-6.11 0-12.23.01-18.34 0-.04-11.88-.01-23.75-.02-35.62-144.75 0-289.5-.01-434.26.01.02 11.87 0 23.74.01 35.61-6.13.01-12.25 0-18.38.01.01-18.67 0-37.34.01-56-41.21-.01-82.42 0-123.63-.01.01-69.21 0-138.41.01-207.61-1.13-.01-2.26-.02-3.38-.02 0 .85-.01 2.54-.01 3.38-.9 0-2.71 0-3.62 0 0-70.37.01-140.74 0-211.11 1.21-.01 2.43-.01 3.64-.02-.01 1.13-.01 2.26-.02 3.4 1.13-.01 2.25-.02 3.38-.02 0-69.21 0-138.41 0-207.62 41.21 0 82.42.01 123.62 0 .01-28.35 0-56.7.01-85.05-.02-3.32-.16-6.65.3-9.95m6.93 67.76c152.13-.03 304.26 0 456.39-.01.03-20.02-.05-40.03.04-60.04-152.14-.2-304.28-.02-456.41-.1-.01 20.05.02 40.1-.02 60.15m.14 7.37v19.87h3.62c.01-6.63-.01-13.25.01-19.87-.91 0-2.72 0-3.63 0m11-.01v19.88c72.38.01 144.75-.01 217.13.01-.02 206.53.01 413.07-.02 619.6-72.37.03-144.74.01-217.11.02 0 1.4-.01 2.82 0 4.24 144.76.01 289.51-.01 434.27.01-.02-1.42-.03-2.83-.03-4.23-69.67-.12-139.35.1-209.02-.11.07-206.51.01-413.02.03-619.54 69.67-.01 139.34.01 209-.01-.01-6.61.02-13.23-.01-19.85-144.75-.04-289.49-.01-434.24-.02m441.64.01c-.03 6.62-.01 13.24-.02 19.87 1.21 0 2.42 0 3.63-.01-.01-6.61.01-13.23-.02-19.84-1.2-.02-2.4-.02-3.59-.02m-576.41 27.24c.05 201.63 0 403.25.02 604.87 12.25.01 24.5 0 36.75.01 0-66.75 0-133.5 0-200.25-.85 0-2.54 0-3.38 0 0 .85.01 2.53.01 3.38-2.45-.01-4.91-.01-7.36-.01-.04-70.38-.02-140.75-.01-211.13 2.46.01 4.93.01 7.39 0-.01 1.13-.02 2.26-.03 3.4 1.12-.01 2.25-.02 3.38-.03-.01-66.74 0-133.49 0-200.23-12.26-.01-24.51 0-36.77-.01m44.16.01c-.04 201.62.01 403.24-.02 604.87 11.33-.02 22.67.03 34-.03.01-66.74 0-133.48.01-200.22-.82 0-2.44 0-3.25 0-.01 1.12-.01 2.25-.01 3.38-2.43-.01-4.86-.01-7.29.02-.19-70.38-.03-140.77-.08-211.15 2.47-.01 4.93 0 7.4-.01-.01.84-.04 2.53-.05 3.37l3.27.03c.01-66.76 0-133.52.01-200.27-11.33.02-22.66 0-33.99.01m41.35-.02c.03 201.63.01 403.25.01 604.88 8.91.01 17.83 0 26.75.01 0-66.75 0-133.5 0-200.25-.84 0-2.53 0-3.37 0-.01 1.12-.01 2.25-.01 3.38-2.42-.01-4.83-.01-7.25 0 .01-70.37-.02-140.74.02-211.11 2.42-.03 4.84-.02 7.26-.04-.01.85-.04 2.54-.05 3.38l3.39.03c.02-66.76.01-133.51 0-200.27-8.92 0-17.83.03-26.75-.01m34 0c .03 201.63 0 403.26.01 604.89h224.99c.02-201.61-.01-403.22.02-604.82-75.01-.13-150.02.01-225.02-.07m247.77.01c-.02 201.63-.01 403.25-.01 604.88h225c-.01-201.63.02-403.26-.01-604.88-75 .01-149.99.01-224.98 0m232.37.01c-.01 66.74-.01 133.48 0 200.23 1.15.01 2.31.02 3.48.04 0-1.14.02-2.27.06-3.4 2.4-.01 4.81 0 7.23-.01-.05 70.38-.02 140.76-.02 211.14-2.43-.01-4.85-.01-7.26 0 0-.85.01-2.53.01-3.38-1.18-.01-2.35 0-3.51.01.01 66.75.01 133.51 0 200.26 8.88-.05 17.75-.01 26.63-.02-.01-201.63.01-403.26-.01-604.88-8.87.02-17.74-.01-26.61.01m34 0c-.01 66.74 0 133.48 0 200.22 1.15.02 2.31.03 3.48.05 0-1.14.02-2.27.06-3.4 2.43-.01 4.87 0 7.32-.01.03 70.38-.01 140.76.02 211.14-2.47-.01-4.93-.01-7.39 0 0-.85.01-2.54.01-3.38-1.18-.01-2.35 0-3.51.01.01 66.76.01 133.51 0 200.26 11.38-.05 22.75-.01 34.13-.02 0-201.63-.01-403.25 0-604.87-11.37 0-22.74-.01-34.12 0m41.35-.01c.04 66.73.02 133.46 0 200.18 1.17.05 2.36.07 3.55.1-.01-.85-.04-2.55-.05-3.4 2.47-.01 4.94 0 7.41-.01-.04 70.38-.01 140.76-.01 211.15-2.47-.02-4.92-.01-7.37-.04-.01-.84-.01-2.51-.02-3.35-.87 0-2.62 0-3.49 0v200.24c12.25.01 24.5 0 36.75.01 0-201.63-.01-403.25 0-604.87-12.26-.01-24.51 0-36.77-.01m-685.61 207.62c0 63.26.01 126.53 0 189.79 1.13-.02 2.26-.04 3.39-.05 0-63.23-.02-126.47.01-189.7-1.14-.02-2.27-.04-3.4-.04m44 .01c0 63.26.02 126.52-.01 189.77.85 0 2.54-.02 3.39-.02 0-63.25 0-126.5 0-189.75-.85 0-2.53 0-3.38 0m41.51 0c-.02 63.25.02 126.5-.03 189.76 1.09-.02 2.17-.03 3.26-.03.04-63.24 0-126.49.02-189.73-.82 0-2.44 0-3.25 0m33.99 0c-.01 63.25.03 126.51-.01 189.76.84 0 2.54-.01 3.39-.01 0-63.25 0-126.5 0-189.75-.84 0-2.53 0-3.38 0m490.75.01c0 63.26.03 126.51-.01 189.76 1.16-.02 2.33-.04 3.5-.05.03-63.24 0-126.48.02-189.72-1.18 0-2.35 0-3.51.01m34 0c0 63.25.03 126.51-.01 189.76 1.16-.02 2.33-.04 3.5-.05.03-63.24 0-126.48.02-189.72-1.18 0-2.35 0-3.51.01m41.38-.01v189.72c.86.03 2.57.08 3.43.11.16-63.28.02-126.55.07-189.83-.88 0-2.63 0-3.5 0m44.13 0c-.02 63.25.02 126.5-.02 189.76.66 0 1.98-.01 2.64-.02 0-63.24-.01-126.48.01-189.73-.66 0-1.98-.01-2.63-.01m-595.38 404.63v48.74h3.63c-.01-16.25-.01-32.5 0-48.75-.91 0-2.72 0-3.63.01m452.63.01c-.01 16.23 0 32.47 0 48.7 1.2.01 2.41.03 3.63.06-.04-16.26.04-32.52-.04-48.78-.9.01-2.7.02-3.59.02m-442.25 12.61c2.25.9 4.69.53 7.05.59 142.62-.03 285.24.03 427.85-.03 0-.43-.01-1.3-.02-1.73-144.3-.1-288.59-.06-432.89-.02-.5.3-1.49.89-1.99 1.19z" />
	<g fill="#fff">
		<path d="m138.36 67.76c.04-20.05.01-40.1.02-60.15 152.13.08 304.27-.1 456.41.1-.09 20.01-.01 40.02-.04 60.04-152.13.01-304.26-.02-456.39.01z" />
		<path d="m138.5 75.13h3.63c-.02 6.62 0 13.24-.01 19.87-.9 0-2.71 0-3.62 0 0-6.62 0-13.25 0-19.87z" />
		<path d="m591.14 75.13c1.19 0 2.39 0 3.59.02.03 6.61.01 13.23.02 19.84-1.21.01-2.42.01-3.63.01.01-6.63-.01-13.25.02-19.87z" />
		<path d="m14.73 102.37c12.26.01 24.51 0 36.77.01 0 66.74-.01 133.49 0 200.23-1.13.01-2.26.02-3.38.03.01-1.14.02-2.27.03-3.4-2.46.01-4.93.01-7.39 0-.01 70.38-.03 140.75.01 211.13 2.45 0 4.91 0 7.36.01 0-.85-.01-2.53-.01-3.38h3.38v200.25c-12.25-.01-24.5 0-36.75-.01-.02-201.62.03-403.24-.02-604.87z" />
		<path d="m58.89 102.38c11.33-.01 22.66.01 33.99-.01-.01 66.75 0 133.51-.01 200.27-1.09-.01-2.18-.02-3.27-.03.01-.84.04-2.53.05-3.37-2.47.01-4.93 0-7.4.01.05 70.38-.11 140.77.08 211.15 2.43-.03 4.86-.03 7.29-.02 0-1.13 0-2.26.01-3.38h3.25c-.01 66.74 0 133.48-.01 200.22-11.33.06-22.67.01-34 .03.03-201.63-.02-403.25.02-604.87z" />
		<path d="m100.24 102.36c8.92.04 17.83.01 26.75.01.01 66.76.02 133.51 0 200.27-1.13-.01-2.26-.02-3.39-.03.01-.84.04-2.53.05-3.38-2.42.02-4.84.01-7.26.04-.04 70.37-.01 140.74-.02 211.11 2.42-.01 4.83-.01 7.25 0 0-1.13 0-2.26.01-3.38h3.37v200.25c-8.92-.01-17.84 0-26.75-.01 0-201.63.02-403.25-.01-604.88z" />
		<path d="m134.24 102.36c75 .08 150.01-.06 225.02.07-.03 201.6 0 403.21-.02 604.82-74.99 0-149.99 0-224.99 0-.01-201.63.02-403.26-.01-604.89z" />
		<path d="m382.01 102.37c74.99.01 149.98.01 224.98 0 .03 201.62 0 403.25.01 604.88-75 0-150 0-225 0 0-201.63-.01-403.25.01-604.88z" />
		<path d="m614.38 102.38c8.87-.02 17.74.01 26.61-.01.02 201.62 0 403.25.01 604.88-8.88.01-17.75-.03-26.63.02.01-66.75.01-133.51 0-200.26 1.16-.01 2.33-.02 3.51-.01 0 .85-.01 2.53-.01 3.38 2.41-.01 4.83-.01 7.26 0 0-70.38-.03-140.76.02-211.14-2.42.01-4.83 0-7.23.01-.04 1.13-.06 2.26-.06 3.4-1.17-.02-2.33-.03-3.48-.04-.01-66.75-.01-133.49 0-200.23z" />
		<path d="m648.38 102.38c11.38-.01 22.75 0 34.12 0-.01 201.62 0 403.24 0 604.87-11.38.01-22.75-.03-34.13.02.01-66.75.01-133.5 0-200.26 1.16-.01 2.33-.02 3.51-.01 0 .84-.01 2.53-.01 3.38 2.46-.01 4.92-.01 7.39 0-.03-70.38.01-140.76-.02-211.14-2.45.01-4.89 0-7.32.01-.04 1.13-.06 2.26-.06 3.4-1.17-.02-2.33-.03-3.48-.05 0-66.74-.01-133.48 0-200.22z" />
		<path d="m689.73 102.37c12.26.01 24.51 0 36.77.01-.01 201.62 0 403.24 0 604.87-12.25-.01-24.5 0-36.75-.01 0-66.74 0-133.49 0-200.24h3.49c.01.84.01 2.51.02 3.35 2.45.03 4.9.02 7.37.04 0-70.39-.03-140.77.01-211.15-2.47.01-4.94 0-7.41.01.01.85.04 2.55.05 3.4-1.19-.03-2.38-.05-3.55-.1.02-66.72.04-133.45 0-200.18z" />
		<path d="m48.12 310h3.38v189.75c-.85 0-2.54.02-3.39.02.03-63.25.01-126.51.01-189.77z" />
		<path d="m89.63 310h3.25c-.02 63.24.02 126.49-.02 189.73-1.09 0-2.17.01-3.26.03.05-63.26.01-126.51.03-189.76z" />
		<path d="m123.62 310h3.38v189.75c-.85 0-2.55.01-3.39.01.04-63.25 0-126.51.01-189.76z" />
		<path d="m614.37 310.01c1.16-.01 2.33-.01 3.51-.01-.02 63.24.01 126.48-.02 189.72-1.17.01-2.34.03-3.5.05.04-63.25.01-126.5.01-189.76z" />
		<path d="m648.37 310.01c1.16-.01 2.33-.01 3.51-.01-.02 63.24.01 126.48-.02 189.72-1.17.01-2.34.03-3.5.05.04-63.25.01-126.51.01-189.76z" />
		<path d="m689.75 310h3.5c-.05 63.28.09 126.55-.07 189.83-.86-.03-2.57-.08-3.43-.11 0-63.24 0-126.48 0-189.72z" />
		<path d="m138.5 714.63c.91-.01 2.72-.01 3.63-.01-.01 16.25-.01 32.5 0 48.75-.91 0-2.72 0-3.63 0 0-16.25 0-32.5 0-48.74z" />
		<path d="m591.13 714.64c.89 0 2.69-.01 3.59-.02.08 16.26 0 32.52.04 48.78-1.22-.03-2.43-.05-3.63-.06 0-16.23-.01-32.47 0-48.7z" />
	</g>
</svg>