<svg height="165" viewBox="0 0 538 832" width="107" xmlns="http://www.w3.org/2000/svg">
	<path d="m0 0h425.65c.31 71.26-.12 142.53.21 213.78 29.09-.08 58.18-.01 87.26-.03v319.58c-2.72.31-5.4.86-8.01 1.67 0-15.79.06-31.58-.04-47.37.47-.16 1.41-.47 1.88-.63-4.46-15.73-10.71-30.99-18.7-45.27-6.61-11.24-14.36-22.3-25.27-29.76-7-4.45-14.63-7.82-21.66-12.25-8.06-4.52-16.54-10.39-26.27-9.08-9.54 1.52-17.52 7.54-25.03 13.23-14.25 11.31-27.66 24.62-45 31.12-11.64 4.49-24.74 3.59-36.28-.75-12.08-4.35-23.05-11.22-33.58-18.46-6.53-4.34-12.45-9.91-20.11-12.24-15.61-5.25-32.5-1.56-47.52 3.9-19.34 7.32-37.12 18.2-53.99 30.06-20.88 14.89-40.51 31.54-58.83 49.47.48.93.71 1.92.67 2.97-.02 35.07.03 70.14-.02 105.21 11.7-8.25 25.3-14.15 39.69-15.23 20.47-1.89 40.7 5.9 57.01 17.89 16.32 12.21 34.85 21.92 54.9 26.13 18.78 4.13 38.67 3.25 56.94-2.78 15.08-4.86 29.03-12.99 40.96-23.37 11.89-9.89 26.2-18.35 42.1-18.54 16.9-.15 32.1 8.3 46.71 15.77-1.03.95-2.03 1.92-3.03 2.91-13.35-6.86-27.24-14.44-42.62-14.69-15.49-.19-29.38 8.26-40.9 17.86-15.47 13.3-34.14 23.06-54.2 27.08-19.49 4.06-39.98 2.59-58.87-3.57-15.5-5.06-29.98-12.97-43.05-22.67-12.31-9.09-26.6-16.09-41.94-17.84-19.15-2.33-38.92 4.07-53.66 16.36-.09 41.2.07 82.41-.09 123.61 26.29-24.4 54.06-47.66 85.44-65.3 15.38-8.34 31.64-15.79 49.12-18.24 9.88-1.3 20.26-.89 29.56 2.97 7.73 2.98 13.8 8.79 20.68 13.22 12.87 8.58 26.58 16.99 42.08 19.57 11.41 1.95 23.13-1.31 32.85-7.31 15.54-8.99 27.77-22.48 42.75-32.25 3.03-1.92 6.17-3.68 9.55-4.91-3.71 3.25-7.64 6.32-10.55 10.36-15.62 11.21-29.05 25.73-46.73 33.88-10.89 5.17-23.6 6.1-35.15 2.74-17.36-4.95-32.46-15.36-46.91-25.83-9.53-7.56-22.18-10.04-34.1-8.88-17.92 1.74-34.67 9.17-50.33 17.67-32.41 18.21-61.27 42.13-88 67.81-.51 9.74.01 19.58-.24 29.36 60.05.2 120.11-.05 180.16.12-3.08 2.64-6.18 5.26-9.31 7.86-59.58-.13-119.16.11-178.74-.12.11-69.57.07-139.13.02-208.69-29.15.05-58.31.01-87.46.02zm8.14 8.3c-.16 3.18-.38 6.41.19 9.57-.48 3.54-.45 7.15-.23 10.71-.24 36.56-.03 73.13-.1 109.7.04 1.27.09 2.55.13 3.83-.31 36.96-.03 73.93-.14 110.9.05 1.92-.14 3.9.44 5.76-.72 3.54-.48 7.22-.31 10.81-.28 42.02-.03 84.06-.13 126.09.01 1.41.03 2.82.04 4.24-.07 50.07-.01 100.14-.03 150.21 26.48.05 52.96-.09 79.43.07.38-1.72.24-3.5.24-5.24.02-47.66-.03-95.32 0-142.98-.13-17.28.24-34.58-.21-51.85.16-45.46-.14-90.94.15-136.39 110.04.05 220.08-.01 330.12.03.05-21.92 0-43.85.03-65.77-.01-1.65-.01-3.29 0-4.94 0-41.15-.05-82.31.02-123.47l-.06-.4c-.58-3.6.28-7.19-.01-10.8-136.52-.07-273.05.11-409.57-.08m87.24 220.71c-.05 36.01.09 72.01-.07 108.01 1.1-.44 2.14-1.02 3.11-1.7 13.06-8.72 28.85-13.45 44.58-12.75 16.8.67 32.84 7.45 46.46 17.03 5.83 4.22 11.68 8.43 17.94 11.99 20.58 12.06 44.53 19.11 68.5 17.54 24.73-1.39 48.53-11.85 67.2-27.97 12.1-10.06 26.59-18.93 42.82-19.05 18.04-.06 34.09 9.38 49.69 17.33 7.3 3.89 15.09 7.05 23.31 8.31 15.46 2.71 31.41.25 46.09-4.92.26-40.35.03-80.72.12-121.08-136.5-.05-273.01.1-409.51-.08-.49 2.42-.17 4.9-.24 7.34m272.6 101c-14.16 5.44-24.28 17.25-36.98 25.07-18.97 12.08-41.47 18.79-64 18.19-27.41-.47-53.8-11.41-75.7-27.46-13.7-10.42-29.98-18.23-47.38-19.21-17.48-1.13-34.9 5.1-48.65 15.75.21 45.9.11 91.8.05 137.7 2.99-1.33 4.96-4.19 7.42-6.26 23.27-21.19 48-41.05 75.36-56.76 15.74-8.83 32.51-16.54 50.49-19.25 13.32-2 27.84-.3 39.01 7.71 11.08 8.15 22.46 16.03 34.94 21.9 12.06 5.74 26.28 9.01 39.28 4.46 19.49-6.52 33.6-22.26 49.76-34.15 8.48-6.19 18.42-12.3 29.38-11.06 9.53 1.31 17.57 7.06 25.78 11.64 5.83 3.61 12.14 6.37 17.96 9.99 12.32 8.41 21.1 20.91 28.29 33.76 4.28 8.46 8.85 16.9 11.57 26.01.47-1.32.67-2.7.58-4.09-.19-38.96.28-77.95-.23-116.9-21.28 7.47-45.77 8.47-66.37-1.66-11.97-6.07-23.7-12.87-36.59-16.86-11.03-3.54-23.34-3.28-33.97 1.48z" />
	<path d="m505.81 596.36c2.42-1.57 4.94-2.99 7.26-4.71.11 58.41.05 116.82.03 175.23-31.71-.01-63.42 0-95.14 0-.06-2.63-.1-5.26-.14-7.88 29.1-.01 58.2.01 87.3 0 .03-9.58-.04-19.16.03-28.73.63-.02 1.9-.05 2.53-.06-4.31-15.51-10.45-30.53-18.21-44.63-5.81-10.38-12.88-20.24-22.04-27.93-6.43-5.38-14.41-8.33-21.47-12.73-3.55-1.76-6.66-4.63-10.63-5.41 1.6-.93 3.26-1.73 4.9-2.57 7.51 4.56 15.2 8.79 22.97 12.89 13.4 8.14 22.73 21.32 30.28 34.76 4.11 7.97 8.31 15.96 11.14 24.49.75-3.65.47-7.39.5-11.08 0-31.13.01-62.27 0-93.4-6.32 1.96-12.74 3.7-19.32 4.46 3.15-2.08 6.27-4.21 9.62-5.98 3.33-.63 6.6-1.59 9.73-2.89-.03-1.1-.04-2.19-.03-3.27z" />
	<g fill="#fff">
		<path d="m8.14 8.3c136.52.19 273.05.01 409.57.08.29 3.61-.57 7.2.01 10.8-.24-1.44-.5-2.87-.75-4.3-28.2 26.39-58.31 51.41-92.75 69.29-15.34 7.57-31.85 14.08-49.19 14.22-9.61.08-19.44-2.44-27.18-8.28-12.09-8.94-24.67-17.45-38.56-23.37-10.24-4.29-21.66-6.68-32.7-4.44-12.65 2.49-23.57 9.92-33.62 17.63-10.59 8.07-20.07 17.69-31.76 24.24-5.22 2.94-11.15 5.25-17.25 4.66-6.01-.47-11.34-3.55-16.52-6.37-6.96-4.05-13.88-8.18-21.04-11.87-8.18-4.01-14.83-10.54-20.45-17.59-12.84-16.31-20.71-35.75-27.62-55.13-.57-3.16-.35-6.39-.19-9.57z" />
		<path d="m342.04 78.78c27.44-16.71 52.3-37.31 75.74-59.2-.07 41.16-.02 82.32-.02 123.47-14.3 11.08-32.75 17.14-50.87 15.25-16.35-1.54-31.49-9.1-44.45-18.88-23.63-17.47-52.71-28.82-82.41-27.55-26.26.84-51.71 11.55-71.6 28.54-12.1 10.29-26.97 19.42-43.45 18.55-17.2-.92-32.12-10.47-47.23-17.75-21.23-11.82-47.38-10.99-69.75-2.93.07-36.57-.14-73.14.1-109.7 4.48 12.54 10.15 24.7 17.12 36.06 6.11 9.63 13.29 18.89 22.71 25.5 4.54 3.36 9.84 5.42 14.65 8.32 8.05 4.3 15.54 9.78 24.2 12.85 6.66 2.41 14.19 2.01 20.64-.87 12.02-5.1 21.72-14.11 31.67-22.32 10-8.06 20.32-16.33 32.67-20.46 9.98-3.51 21.01-2.58 30.89.81 12.35 4.33 23.54 11.31 34.28 18.67 5.99 4.05 11.48 9.04 18.34 11.63 13.25 5.33 28.16 4.16 41.67.43 16.01-4.36 30.91-11.95 45.1-20.42z" />
		<path d="m175.08 140.14c20.51-16.17 46.66-25.37 72.86-24.32 22.05.72 43.47 8.35 62.07 20 7.3 4.23 13.61 9.95 20.95 14.12 11.21 6.84 23.93 11.43 37.07 12.42 17.6 1.43 35.49-4.04 49.73-14.37-.03 21.92.02 43.85-.03 65.77-110.04-.04-220.08.02-330.12-.03-.29 45.45.01 90.93-.15 136.39-8.88-3.97-16.94-9.47-25.52-14.02-4.26-2.33-8.71-4.41-12.54-7.44-10.28-7.9-17.75-18.8-24.03-29.99-7.13-12.63-12.1-26.29-16.94-39.9-.58-1.86-.39-3.84-.44-5.76.11-36.97-.17-73.94.14-110.9 4-.92 7.86-2.37 11.86-3.27 14.5-3.44 30.01-3.77 44.28.85 7.94 2.52 15.02 6.99 22.49 10.56 11.71 5.9 23.93 11.78 37.24 12.64 12.82.91 25.38-3.9 35.86-11.02 5.41-3.46 10.22-7.73 15.22-11.73z" />
		<path d="m95.38 229.01c.07-2.44-.25-4.92.24-7.34 136.5.18 273.01.03 409.51.08-.09 40.36.14 80.73-.12 121.08-14.68 5.17-30.63 7.63-46.09 4.92-8.22-1.26-16.01-4.42-23.31-8.31-15.6-7.95-31.65-17.39-49.69-17.33-16.23.12-30.72 8.99-42.82 19.05-18.67 16.12-42.47 26.58-67.2 27.97-23.97 1.57-47.92-5.48-68.5-17.54-6.26-3.56-12.11-7.77-17.94-11.99-13.62-9.58-29.66-16.36-46.46-17.03-15.73-.7-31.52 4.03-44.58 12.75-.97.68-2.01 1.26-3.11 1.7.16-36 .02-72 .07-108.01z" />
		<path d="m8.12 269.58c6.32 17.53 14.3 34.76 25.97 49.43 6.15 7.5 13.39 14.43 22.27 18.58 10.39 5.25 19.9 12.18 30.73 16.54.48 16.04.27 32.11.1 48.15-7.09-2.94-13.57-7.28-20.98-9.46-18.99-6.03-39.71-3.83-58.22 2.85.1-42.03-.15-84.07.13-126.09z" />
		<path d="m367.98 330.01c10.63-4.76 22.94-5.02 33.97-1.48 12.89 3.99 24.62 10.79 36.59 16.86 20.6 10.13 45.09 9.13 66.37 1.66.51 38.95.04 77.94.23 116.9.09 1.39-.11 2.77-.58 4.09-2.72-9.11-7.29-17.55-11.57-26.01-7.19-12.85-15.97-25.35-28.29-33.76-5.82-3.62-12.13-6.38-17.96-9.99-8.21-4.58-16.25-10.33-25.78-11.64-10.96-1.24-20.9 4.87-29.38 11.06-16.16 11.89-30.27 27.63-49.76 34.15-13 4.55-27.22 1.28-39.28-4.46-12.48-5.87-23.86-13.75-34.94-21.9-11.17-8.01-25.69-9.71-39.01-7.71-17.98 2.71-34.75 10.42-50.49 19.25-27.36 15.71-52.09 35.57-75.36 56.76-2.46 2.07-4.43 4.93-7.42 6.26.06-45.9.16-91.8-.05-137.7 13.75-10.65 31.17-16.88 48.65-15.75 17.4.98 33.68 8.79 47.38 19.21 21.9 16.05 48.29 26.99 75.7 27.46 22.53.6 45.03-6.11 64-18.19 12.7-7.82 22.82-19.63 36.98-25.07z" />
		<path d="m390.02 403.87c7.51-5.69 15.49-11.71 25.03-13.23 9.73-1.31 18.21 4.56 26.27 9.08 7.03 4.43 14.66 7.8 21.66 12.25 10.91 7.46 18.66 18.52 25.27 29.76 7.99 14.28 14.24 29.54 18.7 45.27-.47.16-1.41.47-1.88.63.1 15.79.04 31.58.04 47.37-11.1 2.81-19.89 10.44-28.13 17.97-15.02 13.41-28.68 28.23-43.31 42.05-14.61-7.47-29.81-15.92-46.71-15.77-15.9.19-30.21 8.65-42.1 18.54-11.93 10.38-25.88 18.51-40.96 23.37-18.27 6.03-38.16 6.91-56.94 2.78-20.05-4.21-38.58-13.92-54.9-26.13-16.31-11.99-36.54-19.78-57.01-17.89-14.39 1.08-27.99 6.98-39.69 15.23.05-35.07 0-70.14.02-105.21.04-1.05-.19-2.04-.67-2.97 18.32-17.93 37.95-34.58 58.83-49.47 16.87-11.86 34.65-22.74 53.99-30.06 15.02-5.46 31.91-9.15 47.52-3.9 7.66 2.33 13.58 7.9 20.11 12.24 10.53 7.24 21.5 14.11 33.58 18.46 11.54 4.34 24.64 5.24 36.28.75 17.34-6.5 30.75-19.81 45-31.12z" />
		<path d="m8.03 399.91c16.76-6.27 35.37-8.87 52.91-4.43 9.46 2.12 17.72 7.4 26.36 11.55.16 47.72-.15 95.44.13 143.16-26.47-.16-52.95-.02-79.43-.07.02-50.07-.04-100.14.03-150.21z" />
		<path d="m347.12 601.1c11.52-9.6 25.41-18.05 40.9-17.86 15.38.25 29.27 7.83 42.62 14.69-7.03 7.21-14.64 13.84-21.9 20.81-3.56 3.38-3.1 8.69-.99 12.72l-.41.36c-3.38 1.23-6.52 2.99-9.55 4.91-14.98 9.77-27.21 23.26-42.75 32.25-9.72 6-21.44 9.26-32.85 7.31-15.5-2.58-29.21-10.99-42.08-19.57-6.88-4.43-12.95-10.24-20.68-13.22-9.3-3.86-19.68-4.27-29.56-2.97-17.48 2.45-33.74 9.9-49.12 18.24-31.38 17.64-59.15 40.9-85.44 65.3.16-41.2 0-82.41.09-123.61 14.74-12.29 34.51-18.69 53.66-16.36 15.34 1.75 29.63 8.75 41.94 17.84 13.07 9.7 27.55 17.61 43.05 22.67 18.89 6.16 39.38 7.63 58.87 3.57 20.06-4.02 38.73-13.78 54.2-27.08z" />
		<path d="m495.42 603.08c3.3-2.48 6.91-4.51 10.39-6.72l-.69.56c-.01 1.08 0 2.17.03 3.27-3.13 1.3-6.4 2.26-9.73 2.89z" />
		<path d="m485.8 609.06c6.58-.76 13-2.5 19.32-4.46.01 31.13 0 62.27 0 93.4-.03 3.69.25 7.43-.5 11.08-2.83-8.53-7.03-16.52-11.14-24.49-7.55-13.44-16.88-26.62-30.28-34.76-7.77-4.1-15.46-8.33-22.97-12.89 15.65-8.52 30.5-18.4 45.57-27.88z" />
		<path d="m421.9 645.9c4.66-1.72 9.02-4.14 13.43-6.39 3.97.78 7.08 3.65 10.63 5.41 7.06 4.4 15.04 7.35 21.47 12.73 9.16 7.69 16.23 17.55 22.04 27.93 7.76 14.1 13.9 29.12 18.21 44.63-.63.01-1.9.04-2.53.06-.07 9.57 0 19.15-.03 28.73-29.1.01-58.2-.01-87.3 0-.24-13.32-.54-26.63-.74-39.95 4.47-3.48 10.07-6.42 12.02-12.13 1.99-6.11-1.65-12.06-5.02-16.89-5.61-7.91-11.93-15.41-16.17-24.18-1.99-4.24-3.61-9.23-1.72-13.79 1.98-4.9 6.43-8.19 10.63-11.12 1.72 1.61 3.41 3.27 5.08 4.96z" />
		<path d="m350.06 676.06c17.68-8.15 31.11-22.67 46.73-33.88-3.84 5.6-5.63 12.69-4.12 19.4 2.18 10 8.15 18.59 14.05 26.77 3.35 4.83 7.38 9.25 9.83 14.66-2.32 2.11-4.81 4.03-7.44 5.74-17.97-4.58-35.98-9-53.97-13.54-1.23-.47-2.32-.25-3.25.66-25.6 20.9-51 42.04-76.4 63.18-60.05-.17-120.11.08-180.16-.12.25-9.78-.27-19.62.24-29.36 26.73-25.68 55.59-49.6 88-67.81 15.66-8.5 32.41-15.93 50.33-17.67 11.92-1.16 24.57 1.32 34.1 8.88 14.45 10.47 29.55 20.88 46.91 25.83 11.55 3.36 24.26 2.43 35.15-2.74z" />
	</g>
	<path d="m324.22 84.17c34.44-17.88 64.55-42.9 92.75-69.29.25 1.43.51 2.86.75 4.3l.06.4c-23.44 21.89-48.3 42.49-75.74 59.2-14.19 8.47-29.09 16.06-45.1 20.42-13.51 3.73-28.42 4.9-41.67-.43-6.86-2.59-12.35-7.58-18.34-11.63-10.74-7.36-21.93-14.34-34.28-18.67-9.88-3.39-20.91-4.32-30.89-.81-12.35 4.13-22.67 12.4-32.67 20.46-9.95 8.21-19.65 17.22-31.67 22.32-6.45 2.88-13.98 3.28-20.64.87-8.66-3.07-16.15-8.55-24.2-12.85-4.81-2.9-10.11-4.96-14.65-8.32-9.42-6.61-16.6-15.87-22.71-25.5-6.97-11.36-12.64-23.52-17.12-36.06-.22-3.56-.25-7.17.23-10.71 6.91 19.38 14.78 38.82 27.62 55.13 5.62 7.05 12.27 13.58 20.45 17.59 7.16 3.69 14.08 7.82 21.04 11.87 5.18 2.82 10.51 5.9 16.52 6.37 6.1.59 12.03-1.72 17.25-4.66 11.69-6.55 21.17-16.17 31.76-24.24 10.05-7.71 20.97-15.14 33.62-17.63 11.04-2.24 22.46.15 32.7 4.44 13.89 5.92 26.47 14.43 38.56 23.37 7.74 5.84 17.57 8.36 27.18 8.28 17.34-.14 33.85-6.65 49.19-14.22z" fill="#7f7f7f" />
	<path d="m168.43 140.41c19.89-16.99 45.34-27.7 71.6-28.54 29.7-1.27 58.78 10.08 82.41 27.55 12.96 9.78 28.1 17.34 44.45 18.88 18.12 1.89 36.57-4.17 50.87-15.25-.01 1.65-.01 3.29 0 4.94-14.24 10.33-32.13 15.8-49.73 14.37-13.14-.99-25.86-5.58-37.07-12.42-7.34-4.17-13.65-9.89-20.95-14.12-18.6-11.65-40.02-19.28-62.07-20-26.2-1.05-52.35 8.15-72.86 24.32-5 4-9.81 8.27-15.22 11.73-10.48 7.12-23.04 11.93-35.86 11.02-13.31-.86-25.53-6.74-37.24-12.64-7.47-3.57-14.55-8.04-22.49-10.56-14.27-4.62-29.78-4.29-44.28-.85-4 .9-7.86 2.35-11.86 3.27-.04-1.28-.09-2.56-.13-3.83 22.37-8.06 48.52-8.89 69.75 2.93 15.11 7.28 30.03 16.83 47.23 17.75 16.48.87 31.35-8.26 43.45-18.55z" fill="#7f7f7f" />
	<path d="m8.43 258.77c4.84 13.61 9.81 27.27 16.94 39.9 6.28 11.19 13.75 22.09 24.03 29.99 3.83 3.03 8.28 5.11 12.54 7.44 8.58 4.55 16.64 10.05 25.52 14.02.45 17.27.08 34.57.21 51.85-.03 47.66.02 95.32 0 142.98 0 1.74.14 3.52-.24 5.24-.28-47.72.03-95.44-.13-143.16-8.64-4.15-16.9-9.43-26.36-11.55-17.54-4.44-36.15-1.84-52.91 4.43-.01-1.42-.03-2.83-.04-4.24 18.51-6.68 39.23-8.88 58.22-2.85 7.41 2.18 13.89 6.52 20.98 9.46.17-16.04.38-32.11-.1-48.15-10.83-4.36-20.34-11.29-30.73-16.54-8.88-4.15-16.12-11.08-22.27-18.58-11.67-14.67-19.65-31.9-25.97-49.43-.17-3.59-.41-7.27.31-10.81z" fill="#7f7f7f" />
	<path d="m513.12 533.33c6.26-.67 12.61 2.13 16.56 6.98 4.74 5.75 9.05 13.09 7.02 20.83-3.1 13-13.52 22.56-23.63 30.51-2.32 1.72-4.84 3.14-7.26 4.71-3.48 2.21-7.09 4.24-10.39 6.72-3.35 1.77-6.47 3.9-9.62 5.98-15.07 9.48-29.92 19.36-45.57 27.88-1.64.84-3.3 1.64-4.9 2.57-4.41 2.25-8.77 4.67-13.43 6.39-1.67-1.69-3.36-3.35-5.08-4.96-4.2 2.93-8.65 6.22-10.63 11.12-1.89 4.56-.27 9.55 1.72 13.79 4.24 8.77 10.56 16.27 16.17 24.18 3.37 4.83 7.01 10.78 5.02 16.89-1.95 5.71-7.55 8.65-12.02 12.13.2 13.32.5 26.63.74 39.95.04 2.62.08 5.25.14 7.88.11 10.44.6 20.87.46 31.31-66.02 10.74-132.03 21.6-198.25 30.99-8.74 1-17.46 2.76-26.29 2.46 2.61-4.52 7.12-7.42 10.64-11.16 20.03-18.45 40.91-35.95 61.66-53.57 3.13-2.6 6.23-5.22 9.31-7.86 25.4-21.14 50.8-42.28 76.4-63.18.93-.91 2.02-1.13 3.25-.66 17.99 4.54 36 8.96 53.97 13.54 2.63-1.71 5.12-3.63 7.44-5.74-2.45-5.41-6.48-9.83-9.83-14.66-5.9-8.18-11.87-16.77-14.05-26.77-1.51-6.71.28-13.8 4.12-19.4 2.91-4.04 6.84-7.11 10.55-10.36l.41-.36c-2.11-4.03-2.57-9.34.99-12.72 7.26-6.97 14.87-13.6 21.9-20.81 1-.99 2-1.96 3.03-2.91 14.63-13.82 28.29-28.64 43.31-42.05 8.24-7.53 17.03-15.16 28.13-17.97 2.61-.81 5.29-1.36 8.01-1.67z" fill="#c20a0a" />
</svg>
