<svg height="21" viewBox="0 0 140 140" width="21" xmlns="http://www.w3.org/2000/svg">
	<path d="m57.09 20.86c2.85-10.84 12.88-19.24 24.02-20.17 8.34-.01 16.68-.04 25.01.04.63 7.42.24 14.91.18 22.35-6.04.63-12.2-.43-18.19.76-3.54.65-6.3 3.69-6.6 7.29-.93 6.58-.16 13.28-.48 19.91 8.23.29 16.47-.17 24.69.26-.2 8.14-.13 16.3-.06 24.44-8.2.31-16.4-.12-24.59.21-.06 21.06.14 42.12-.15 63.17-8.38.44-16.78.18-25.16.1-.5-21.1.03-42.23-.27-63.33-7.14-.12-14.28-.04-21.43-.04-.07-8.23-.14-16.47.04-24.7 7.07-.09 14.13.06 21.2-.09.54-10.06-.9-20.35 1.79-30.2z" fill="#4d4d4d" />
</svg>
