<svg fill="none" height="160" viewBox="0 0 160 160" width="160" xmlns="http://www.w3.org/2000/svg">
	<path d="m74.8364 151.219c-2.4737-1.89-5.1887-4.071-8.2054-6.522-8.7114-7.168-17.0072-14.823-24.8475-22.926-17.7482-18.364-30.1669-36.5391-34.79248-53.7935-1.28784-4.668-1.95718-9.4833-1.99102-14.3237 0-44.84166 42.3242-65.7571 74.9749-30.9881 32.7911-34.739 75.0251-15.00385 75.0251 31.0081-.038 4.8349-.714 9.6439-2.011 14.3037-4.616 17.2544-17.044 35.4395-34.783 53.7935-7.832 8.108-16.124 15.762-24.837 22.926-2.9664 2.441-5.7217 4.632-8.2054 6.522-1.4983 1.14-2.5743 1.931-3.1575 2.351l-2.0111 1.43-2.0011-1.43c-.5832-.42-1.6592-1.211-3.1575-2.351z" fill="#c12026" stroke="#c12026" stroke-linecap="round" stroke-linejoin="round" stroke-width=".25" />
</svg>
