<svg height="757pt" viewBox="0 0 717 757" width="717pt" xmlns="http://www.w3.org/2000/svg">
	<path d="m .93 4.13c110.9 0 221.8-.01 332.71 0-.03 110.95-.02 221.91-.01 332.86-110.91.02-221.82.01-332.73.01-.11-1.68-.22-3.35-.25-5.01.03-102.98-.01-205.96.02-308.93.06-6.31-.27-12.64.26-18.93m7.71 8c-.04 105.66-.01 211.33-.02 317 105.68-.06 211.35.09 317.03-.08-.05-105.64-.03-211.28-.01-316.92-105.67 0-211.34-.01-317 0z" />
	<path d="m338.87 303.96c-.94-5.61 9.69-6.23 9.72-.88.09 13.09 0 26.19.04 39.29 12.8.02 25.6 0 38.4 0 5.97-.97 5.89 10.57-.04 9.74-12.78.03-25.57 0-38.35.01-.05 12.95.01 25.89-.02 38.84.38 5.37-10.07 5.29-9.74.04-.03-12.96.02-25.91-.01-38.87-12.98-.05-25.96.06-38.94-.05-2.19.23-4.09-1.84-3.71-4-.28-2.21-.06-5.43 2.82-5.63 13.27-.19 26.55 0 39.83-.09.01-12.8-.01-25.6 0-38.4z" />
	<path d="m .68 359.96c-.96-3.71 3.23-2.42 5.35-2.6 109.19.04 218.39-.01 327.58.03.06 110.87-.06 221.74.06 332.6-110.94.3-221.89.05-332.84.13-.43-17.68-.08-35.37-.15-53.06-.02-92.37-.04-184.74 0-277.1m7.98 5.29c-.09 105.67 0 211.34-.04 317.01 105.65-.03 211.31 0 316.97-.02.1-105.66-.02-211.33.05-317-105.66.02-211.32.01-316.98.01z" />
	<path d="m353.95 357.35c110.93.07 221.86-.01 332.78.04.06 34.1-.02 68.2.05 102.29-2.73.72-5.39 1.64-8.01 2.64-.05-32.35-.01-64.71-.02-97.07-105.62 0-211.23 0-316.85 0-.06 105.67 0 211.33-.03 317 31.65-.02 63.29.02 94.94-.02-3.14 2.62-6.27 5.25-9.4 7.88-31.18.03-62.35.01-93.53.01.04-110.93-.11-221.85.07-332.77z" />
	<path d="m678.74 525.42c2.65-1.68 5.33-3.31 8-4.98.03 56.56 0 113.13.01 169.69-29.92-.03-59.85 0-89.77-.01-.06-2.63-.11-5.25-.16-7.87 27.31-.01 54.62 0 81.93 0-.01-52.28.01-104.55-.01-156.83z" />
	<g fill="#fff">
		<path d="m8.64 12.13c105.66-.01 211.33 0 317 0-.02 105.64-.04 211.28.01 316.92-105.68.17-211.35.02-317.03.08.01-105.67-.02-211.34.02-317z" />
		<path d="m8.66 365.25c105.66 0 211.32.01 316.98-.01-.07 105.67.05 211.34-.05 317-105.66.02-211.32-.01-316.97.02.04-105.67-.05-211.34.04-317.01z" />
		<path d="m361.9 365.25h316.85c.01 32.36-.03 64.72.02 97.07-5.41 1.97-10.15 5.32-14.56 8.95-15.92 12.98-29.83 28.15-44.5 42.47-9.54 8.81-18.44 18.29-28.22 26.84-2.54 2.33-5.61 4.71-6.21 8.33-.69 2.83.62 5.55 1.65 8.11-7.48 5.12-14.63 12.37-15.55 21.84-1.18 11.34 5.18 21.52 11.32 30.47 4.14 6.35 9.76 11.73 12.83 18.76-2.33 2.16-4.84 4.12-7.44 5.95-18.61-4.62-37.2-9.3-55.8-13.94-25.29 20.55-50.43 41.28-75.48 62.13-31.65.04-63.29 0-94.94.02.03-105.67-.03-211.33.03-317z" />
		<path d="m630 556.19c16.49-9.87 32.47-20.55 48.74-30.77.02 52.28 0 104.55.01 156.83-27.31 0-54.62-.01-81.93 0-.21-12.65-.57-25.29-.71-37.94 4.7-3.51 10.62-6.71 12.23-12.81 1.58-6.28-2.41-12.03-5.81-16.93-5.11-6.98-10.43-13.86-14.69-21.41-2.38-4.5-4.67-9.69-3.33-14.87 1.87-5.36 6.57-8.94 11.05-12.07 1.99 1.57 3.65 4.15 6.12 4.76 9.88-4.02 19.1-9.47 28.32-14.79z" />
	</g>
	<path d="m686.78 459.68c5.54-1.34 11.88-1.63 16.87 1.6 5.07 3.35 8.56 8.61 11.16 14.01 3.14 7.54.18 15.97-4.08 22.42-6.2 9.22-14.66 16.79-23.99 22.73-2.67 1.67-5.35 3.3-8 4.98-16.27 10.22-32.25 20.9-48.74 30.77-9.22 5.32-18.44 10.77-28.32 14.79-2.47-.61-4.13-3.19-6.12-4.76-4.48 3.13-9.18 6.71-11.05 12.07-1.34 5.18.95 10.37 3.33 14.87 4.26 7.55 9.58 14.43 14.69 21.41 3.4 4.9 7.39 10.65 5.81 16.93-1.61 6.1-7.53 9.3-12.23 12.81.14 12.65.5 25.29.71 37.94.05 2.62.1 5.24.16 7.87.23 11.13.44 22.26.67 33.39-25.05 4.13-50.13 8.16-75.2 12.19-48.09 7.54-96.15 15.4-144.47 21.3h-5.95c7.98-9.3 17.61-17.03 26.66-25.26 16.04-14.11 32.36-27.9 48.72-41.63 3.13-2.63 6.26-5.26 9.4-7.88 25.05-20.85 50.19-41.58 75.48-62.13 18.6 4.64 37.19 9.32 55.8 13.94 2.6-1.83 5.11-3.79 7.44-5.95-3.07-7.03-8.69-12.41-12.83-18.76-6.14-8.95-12.5-19.13-11.32-30.47.92-9.47 8.07-16.72 15.55-21.84-1.03-2.56-2.34-5.28-1.65-8.11.6-3.62 3.67-6 6.21-8.33 9.78-8.55 18.68-18.03 28.22-26.84 14.67-14.32 28.58-29.49 44.5-42.47 4.41-3.63 9.15-6.98 14.56-8.95 2.62-1 5.28-1.92 8.01-2.64z" fill="#c20a0a" />
</svg>
