<svg height="699pt" viewBox="0 0 667 699" width="667pt" xmlns="http://www.w3.org/2000/svg">
	<path d="m0 0h307.4c-.08 102.41.01 204.81-.05 307.22-100.79.08-201.58-.01-302.38.04-1.64-.24-3.78.68-4.97-.87zm7.49 7.4c.02 97.48.03 194.97-.01 292.45 97.55.05 195.1.02 292.65.01-.02-70.97 0-141.93-.01-212.9-.1-26.54.21-53.09-.16-79.62-97.49.1-194.98-.02-292.47.06z" />
	<path d="m312.37 276.08c-.35-4.7 9.12-4.76 8.85-.07.08 12.01-.01 24.03.04 36.05 11.93.15 23.87.03 35.81.06 5.06-.44 5.05 9.51 0 8.99-11.94.02-23.89.02-35.83 0 .02 11.96.01 23.92.01 35.89.63 4.9-9.45 4.99-8.88.04 0-11.97.01-23.93 0-35.9-12.17-.08-24.35.06-36.53-.07-4.72-.41-4.05-9.85 1.04-8.94 11.84-.01 23.67 0 35.51 0-.03-12.02-.01-24.04-.02-36.05z" />
	<path d="m0 326.21c2.65-.26 5.31-.25 7.97-.21 99.8.02 199.6-.03 299.4.02 0 102.37.02 204.73-.01 307.1-100.12.01-200.23-.01-300.35.01-2.34-.05-4.74.25-7.01-.48zm7.46 7.13c.11 97.51 0 195.02.05 292.53 97.54 0 195.08.02 292.62 0 .01-97.54-.07-195.08.04-292.62-97.57.06-195.15-.12-292.71.09z" />
	<path d="m326.14 326c102.41.01 204.82-.03 307.23.02.01 33.51-.01 67.01.01 100.52-2.54.96-5.08 1.95-7.39 3.39.02-32.22 0-64.44.01-96.67-97.51.03-195.04-.11-292.55.08.11 97.5.03 195 .04 292.5 32.91.1 65.81-.04 98.72.07-2.84 2.44-5.79 4.75-8.61 7.21-32.49.02-64.98-.02-97.46.02-.02-102.38-.02-204.76 0-307.14z" />
	<path d="m343.3 474.64c40.9-40.74 81.63-81.67 122.52-122.42 1.76 1.74 3.55 3.45 5.22 5.28-40.81 40.77-81.65 81.52-122.35 122.4-1.94-1.6-3.62-3.48-5.39-5.26z" />
	<path d="m385.03 474.48c40.89-40.64 81.55-81.51 122.35-122.23 1.72 1.72 3.44 3.44 5.17 5.16-40.76 40.82-81.54 81.62-122.37 122.37-1.76-1.74-3.56-3.42-5.15-5.3z" />
	<path d="m36.44 363.13c57.76-.29 115.54-.06 173.31-.12 0 2.48.07 4.97-.12 7.45-57.71-.19-115.42-.03-173.13-.08.01-2.42.01-4.84-.06-7.25z" />
	<path d="m65.79 392.7c20.36-.48 40.78-.06 61.16-.2 36.99.01 73.98-.02 110.97.01.32.05.96.14 1.28.19-.1 2.35-.01 4.71-.2 7.07-57.73-.05-115.46-.01-173.19-.02.09-2.35.11-4.7-.02-7.05z" />
	<path d="m625.99 489.1c2.47-1.56 4.91-3.17 7.39-4.71-.03 49.57.01 99.15-.02 148.73-25.58.01-51.16-.01-76.73.01-.07-2.43-.12-4.85-.14-7.27 23.17.02 46.34.02 69.51 0 0-45.58.01-91.17-.01-136.76z" />
	<g fill="#fff">
		<path d="m7.49 7.4c97.49-.08 194.98.04 292.47-.06.37 26.53.06 53.08.16 79.62.01 70.97-.01 141.93.01 212.9-97.55.01-195.1.04-292.65-.01.04-97.48.03-194.97.01-292.45z" />
		<path d="m7.46 333.34c97.56-.21 195.14-.03 292.71-.09-.11 97.54-.03 195.08-.04 292.62-97.54.02-195.08 0-292.62 0-.05-97.51.06-195.02-.05-292.53m28.98 29.79c.07 2.41.07 4.83.06 7.25 57.71.05 115.42-.11 173.13.08.19-2.48.12-4.97.12-7.45-57.77.06-115.55-.17-173.31.12m29.35 29.57c.13 2.35.11 4.7.02 7.05 57.73.01 115.46-.03 173.19.02.19-2.36.1-4.72.2-7.07-.32-.05-.96-.14-1.28-.19-36.99-.03-73.98 0-110.97-.01-20.38.14-40.8-.28-61.16.2z" />
		<path d="m333.45 333.34c97.51-.19 195.04-.05 292.55-.08-.01 32.23.01 64.45-.01 96.67-13.07 8.99-24.09 20.56-35.39 31.6-13.84 13.86-27.83 27.58-42.28 40.8-3.22 3.26-3.15 8.26-.87 12.04-7.26 5-14.04 12.38-14.45 21.63-.49 10.95 6.17 20.35 12.12 28.94 3.35 5.09 7.71 9.51 10.3 15.09-2.22 1.98-4.62 3.76-7.11 5.4-17.12-4.27-34.22-8.62-51.36-12.8-21.63 17.7-43.29 35.37-64.74 53.28-32.91-.11-65.81.03-98.72-.07-.01-97.5.07-195-.04-292.5m9.85 141.3c1.77 1.78 3.45 3.66 5.39 5.26 40.7-40.88 81.54-81.63 122.35-122.4-1.67-1.83-3.46-3.54-5.22-5.28-40.89 40.75-81.62 81.68-122.52 122.42m41.73-.16c1.59 1.88 3.39 3.56 5.15 5.3 40.83-40.75 81.61-81.55 122.37-122.37-1.73-1.72-3.45-3.44-5.17-5.16-40.8 40.72-81.46 81.59-122.35 122.23z" />
		<path d="m560.59 527.46c23.25-10.14 43.97-24.99 65.4-38.36.02 45.59.01 91.18.01 136.76-23.17.02-46.34.02-69.51 0-.22-10.35-.32-20.71-.65-31.07 4.79-3.63 11.21-7.12 11.71-13.84.13-7.25-5.23-12.82-9.15-18.37-5.14-7.33-11.18-14.58-13.13-23.53-1.36-7.14 4.82-12.38 9.99-16.08 1.8 1.46 3.58 2.95 5.33 4.49z" />
	</g>
	<path d="m633.38 426.54c6.17-2.32 13.23-4.26 19.62-1.62 5.85 2.57 9.63 8.18 12.35 13.74 2.9 6.3.9 13.6-2.5 19.28-6.86 11.59-17.99 19.81-29.47 26.45-2.48 1.54-4.92 3.15-7.39 4.71-21.43 13.37-42.15 28.22-65.4 38.36-1.75-1.54-3.53-3.03-5.33-4.49-5.17 3.7-11.35 8.94-9.99 16.08 1.95 8.95 7.99 16.2 13.13 23.53 3.92 5.55 9.28 11.12 9.15 18.37-.5 6.72-6.92 10.21-11.71 13.84.33 10.36.43 20.72.65 31.07.02 2.42.07 4.84.14 7.27.22 11.62.48 23.23.64 34.85-18.4 3.2-36.87 6.01-55.29 9.07-43.58 6.85-87.14 13.97-130.87 19.82-4.67.79-9.51.71-14.04 2.13h-7.92c2-2.89 4.59-5.29 7.15-7.67 21.77-20.15 44.53-39.21 67.3-58.21 2.82-2.46 5.77-4.77 8.61-7.21 21.45-17.91 43.11-35.58 64.74-53.28 17.14 4.18 34.24 8.53 51.36 12.8 2.49-1.64 4.89-3.42 7.11-5.4-2.59-5.58-6.95-10-10.3-15.09-5.95-8.59-12.61-17.99-12.12-28.94.41-9.25 7.19-16.63 14.45-21.63-2.28-3.78-2.35-8.78.87-12.04 14.45-13.22 28.44-26.94 42.28-40.8 11.3-11.04 22.32-22.61 35.39-31.6 2.31-1.44 4.85-2.43 7.39-3.39z" fill="#c20a0a" />
</svg>
