<svg height="21" viewBox="0 0 140 140" width="21" xmlns="http://www.w3.org/2000/svg">
	<path d="m7.58 3.38c41.76-.02 83.52.04 125.28-.03 3.97 3.18 6.63 7.8 7.14 12.9v107.09c-.46 5.08-3.1 9.66-6.98 12.9-41.77.06-83.55-.08-125.32.07-4.7-3.62-7.38-9.4-7.19-15.34-.03-31.99.01-63.98-.02-95.98.03-4.92-.4-10.1 1.67-14.72 1.15-2.75 3.32-4.86 5.42-6.89m91.75 12.9c-2.13 1.03-3.51 3.32-3.44 5.68-.06 5.04-.09 10.1.02 15.14-.02 3.19 2.84 6.1 6.05 6.01 5.36.1 10.74.1 16.1 0 3.72.13 6.43-3.55 6.15-7.07-.15-5.31.43-10.69-.35-15.95-.93-3.9-5.35-4.93-8.83-4.52-5.2.39-10.67-.78-15.7.71m-36.99 27.25c-10.84 3.05-19.48 13.19-19.87 24.58-.78 10.75 5.91 21.28 15.6 25.76 11.38 5.61 26.36 2.46 34.29-7.51 6.8-8.08 7.99-20.3 2.8-29.51-6.03-11.47-20.53-17-32.82-13.32m-46.22 15.61c.01 19.65-.07 39.29.04 58.94-.19 3.12 2.76 5.72 5.81 5.44 32 .04 64.01 0 96.02.02 3.58.43 6.71-2.92 6.3-6.45-.01-19.32 0-38.64-.01-57.95-4.06-.01-8.13 0-12.2-.03 1.34 5.6 2.26 11.4 1.29 17.14-1.51 12.94-9.76 24.65-21.05 31.01-11.5 6.58-25.99 7.56-38.28 2.64-10.84-4.22-19.87-13-24.09-23.87-3.41-8.51-3.74-18.15-1.13-26.91-4.23.02-8.47.01-12.7.02z" fill="#4d4d4d" />
</svg>
