<svg height="61" viewBox="0 0 458 449" width="61" xmlns="http://www.w3.org/2000/svg">
	<path d="m157.3 0h1.38c1.58 1.77 4.03 2.14 6.11 3.05 15.73 6.09 31.54 12 47.2 18.25-42.46 142.27-84.51 284.67-126.94 426.96-28.33-8.63-56.78-16.86-85.05-25.67v-.28c.16.05.48.16.64.21 51.79-139.82 103.49-279.67 155.24-419.51.44-1.02.91-2.02 1.42-3.01z" fill="#c20a0a" />
	<path d="m402.34 0h1.35c.38.3 1.14.91 1.51 1.21 17.34 6.63 34.66 13.3 51.98 19.99-42.2 142.33-84.62 284.61-126.74 426.97-28.27-8.22-56.42-16.89-84.64-25.28 52.16-140.97 104.2-281.99 156.54-422.89z" fill="#c20a0a" />
</svg>
