<svg height="21" viewBox="0 0 140 140" width="21" xmlns="http://www.w3.org/2000/svg">
	<path d="m46.67 35.55c1.5-2.15 3.42-4.47 6.31-4.41 8.01-.17 16.06-.23 24.07.02 2.74-.01 4.45 2.59 4.58 5.09.56 9.27-.25 18.58.39 27.84-.03 2.61 2.09 4.21 3.95 5.63 8.68-6.61 13.61-16.8 18.18-26.44 1.75-3.17 2.15-7.87 5.85-9.42 5.96-.64 11.98-.06 17.96-.26 4.07.16 8.77-.83 12.04 2.23v1.97c-2.97 11.02-11.4 19.28-17.72 28.44-2.4 3.47-7.11 7.89-3.96 12.29 6.78 7.96 15.95 14.09 20.81 23.59 1.49 2.5.83 6.74-2.34 7.46-5.24.51-10.51.04-15.77.2-4.9-.07-10.31.72-14.6-2.25-5.65-3.9-9.25-9.99-14.45-14.38-1.73-1.48-4.58-2.73-6.45-.75-3.62 3.88-2.95 9.5-3.92 14.3-.75 2.84-4.16 2.99-6.56 3.09-11.99.67-24.39-2.37-33.94-9.86-7.08-5.28-12.57-12.32-17.53-19.54-7.75-11.35-14.27-23.51-19.96-36.02-1.04-2.37-2.06-4.77-3.61-6.86v-1.29c1.41-1.26 2.94-2.75 5-2.52 6.67-.11 13.36-.22 20.03.06 3.13-.01 4.76 2.99 5.81 5.49 3.69 8.81 8.25 17.28 13.9 24.99 1.61 2.2 3.54 4.38 6.25 5.18 2.22-.09 3.25-2.57 3.66-4.43 1.13-6.26 1.21-12.68.55-18.99-.32-2.41-.43-5.07-2.08-7.03-1.57-2-4.23-2.49-6.45-3.42z" fill="#4d4d4d" />
</svg>
