<svg height="21" viewBox="0 0 140 140" width="21" xmlns="http://www.w3.org/2000/svg">
	<path d="m3.39 19.41c4.09-9.22 12.68-16.35 22.57-18.45 4.59-1.1 9.34-.82 14.02-.84 22.34.01 44.67 0 67 0 8.18-.03 16.37 2.94 22.37 8.53 6.28 5.56 9.98 13.66 10.65 21.98v79.2c-1.12 10.79-7.58 20.97-17.3 25.96-6.57 3.74-14.33 3.92-21.67 4.21h-66.58c-7.29-.56-14.78-2.19-20.68-6.76-8.3-5.99-13.24-16.07-13.24-26.27-.08-23.98.01-47.97-.05-71.96-.01-5.31.65-10.74 2.91-15.6m45 21.05c-3.43 1.25-4.82 5.15-4.68 8.54.01 14.68-.14 29.36.05 44.04.03 5.25 6.66 8.38 11 5.75 13.83-7.14 27.63-14.36 41.42-21.59 3.5-1.47 6.06-5.38 4.87-9.2-.57-2.47-2.72-4.07-4.83-5.21-13.03-6.98-26.12-13.88-39.14-20.87-2.62-1.34-5.78-2.86-8.69-1.46z" fill="#4d4d4d" />
</svg>
