<?xml version="1.0" encoding="UTF-8" ?>
<!DOCTYPE svg PUBLIC "-//W3C//DTD SVG 1.1//EN" "http://www.w3.org/Graphics/SVG/1.1/DTD/svg11.dtd">
<svg width="31pt" height="56pt" viewBox="0 0 31 56" version="1.1" xmlns="http://www.w3.org/2000/svg">
<g id="#595959ff">
</g>
<g id="#f9f9f9ff">
<path fill="#f9f9f9" opacity="1.00" d=" M 23.85 3.86 C 24.95 2.80 26.04 1.73 27.13 0.66 C 28.42 0.64 29.71 0.61 31.00 0.59 L 31.00 4.50 C 23.16 11.55 16.21 19.54 8.35 26.57 C 8.34 27.48 8.33 28.39 8.33 29.30 C 16.37 36.10 23.13 44.26 31.00 51.25 L 31.00 55.27 C 29.68 55.26 28.36 55.25 27.04 55.24 C 19.11 47.11 11.08 39.07 2.94 31.15 C 2.06 30.19 0.90 29.33 0.57 28.00 C 1.33 25.57 3.73 24.20 5.40 22.41 C 11.54 16.23 17.81 10.16 23.85 3.86 Z" />
</g>
</svg>
