<svg fill="none" height="30" viewBox="0 0 37 30" width="37" xmlns="http://www.w3.org/2000/svg">
	<g fill="#c20a0a">
		<path d="m .685944.0280037c-.0056.0149326-.026132.027998-.046665.027998-.050398 0-.244523.1101283-.309854.1773263-.06533.06533-.177325.259455-.177325.307987 0 .018665-.007467.041065-.018666.046665-.024266.014933-.024266.358383 0 .373318.011199.005598.018666.026133.018666.046662 0 .09706.188525.33972.326653.42185.162393.09333.087729.09146 2.155907.10266 1.07329.0056 1.98045.0168 2.01592.02427.14559.028.22026.05226.36398.11386.30052.1288.54131.30986.75411.56558.12319.14933.25572.37145.28372.47971.01493.05413.03546.13066.07279.26132.0112.03547.028.09707.0392.1344.02427.0896.05227.18479.07467.26132.00933.0336.02613.09146.03546.12693.0112.03546.028.09519.03733.13066.0112.03547.02614.09333.03547.12506.00933.0336.0448.14933.07653.25759s.0672.22399.07653.25572c.00933.0336.02426.0896.0336.12133.00933.0336.04479.14933.07653.25759.03173.10826.06719.22399.07653.25572.00933.0336.02426.0896.0336.12133.00933.0336.04479.14933.07653.25759.03173.10826.06719.22586.07653.26132.03173.11386.05039.17173.11012.37332.03174.10826.06534.22026.07467.25199.00933.02987.0336.11386.056.18666.0224.07093.04853.16053.05786.19599.03173.11386.0504.17173.11013.37332.03173.10826.0672.22586.07653.26132.03173.11386.0504.17173.11013.37332.03173.10826.0672.22399.07653.25572.00933.0336.02426.0896.0336.12133.00933.0336.04479.14933.07653.25759.03173.10826.06533.22026.07466.25199.00933.02987.0336.11386.056.18666.0224.07093.04853.16053.05786.19599.03173.11386.0504.17173.11013.37332.03173.10826.0672.22399.07653.25572.00933.0336.02427.0896.0336.12133.00933.0336.0448.14933.07653.25759s.0672.22397.07653.25577c.00933.0336.02427.0895.0336.1213.00933.0336.0448.1493.07653.2576.03173.1082.0672.2258.07653.2613.03173.1139.0504.1717.11013.3733.03173.1083.06719.224.07653.2557.00933.0336.02426.0896.0336.1214.00933.0336.05226.1792.09519.3229s.08586.2912.0952.3266c.03173.1139.0504.1718.11013.3734.03173.1082.06719.2239.07653.2557.00933.0336.02613.0914.03546.1269.0112.0355.028.0952.03733.1307.0112.0354.02614.0933.03547.125.00933.0336.05226.1792.0952.3229.04293.1438.08586.2894.09519.3211.00933.0336.02613.0915.03547.1269.0112.0355.028.0971.0392.1344.03546.1269.05039.1792.12879.4443.04293.1437.08586.2912.0952.3266.01119.0355.02613.0934.03733.1251.0224.0784.04853.1736.07466.2613.00933.0392.02613.0952.03547.1269.00933.0299.02426.0859.03546.1214.00933.0354.02613.0952.03733.1306.00934.0355.02613.0952.03733.1307.00934.0354.02614.0952.03734.1306.00933.0355.028.0971.03733.1344.0112.0392.02986.1027.04106.14.00934.0392.02614.099.03738.1307.0093.0336.0261.0915.0354.1269.0112.0355.028.0952.0374.1307.0112.0355.028.097.0392.1344.0093.0392.0261.0989.0373.1306.0093.0336.0261.0934.0373.1307.0093.0392.0261.0952.0355.1269.028.0971.0578.2035.0746.2707.0094.0355.0262.0989.0374.14.0112.041.028.1045.0373.14.0093.0354.0336.1325.056.2146.0224.0822.0485.183.056.224.0093.0411.0243.1083.0355.1493.0168.0691.0261.1046.0765.28.0112.0355.0261.0934.0355.1251.0952.3453.3135.8698.5282 1.2711.5021.9333 1.2469 1.6501 2.0775 2.001.0411.0168.0915.0392.112.0486.0205.0074.0971.0336.168.056.0728.0224.1475.0466.168.056.056.0205.2464.0597.476.097.1064.0168 1.9487.0224 7.569.0224h7.429l.127-.0597c.3751-.1792.5431-.6328.3677-1.0042-.0915-.1942-.239-.3342-.4275-.4088-.0765-.0299-.5264-.0318-7.2983-.0318-6.1953.0019-7.2499-.0018-7.4496-.0261-.2632-.0299-.4144-.0616-.5226-.1064-.0262-.0112-.0635-.0261-.084-.0336-.2651-.1026-.5395-.2856-.7747-.5226-.1381-.14-.392-.448-.392-.4779 0-.0056-.0242-.0448-.0541-.0877-.1101-.1605-.2912-.5133-.377-.7373-.0094-.0224-.0243-.0597-.0336-.084-.0094-.0224-.028-.0747-.0411-.1157-.0131-.0411-.0317-.0859-.0429-.099-.0094-.013-.0112-.028-.0056-.0354.0074-.0056 3.6995-.0094 8.2055-.0075 8.1589.0037 8.5359.0019 8.9801-.0579.743-.0989 1.232-.3546 1.6184-.8511.2669-.3397.7112-1.1312 1.0453-1.861.0429-.0933.112-.2408.153-.3323.1979-.4218.2259-.4834.2259-.489 0-.0037.0317-.0765.0728-.1624.0392-.084.1493-.3267.2445-.5376s.2128-.4704.2613-.5786c.1139-.2483.4387-.9781.9781-2.1933.2334-.5245.448-1.0042.4797-1.0695.0299-.0653.0542-.1213.0542-.1269 0-.0038.0336-.08031.0746-.16804.0411-.08773.0747-.16426.0747-.16799 0-.00747.9968-2.25111 1.0994-2.47697.0317-.06906.0579-.12879.0579-.13252 0-.00374.0336-.08213.0765-.1736.0747-.16426.0896-.19785.1661-.36958.0392-.09146.0784-.17733.1736-.38265.0795-.17479.1627-.35731.2166-.54131.0242-.07653.0504-.1568.0578-.17733.0629-.16882.0956-.33789.1307-.51331.0504-.25199.0634-.40505.0634-.71864 0-.18479-.0093-.38265-.0205-.43864-.0467-.21653-.0597-.26693-.1008-.36959-.0093-.0224-.0243-.0616-.0355-.08773-.0429-.10826-.069-.15493-.1381-.26132-.1754-.26506-.3752-.44612-.6514-.58798-.2352-.11946-.3677-.16052-.7317-.22399-.1419-.02427-23.8289-.028-23.911-.00373-.2221.06533-.3883.20532-.4891.41065-.0634.12506-.0709.16052-.0784.30798-.0037.13627.0019.18666.0355.27999.0523.14.1251.25013.224.33412.0672.05973.1195.08773.2893.16613.0467.0224 1.8983.02613 11.9499.02987l11.8958.00373.0858.04293c.1382.06906.1867.19972.168.46478-.013.22586-.0354.35092-.1008.59544-.0261.09706-.1138.35652-.1437.41998-.0597.13627-.125.27999-.1848.40505-.0336.07467-.084.18293-.1101.23893-.0243.05599-.0728.16052-.1064.23332-.0336.07093-.1083.23892-.168.37332-.0597.13253-.1307.29305-.1587.35465s-.0615.13626-.0746.16799c-.0149.02987-.0597.13067-.1008.22026-.0429.09146-.0765.16986-.0765.17359 0 .0056-.0336.08027-.0747.168s-.0747.16426-.0747.16799-.0205.0504-.0448.10453c-.0242.05413-.0634.13999-.0858.19226-.0224.0504-.0523.11759-.0654.14933-.0149.02986-.2445.55064-.5133 1.15728-.2688.60482-.5114 1.15352-.5432 1.21892-.0298.0653-.0541.1213-.0541.1269 0 .0037-.0336.0803-.0746.168-.0411.0877-.0747.1642-.0747.168 0 .0056-.0336.0802-.0747.168-.041.0877-.0746.1642-.0746.168 0 .0037-.0262.0634-.0579.1325-.0317.0709-.1568.349-.2781.6216-.2427.545-.2912.6533-.3845.8549-.0355.0765-.0635.14-.0635.1437s-.0373.084-.0821.181c-.0448.0952-.1083.2371-.1419.3136-.0523.1176-.2259.5021-.4349.952-.3621.7877-.6272 1.2879-.9034 1.7023-.1643.2483-.3174.3379-.6888.4051-.0803.0149-2.589.0205-8.7543.0205h-8.6405l-.0223-.0504c-.0112-.0299-.0262-.0784-.0318-.1083-.0168-.0709-.041-.1661-.0672-.2613-.0112-.041-.028-.1045-.0373-.14-.0093-.0354-.0261-.0989-.0373-.14-.0112-.041-.028-.1045-.0374-.14-.0093-.0354-.0261-.0989-.0373-.14-.0112-.041-.028-.1045-.0373-.1399-.0094-.0355-.0262-.099-.0374-.14-.0112-.0411-.028-.1046-.0373-.14-.0075-.0355-.028-.1139-.0448-.1736-.0261-.0952-.0616-.2222-.1045-.3771-.0094-.0317-.028-.1026-.043-.1586-.0168-.056-.0429-.1531-.0597-.2147-.0411-.1475-.056-.2016-.0915-.3304-.0168-.0597-.0429-.1549-.0578-.2109-.015-.056-.0411-.1493-.056-.2053s-.0411-.1512-.0579-.211c-.0168-.0578-.0354-.1325-.0448-.1623-.0093-.0318-.028-.1046-.0448-.1643-.0168-.0579-.0429-.1549-.0597-.2147-.0168-.0578-.0373-.1344-.0467-.168-.0093-.0317-.0242-.0877-.0336-.1213-.0093-.0317-.0317-.1101-.0485-.1717s-.0467-.1717-.0672-.2427c-.0205-.0728-.0448-.1642-.056-.2053s-.028-.0952-.0355-.1213c-.0149-.0467-.0261-.0878-.0933-.336-.0672-.2483-.0784-.2893-.0933-.336-.0075-.0261-.0243-.0803-.0355-.1213-.0112-.0411-.0448-.168-.0765-.28-.0635-.2296-.0915-.3285-.1139-.4107-.00931-.0317-.05038-.1773-.09144-.3266-.0784-.28374-.1064-.38267-.13253-.47599-.00933-.03174-.04293-.14933-.0728-.26133-.08586-.31545-.09706-.35092-.11199-.40131-.01493-.04667-.02613-.08773-.09333-.33599s-.0784-.28932-.09333-.33599c-.00747-.02613-.02427-.08026-.03546-.12132-.0112-.04107-.05414-.196-.0952-.34532-.04107-.14933-.084-.30426-.0952-.34532-.0112-.04107-.028-.0952-.03546-.12133-.00747-.02613-.02427-.08026-.03547-.12133-.0112-.04106-.05413-.19599-.09519-.34532-.04107-.14932-.084-.30425-.0952-.34532-.0112-.04106-.028-.09519-.03546-.12133-.00747-.02613-.02427-.08026-.0336-.12132-.0112-.04107-.03734-.1344-.05787-.20533-.02053-.0728-.056-.19412-.07653-.27065-.0728-.26879-.07839-.28933-.09333-.33599-.00746-.02613-.02426-.08026-.0336-.12133-.0112-.04106-.03733-.13439-.05786-.20532-.02053-.0728-.056-.19413-.07653-.27066-.0728-.26879-.0784-.28932-.09333-.33598-.00747-.02614-.02426-.084-.03733-.13067-.01307-.04666-.02987-.10452-.03733-.13066-.00747-.02613-.02427-.08026-.03547-.12133-.0112-.04106-.03546-.13439-.056-.20532-.02053-.0728-.05039-.18106-.06719-.24266-.0448-.15866-.06533-.23519-.084-.29865-.00933-.03173-.02427-.08586-.03546-.12133-.00934-.03547-.03547-.12879-.05787-.20532-.02053-.07653-.056-.20346-.07653-.27999-.0392-.14373-.0616-.22586-.09333-.33225-.01866-.06533-.03173-.11387-.0896-.32106-.02239-.07653-.05599-.20346-.07839-.27999-.0616-.21839-.0672-.24452-.10266-.37332-.09893-.37891-.39012-.782094-.72237-1.004218-.1456-.097063-.44052-.24639-.48532-.24639-.0168 0-.03546-.009334-.04106-.018667-.0056-.0112-.03547-.018667-.06533-.018667-.02987 0-.05973-.009331-.06533-.018663-.0056-.0112-.03547-.018668-.06347-.018668s-.05786-.007465-.06906-.016798c-.00933-.009332-.05413-.0224-.1008-.028-.04666-.007465-.13812-.020532-.20532-.0298667-.0672-.0111981-.22213-.0261307-.34345-.033596-.14186-.0112-.22586-.0242672-.23146-.0373326-.0056-.01679991-.55064-.02239989-2.21564-.02239989-1.944988 0-2.210043.00373459-2.219376.02799989z" />
		<path d="m13.8905 22.9217c-.0261.0075-.0784.015-.1157.0168-.0803.0019-.2427.0374-.4536.0971-.9762.28-1.7714.9482-2.2213 1.8666-.1605.3322-.2501.6234-.3285 1.0695-.0298.1774-.0298.7653 0 .9632.1288.8269.4611 1.4914 1.0266 2.0533.3435.3415.7448.6029 1.2152.7877.0261.0112.0616.0261.0784.0354.0187.0094.0504.0168.0691.0168.0205 0 .0429.0075.0485.0187.0056.0093.0355.0187.0653.0187.0299 0 .0579.0074.0635.0168.0056.0093.0373.0205.0709.0261s.1045.0205.1549.0317c.2128.0467.3939.0616.7467.0597.405 0 .5973-.0205.9053-.097.0466-.0112.1064-.0261.1362-.0317.028-.0056.056-.0168.0616-.0262.0056-.0093.0262-.0168.0467-.0168.0187 0 .0504-.0074.0691-.0168.0298-.0149.0746-.0336.1773-.0746.4461-.1774.937-.5302 1.2823-.9203.4387-.4965.7261-1.0957.8437-1.7695.0299-.1587.0299-1.0173 0-1.1759-.1437-.8157-.5357-1.5251-1.133-2.057-.1792-.1587-.4088-.3285-.588-.4331-.1605-.0933-.5095-.2538-.5506-.2538-.0131 0-.0317-.0094-.0373-.0187-.0056-.0112-.0318-.0187-.056-.0187-.0243 0-.0486-.0074-.0542-.0168-.0056-.0093-.0336-.0205-.0616-.0261-.0298-.0056-.0896-.0205-.1362-.0317-.14-.0355-.2464-.0579-.364-.0766-.1419-.0242-.8997-.0373-.9613-.0168zm.797 1.4765c.1755.0411.239.0579.2707.0747.0186.0093.041.0168.0522.0168s.0915.0336.1792.0746c.5544.2595.9931.7859 1.1424 1.372.0523.2072.0597.2725.0597.5226 0 .2502-.0074.3155-.0597.5227-.1605.629-.6477 1.1834-1.2562 1.4298-.0691.028-.2613.0858-.364.1101-.1344.0336-.6664.0355-.7933.0019-.2165-.0542-.2445-.0616-.2744-.0784-.0187-.0094-.0411-.0168-.0523-.0168-.0205 0-.2464-.1064-.3471-.1643-.3043-.1736-.6776-.5786-.8157-.8866-.0822-.1792-.1064-.2483-.14-.3771-.0112-.041-.0299-.112-.0411-.1586-.0299-.112-.0299-.6403 0-.7672.028-.1195.0877-.3285.1101-.3808.1643-.3938.4685-.7634.8083-.9855.0896-.0579.1661-.1064.1717-.1064s.0616-.0243.1269-.0542c.1531-.069.2389-.097.4536-.1493.1064-.0243.6626-.0243.769 0z" />
		<path d="m28.4101 22.9124c-.0074.0056-.0709.0187-.14.028-.1213.015-.1848.028-.3714.071-.0747.0168-.3397.1026-.4107.1325-.1325.056-.461.2221-.5263.2669-.043.028-.084.0523-.0915.0523-.0317 0-.3864.2837-.5469.4386-.4891.4723-.7803.9763-.9912 1.7173-.0074.0299-.0242.1139-.0354.1867-.0131.0709-.0299.1773-.0392.2351-.0243.1344-.0243.7019 0 .8363.0093.0578.0261.1624.0392.2352.0242.1568.0298.1754.1288.4834.0933.2875.2855.6757.4629.9258.1437.2054.5637.6347.769.7877.3248.2408.7578.4574 1.12.5582.3882.1101.5674.1325 1.0266.1325.3602 0 .5021-.0112.7466-.0598.056-.0112.1307-.0242.1643-.0317.0336-.0056.0653-.0168.0709-.0261.0056-.0094.0299-.0168.0541-.0168.0243 0 .0504-.0093.056-.0187.0056-.0112.0318-.0186.056-.0186.0243 0 .0504-.0075.056-.0187.0056-.0093.028-.0187.0486-.0187.0186 0 .0504-.0074.069-.0168.0168-.0112.1195-.0597.2277-.1101.3902-.1848.6627-.3808.9987-.7205.4741-.476.7933-1.0621.9407-1.7285.0598-.2744.0672-.3472.0672-.7559 0-.4088-.0074-.4816-.0672-.756-.2053-.924-.7933-1.7677-1.566-2.2474-.267-.1661-.5581-.308-.7523-.3696-.2072-.0634-.4778-.1288-.657-.1568-.1064-.0149-.8941-.0317-.9072-.0168zm.7747 1.4858c.041.0112.1101.028.1512.0392.2258.0579.3789.1288.6066.2744.3602.2315.6664.6104.8157 1.0099.0373.0989.0485.1399.1027.3453.0317.1269.0317.6831-.0019.7933-.0131.0466-.0317.1176-.0429.1586-.155.5973-.6589 1.1629-1.2376 1.385-.1437.0542-.1829.0672-.392.1195-.1232.0317-.6663.0336-.7709.0019-.0429-.0131-.1138-.0318-.1568-.043-.1381-.0373-.1866-.056-.3789-.1493-.4461-.2165-.8045-.5954-.9967-1.0527-.0878-.2091-.0915-.2166-.1046-.28-.0056-.0318-.0205-.1027-.0336-.1587-.028-.1363-.028-.6365 0-.7653.0131-.056.028-.1288.0336-.1587.0075-.0317.0187-.0727.028-.0933.0075-.0205.0336-.0877.0579-.1493.1269-.3341.3864-.6626.713-.9072.14-.1045.4667-.2781.5245-.2781.015 0 .0336-.0093.0392-.0187.0056-.0112.0299-.0186.0504-.0186.0224 0 .0654-.0075.0971-.0168.0317-.0112.0877-.0262.1232-.0355.0915-.0261.6794-.0261.7728-.0019z" />
	</g>
</svg>
