<svg width="127" height="132" viewBox="0 0 127 132" fill="none" xmlns="http://www.w3.org/2000/svg">
<path d="M40.1299 67.08C38.1603 67.086 36.2332 66.5072 34.5928 65.417C32.9524 64.3269 31.6724 62.7744 30.915 60.9562C30.1576 59.1381 29.9568 57.136 30.3382 55.2036C30.7195 53.2713 31.6658 51.4956 33.0571 50.1014C34.4484 48.7073 36.2222 47.7575 38.1538 47.3722C40.0854 46.987 42.0879 47.1837 43.9076 47.9374C45.7273 48.6912 47.2823 49.968 48.3758 51.6063C49.4692 53.2445 50.0519 55.1704 50.0499 57.14C50.0342 59.768 48.9847 62.2841 47.1283 64.1443C45.2719 66.0044 42.7578 67.059 40.1299 67.08ZM40.1299 51.76C39.0654 51.758 38.0243 52.0719 37.1382 52.6618C36.2522 53.2518 35.561 54.0913 35.1523 55.0742C34.7436 56.0571 34.6356 57.1392 34.8421 58.1835C35.0485 59.2277 35.5601 60.1873 36.3121 60.9407C37.0641 61.6941 38.0227 62.2075 39.0666 62.4159C40.1105 62.6243 41.1928 62.5183 42.1764 62.1114C43.1601 61.7045 44.0009 61.015 44.5925 60.13C45.1841 59.2451 45.4999 58.2045 45.4999 57.14C45.4947 55.7165 44.9275 54.3526 43.9219 53.3451C42.9162 52.3376 41.5534 51.7679 40.1299 51.76Z" fill="#4D4D4E" stroke="#4D4D4E" stroke-width="0.25" stroke-miterlimit="10"/>
<path d="M63.45 67.0801C61.4812 67.082 59.5561 66.4999 57.9183 65.4073C56.2805 64.3148 55.0036 62.7609 54.2493 60.9424C53.495 59.1238 53.2971 57.1224 53.6807 55.1914C54.0643 53.2603 55.0121 51.4865 56.4043 50.0943C57.7964 48.7022 59.5703 47.7544 61.5013 47.3708C63.4323 46.9872 65.4338 47.185 67.2523 47.9394C69.0708 48.6937 70.6247 49.9706 71.7173 51.6084C72.8098 53.2462 73.392 55.1713 73.39 57.1401C73.3742 59.7714 72.322 62.2906 70.4612 64.1513C68.6005 66.012 66.0814 67.0643 63.45 67.0801ZM63.45 51.7601C62.3859 51.7601 61.3458 52.0756 60.461 52.6667C59.5763 53.2579 58.8867 54.0981 58.4795 55.0812C58.0723 56.0643 57.9658 57.146 58.1734 58.1896C58.381 59.2333 58.8934 60.1919 59.6458 60.9443C60.3982 61.6967 61.3568 62.2091 62.4004 62.4167C63.444 62.6243 64.5258 62.5177 65.5088 62.1105C66.4919 61.7033 67.3321 61.0138 67.9233 60.129C68.5145 59.2443 68.83 58.2041 68.83 57.1401C68.8273 55.714 68.2597 54.3471 67.2513 53.3387C66.2429 52.3304 64.876 51.7627 63.45 51.7601Z" fill="#4D4D4E" stroke="#4D4D4E" stroke-width="0.25" stroke-miterlimit="10"/>
<path d="M86.7701 67.0801C84.8013 67.082 82.8762 66.4999 81.2384 65.4073C79.6006 64.3148 78.3237 62.7609 77.5694 60.9424C76.815 59.1238 76.6172 57.1224 77.0008 55.1914C77.3844 53.2603 78.3322 51.4865 79.7243 50.0943C81.1165 48.7022 82.8903 47.7544 84.8214 47.3708C86.7524 46.9872 88.7538 47.185 90.5724 47.9394C92.3909 48.6937 93.9448 49.9706 95.0374 51.6084C96.1299 53.2462 96.712 55.1713 96.7101 57.1401C96.6943 59.7714 95.642 62.2906 93.7813 64.1513C91.9206 66.012 89.4015 67.0643 86.7701 67.0801ZM86.7701 51.7601C85.706 51.7601 84.6658 52.0756 83.7811 52.6667C82.8964 53.2579 82.2068 54.0981 81.7996 55.0812C81.3924 56.0643 81.2858 57.146 81.4934 58.1896C81.701 59.2333 82.2134 60.1919 82.9658 60.9443C83.7182 61.6967 84.6769 62.2091 85.7205 62.4167C86.7641 62.6243 87.8458 62.5177 88.8289 62.1105C89.812 61.7033 90.6522 61.0138 91.2434 60.129C91.8345 59.2443 92.1501 58.2041 92.1501 57.1401C92.1501 55.7132 91.5832 54.3448 90.5743 53.3358C89.5653 52.3269 88.1969 51.7601 86.7701 51.7601Z" fill="#4D4D4E" stroke="#4D4D4E" stroke-width="0.25" stroke-miterlimit="10"/>
<path d="M104.74 131.24L83.2801 109.78C76.8454 111.703 70.166 112.683 63.4501 112.69C28.7801 112.69 0.570068 87.6 0.570068 56.76C0.570068 25.92 28.7801 0.849976 63.4501 0.849976C98.1201 0.849976 126.33 25.94 126.33 56.76C126.33 72.96 118.48 88.27 104.74 98.92V131.24ZM84.5501 104.6L100.17 120.22V96.64L101.1 95.96C114.24 86.15 121.78 71.87 121.78 56.76C121.78 28.45 95.6001 5.41998 63.4501 5.41998C31.3001 5.41998 5.13007 28.42 5.13007 56.76C5.13007 85.1 31.3001 108.12 63.4501 108.12C70.1621 108.113 76.8321 107.061 83.2201 105L84.5501 104.6Z" fill="#4D4D4E" stroke="#4D4D4E" stroke-width="0.25" stroke-miterlimit="10"/>
</svg>
