<svg width="128" height="82" viewBox="0 0 128 82" fill="none" xmlns="http://www.w3.org/2000/svg">
<path d="M127.1 1.93998C127.02 1.70998 127.1 1.44998 126.9 1.23998C126.9 1.18998 126.81 1.23998 126.78 1.15998C126.561 0.970462 126.306 0.827554 126.03 0.739979C125.794 0.574244 125.524 0.461663 125.24 0.409977C125.24 0.409977 125.16 0.349976 125.1 0.349976H2.51023C2.45023 0.349976 2.42023 0.409977 2.37023 0.409977C2.08404 0.464885 1.81191 0.577139 1.57023 0.739979C1.30405 0.835856 1.05691 0.978043 0.840235 1.15998C0.840235 1.15998 0.750235 1.15998 0.710235 1.23998C0.550235 1.44998 0.590235 1.70998 0.520235 1.93998C0.450235 2.16998 0.240234 2.36998 0.240234 2.63998V79.25C0.240229 79.8529 0.479069 80.4314 0.904491 80.8587C1.32991 81.286 1.90728 81.5273 2.51023 81.53H125.1C125.704 81.5273 126.283 81.2863 126.71 80.8593C127.137 80.4323 127.378 79.8539 127.38 79.25V2.63998C127.38 2.36998 127.19 2.18998 127.1 1.93998ZM63.7902 47.28L9.17023 4.90998H118.44L63.7902 47.28ZM4.80023 77V7.28998L48.1802 40.94L15.5002 66.29C15.2616 66.4722 15.0616 66.7 14.912 66.9604C14.7625 67.2207 14.6662 67.5082 14.629 67.8061C14.5918 68.104 14.6143 68.4063 14.6952 68.6954C14.7761 68.9846 14.9138 69.2547 15.1002 69.49C15.3098 69.7655 15.5807 69.9885 15.8914 70.1413C16.2021 70.294 16.544 70.3723 16.8902 70.37C17.397 70.3686 17.8892 70.1999 18.2902 69.89L51.9002 43.82L62.4002 52C62.7969 52.312 63.2856 52.4843 63.7902 52.49C64.3014 52.4864 64.7971 52.3142 65.2002 52L75.7002 43.87L109.33 69.93C109.81 70.2656 110.4 70.4038 110.979 70.3161C111.558 70.2283 112.081 69.9212 112.439 69.4585C112.798 68.9958 112.965 68.4128 112.906 67.8304C112.846 67.248 112.565 66.7107 112.12 66.33L79.4202 40.94L122.82 7.28998V77H4.80023Z" fill="#4D4D4E" stroke="#4D4D4E" stroke-width="0.25" stroke-miterlimit="10"/>
</svg>
