<?xml version="1.0" encoding="UTF-8" ?>
<!DOCTYPE svg PUBLIC "-//W3C//DTD SVG 1.1//EN" "http://www.w3.org/Graphics/SVG/1.1/DTD/svg11.dtd">
<svg width="89pt" height="101pt" viewBox="0 0 89 101" version="1.1" xmlns="http://www.w3.org/2000/svg">
<g id="#c20a0aff">
</g>
<g id="#ffffffff">
<path fill="#ffffff" opacity="1.00" d=" M 0.77 9.95 C 0.61 3.57 8.52 -1.05 13.93 2.49 C 35.83 15.16 57.71 27.88 79.69 40.40 C 83.51 42.25 88.03 45.22 87.68 50.07 C 88.23 54.06 85.35 57.36 82.10 59.19 C 60.00 72.07 37.68 84.59 15.67 97.63 C 12.38 99.99 8.08 99.42 4.36 98.63 C 2.66 96.42 0.55 94.08 0.77 91.07 C 0.75 64.03 0.73 36.99 0.77 9.95 M 9.53 10.85 C 9.30 37.41 9.34 63.97 9.51 90.53 C 17.47 86.67 24.74 81.55 32.61 77.52 C 47.89 68.56 63.25 59.73 78.59 50.88 C 75.25 47.96 71.28 45.91 67.47 43.68 C 52.13 34.92 36.91 25.98 21.51 17.34 C 17.63 14.99 13.80 12.48 9.53 10.85 Z" />
</g>
</svg>
